<svg width="675" height="663" viewBox="0 0 675 663" fill="none" xmlns="http://www.w3.org/2000/svg">
<path d="M623.565 446.597H51.03V565.141H623.565V446.597Z" fill="white"/>
<path d="M623.565 566.069H51.03C50.49 566.069 50.085 565.672 49.95 565.009V446.464C49.95 445.934 50.355 445.536 51.03 445.403H623.565C624.105 445.403 624.51 445.801 624.645 446.464V565.009C624.51 565.672 624.105 566.069 623.565 566.069ZM51.975 564.08H622.485V447.525H51.975V564.08Z" fill="#453232"/>
<path d="M47.52 446.597H626.94C629.91 446.597 632.34 448.984 632.34 451.901V460.52C632.34 463.437 629.91 465.824 626.94 465.824H47.52C44.55 465.824 42.12 463.437 42.12 460.52V451.901C42.255 448.984 44.685 446.597 47.52 446.597Z" fill="white"/>
<path d="M626.94 466.752H47.52C44.01 466.752 41.175 463.967 41.175 460.52V451.901C41.175 448.453 44.01 445.669 47.52 445.669H626.94C630.45 445.669 633.285 448.453 633.285 451.901V460.52C633.285 463.967 630.45 466.752 626.94 466.752ZM47.52 447.658C45.09 447.658 43.2 449.514 43.2 451.901V460.52C43.2 462.907 45.09 464.763 47.52 464.763H626.94C629.37 464.763 631.26 462.907 631.26 460.52V451.901C631.26 449.514 629.37 447.658 626.94 447.658H47.52Z" fill="#453232"/>
<path d="M270.27 416.099H90.99V445.536H270.27V416.099Z" fill="#453232"/>
<path d="M270.27 446.597H90.99C90.45 446.597 89.91 446.199 89.91 445.536V416.099C89.91 415.568 90.315 415.038 90.99 415.038H270.27C270.81 415.038 271.35 415.436 271.35 416.099V445.536C271.215 446.066 270.81 446.597 270.27 446.597ZM92.07 444.608H269.325V417.16H91.935L92.07 444.608Z" fill="#453232"/>
<path d="M270.27 416.099H172.53V445.536H270.27V416.099Z" fill="white"/>
<path d="M270.27 446.597H172.53C171.99 446.597 171.45 446.199 171.45 445.669C171.45 445.669 171.45 445.669 171.45 445.536V416.099C171.45 415.568 171.855 415.171 172.53 415.038H270.27C270.81 415.038 271.35 415.436 271.35 416.099V445.536C271.215 446.066 270.81 446.597 270.27 446.597ZM173.475 444.608H269.19V417.16H173.475V444.608Z" fill="#453232"/>
<path d="M267.705 394.883H122.445V416.762H267.705V394.883Z" fill="#453232"/>
<path d="M267.705 417.69H122.445C121.905 417.69 121.365 417.292 121.365 416.629V394.75C121.365 394.22 121.77 393.689 122.445 393.689H267.57C268.11 393.689 268.65 394.087 268.65 394.75V416.629C268.65 417.16 268.245 417.69 267.705 417.69ZM123.525 415.701H266.76V395.811H123.66L123.525 415.701Z" fill="#453232"/>
<path d="M267.705 394.883H205.74V416.762H267.705V394.883Z" fill="white"/>
<path d="M267.705 417.69H205.74C205.2 417.69 204.795 417.292 204.66 416.762V394.883C204.66 394.352 205.065 393.955 205.605 393.822H267.57C268.11 393.822 268.65 394.22 268.65 394.883V416.762C268.65 417.16 268.245 417.69 267.705 417.69ZM206.685 415.701H266.625V395.811H206.685V415.701Z" fill="#453232"/>
<path d="M247.05 373.667H101.925V395.546H247.05V373.667Z" fill="#453232"/>
<path d="M247.185 396.474H101.925C101.385 396.474 100.845 396.076 100.845 395.413V373.534C100.845 373.004 101.25 372.606 101.79 372.473H246.915C247.455 372.473 247.995 372.871 247.995 373.534V395.413C248.13 395.944 247.725 396.474 247.185 396.474ZM103.005 394.485H246.24V374.595H103.14L103.005 394.485Z" fill="#453232"/>
<path d="M247.185 373.667H185.22V395.546H247.185V373.667Z" fill="white"/>
<path d="M247.185 396.474H185.22C184.68 396.474 184.275 396.076 184.14 395.413V373.534C184.14 373.004 184.545 372.473 185.22 372.473H247.185C247.725 372.473 248.265 372.871 248.265 373.534V395.413C248.13 395.944 247.725 396.474 247.185 396.474ZM186.165 394.485H246.105V374.595H186.165V394.485Z" fill="#453232"/>
<path d="M178.79 385.047C178.975 382.491 177.014 380.271 174.411 380.089C171.808 379.907 169.548 381.833 169.363 384.389C169.178 386.946 171.138 389.166 173.741 389.348C176.344 389.529 178.605 387.604 178.79 385.047Z" fill="white"/>
<path d="M174.15 390.374C171.045 390.374 168.48 387.855 168.48 384.805C168.48 381.755 171.045 379.236 174.15 379.236C177.255 379.236 179.82 381.755 179.82 384.805C179.82 387.855 177.255 390.374 174.15 390.374ZM174.15 381.092C172.125 381.092 170.505 382.684 170.505 384.673C170.505 386.662 172.125 388.253 174.15 388.253C176.175 388.253 177.795 386.662 177.795 384.673C177.795 382.816 176.175 381.092 174.15 381.092Z" fill="#453232"/>
<path d="M136.62 413.977C136.08 413.977 135.675 413.579 135.54 413.049V398.33C135.54 397.8 135.945 397.27 136.62 397.27C137.295 397.27 137.7 397.667 137.7 398.33V413.049C137.7 413.447 137.16 413.977 136.62 413.977Z" fill="#453232"/>
<path d="M156.06 443.149C155.52 443.149 154.98 442.751 154.98 442.088V419.016C154.98 418.486 155.385 417.955 156.06 417.955C156.735 417.955 157.14 418.353 157.14 419.016V442.088C157.14 442.619 156.6 443.149 156.06 443.149Z" fill="#453232"/>
<path d="M183.465 116.158L191.295 110.191L224.235 123.716L291.195 101.439L297.27 110.456L227.205 149.971L183.465 116.158Z" fill="#453232"/>
<path d="M208.035 221.972L180.9 113.24L223.965 131.539L301.86 103.826L321.84 213.619L250.155 237.884L208.035 221.972Z" fill="white"/>
<path d="M250.155 238.813C250.02 238.813 249.885 238.813 249.75 238.68L207.63 222.768C207.36 222.635 207.09 222.37 206.955 222.105L179.955 113.373C179.82 112.843 180.09 112.312 180.63 112.18C180.9 112.18 181.035 112.18 181.305 112.18L224.1 130.478L301.455 102.898C301.995 102.765 302.535 103.03 302.805 103.561V103.693L322.785 213.486C322.92 214.016 322.515 214.414 322.11 214.547L250.425 238.813C250.425 238.945 250.29 238.945 250.155 238.813ZM208.845 221.309L250.155 236.824L320.625 212.956L301.05 105.152L224.37 132.467C224.1 132.6 223.83 132.6 223.56 132.467L182.385 115.097L208.845 221.309Z" fill="#453232"/>
<path d="M243.945 233.111C243.405 233.111 243 232.713 243 232.315L223.155 131.672C223.02 131.141 223.425 130.611 223.965 130.478C224.505 130.346 225.045 130.744 225.18 131.274L245.025 231.917C245.16 232.448 244.755 232.978 244.215 233.111H243.945Z" fill="#453232"/>
<path d="M272.565 257.377C272.565 257.377 264.6 245.177 265.815 241.995C266.76 238.813 267.3 235.498 267.705 232.315L259.335 234.304C259.335 234.304 250.695 212.956 249.75 205.53C248.805 198.104 232.605 205 232.065 210.701C231.525 216.403 231.255 231.254 235.845 239.741C240.435 248.227 253.53 268.78 253.53 268.78" fill="white"/>
<path d="M253.395 269.708C252.99 269.708 252.72 269.576 252.585 269.178C252.45 269.045 239.49 248.492 234.9 240.006C230.31 231.52 230.31 216.934 230.985 210.436C231.525 205.928 239.625 201.287 245.295 201.154C248.4 201.154 250.425 202.613 250.83 205.265C251.64 211.63 258.39 229 260.01 232.978L267.57 231.254C267.84 231.122 268.245 231.254 268.515 231.52C268.785 231.785 268.92 232.05 268.785 232.315C268.515 235.63 267.84 239.078 266.895 242.26C266.355 243.984 269.73 250.879 273.51 256.714C273.78 257.111 273.645 257.774 273.24 258.04C272.835 258.305 272.16 258.172 271.89 257.774C270.54 255.653 263.79 245.045 265.005 241.597C265.815 238.945 266.355 236.293 266.625 233.509L259.605 235.1C259.065 235.232 258.66 234.967 258.39 234.569C257.985 233.641 249.615 212.956 248.805 205.53C248.67 205 248.535 203.143 245.295 203.143C240.435 203.143 233.415 207.386 233.01 210.569C232.335 216.934 232.335 230.989 236.655 239.078C241.245 247.564 254.205 267.852 254.34 268.117C254.61 268.515 254.475 269.178 254.07 269.443C253.8 269.576 253.665 269.708 253.395 269.708Z" fill="#453232"/>
<path d="M520.155 269.178C520.02 269.178 519.885 269.178 519.75 269.178C519.21 268.913 518.94 268.382 519.21 267.852C527.58 247.166 522.45 221.309 506.79 205.132C505.98 204.337 505.17 203.541 504.36 202.613C499.095 197.309 493.02 191.342 493.425 183.518C493.56 181.927 493.83 180.336 494.235 178.745C494.505 177.551 494.775 176.358 494.91 175.165C495.585 167.606 489.105 161.242 483.57 157.264C482.22 156.335 480.87 155.407 479.52 154.346L479.385 154.214C473.85 150.501 468.18 146.656 464.67 140.821C460.62 133.926 459.945 126.103 459.405 118.544C458.865 111.914 458.46 105.152 455.49 99.1848C445.365 78.3666 419.985 69.4824 398.79 79.4274C395.955 80.7534 393.39 82.3446 390.96 84.201C385.83 88.0464 381.78 93.0852 379.35 98.9196C376.65 105.417 375.975 112.71 375.705 119.738C374.895 134.854 373.545 149.573 364.905 162.037C362.205 165.617 359.37 169.065 356.265 172.38C350.595 178.612 345.195 184.314 343.575 191.872C341.955 199.961 344.925 208.182 351.54 213.221C351.945 213.619 351.945 214.282 351.675 214.679C351.405 215.077 350.73 215.077 350.325 214.812C343.17 209.243 339.795 200.226 341.685 191.474C343.44 183.518 348.975 177.419 354.78 171.054C357.885 167.872 360.72 164.557 363.285 160.976C371.52 148.91 373.005 134.589 373.68 119.738C374.085 112.577 374.625 105.019 377.46 98.2566C380.16 92.157 384.345 86.853 389.745 82.7424C409.185 67.8912 437.13 71.2062 452.25 90.168C454.275 92.6874 455.895 95.3394 457.38 98.2566C460.485 104.489 461.025 111.517 461.43 118.279C461.97 125.572 462.51 133.13 466.425 139.628C469.665 145.064 475.2 148.777 480.465 152.357L480.6 152.49C481.95 153.418 483.435 154.346 484.785 155.407C490.725 159.783 497.745 166.678 496.935 175.165C496.8 176.491 496.53 177.684 496.26 179.01C495.855 180.469 495.585 181.927 495.45 183.518C495.18 190.546 500.85 196.115 505.845 201.154C506.655 201.95 507.6 202.878 508.41 203.674C524.61 220.381 529.875 247.034 521.235 268.515C520.83 268.913 520.56 269.178 520.155 269.178Z" fill="#453232"/>
<path d="M361.8 207.121L319.68 297.952L278.64 252.868L244.35 268.78C244.35 268.78 319.95 380.827 340.74 370.617C361.53 360.407 391.365 269.974 391.365 269.974L361.8 207.121Z" fill="#F29AA8"/>
<path d="M416.34 181.927C416.34 181.927 370.575 186.833 359.91 208.58C349.245 230.326 351.54 331.102 351.54 331.102L520.29 348.871C520.29 348.871 515.97 265.996 508.005 229.265C500.04 192.535 475.74 168.137 416.34 181.927Z" fill="#F29AA8"/>
<path d="M402.84 192.933L419.85 282.703L443.34 184.314L402.84 192.933Z" fill="#453232"/>
<path d="M419.85 283.764C419.31 283.764 418.905 283.366 418.905 282.968L401.895 193.066C401.76 192.535 402.165 192.005 402.705 191.872L443.205 183.253C443.61 183.253 443.88 183.253 444.15 183.518C444.42 183.784 444.555 184.049 444.42 184.447L420.93 282.968C420.795 283.499 420.39 283.764 419.85 283.764ZM404.055 193.596L419.985 277.93L441.99 185.64L404.055 193.596Z" fill="#453232"/>
<path d="M402.975 166.678L402.84 192.933C402.84 192.933 405.54 207.519 421.74 203.143C431.46 200.359 439.425 193.463 443.34 184.314L441.45 138.965C441.315 137.108 433.485 129.815 433.755 113.108C422.145 112.975 411.21 108.202 403.515 99.7152C403.515 99.7152 396.765 109.66 393.795 112.843C391.5 115.229 389.34 117.881 387.72 120.799C385.02 125.837 385.02 132.202 385.155 137.771C385.155 144.401 385.83 151.031 387.18 157.529C389.88 169.728 402.975 166.678 402.975 166.678Z" fill="white"/>
<path d="M415.935 204.867C413.235 204.867 410.67 204.204 408.51 202.878C405.135 200.624 402.705 197.044 401.76 193.066V192.933L401.895 167.872C398.385 168.402 394.74 167.739 391.635 166.015C388.665 164.026 386.775 160.976 386.235 157.661C384.885 151.164 384.21 144.401 384.21 137.771C384.075 132.335 383.94 125.705 386.775 120.401C388.53 117.484 390.555 114.699 392.985 112.312C395.82 109.262 402.57 99.3174 402.57 99.3174C402.705 99.0522 403.11 98.9196 403.38 98.9196C403.65 98.9196 404.055 99.0522 404.19 99.3174C411.75 107.539 422.415 112.18 433.755 112.312C434.025 112.312 434.295 112.445 434.43 112.577C434.565 112.71 434.7 112.975 434.7 113.24C434.43 121.329 436.59 129.285 440.91 136.18C441.585 136.976 441.99 138.037 442.26 139.097C442.26 139.363 444.15 184.447 444.15 184.447C444.15 184.579 444.15 184.712 444.15 184.844C440.1 194.259 432 201.419 421.875 204.204C420.12 204.602 418.095 204.867 415.935 204.867ZM403.785 192.8C404.595 196.248 406.62 199.298 409.59 201.287C412.695 203.143 416.61 203.408 421.47 202.215C430.785 199.563 438.345 192.933 442.26 184.181C440.37 138.965 440.37 138.965 440.37 138.965C440.1 138.302 439.695 137.639 439.29 137.108C434.835 130.213 432.54 122.257 432.675 114.169C421.605 113.771 411.21 109.262 403.515 101.439C400.68 105.682 397.71 109.66 394.47 113.638C392.175 115.892 390.15 118.544 388.53 121.329C385.83 126.235 385.965 132.335 386.1 137.771C386.1 144.269 386.775 150.899 388.125 157.264C388.53 160.181 390.285 162.7 392.715 164.424C397.035 167.076 402.57 165.883 402.705 165.883C402.975 165.75 403.38 165.883 403.515 166.015C403.785 166.148 403.92 166.546 403.92 166.811L403.785 192.8Z" fill="#453232"/>
<path d="M403.11 179.54C403.11 179.54 413.91 180.071 420.93 172.91C427.95 165.75 426.87 158.722 426.87 158.722C426.87 158.722 415.125 166.413 402.975 166.678L403.11 179.54Z" fill="#453232"/>
<path d="M403.65 180.469H403.11C402.57 180.469 402.165 180.071 402.165 179.54L402.03 166.678C402.03 166.148 402.435 165.75 402.975 165.617C414.72 165.352 426.195 157.927 426.33 157.794C426.735 157.529 427.41 157.661 427.68 158.059C427.815 158.192 427.815 158.324 427.815 158.457C427.815 158.722 428.895 166.148 421.605 173.573C415.26 180.071 405.945 180.469 403.65 180.469ZM404.055 167.606L404.19 178.48C406.89 178.347 414.855 177.684 420.255 172.115C423.495 168.932 425.52 164.822 425.925 160.313C422.415 162.568 413.505 167.076 404.055 167.606Z" fill="#453232"/>
<path d="M405.945 128.224C405.945 128.224 397.305 140.821 399.465 142.943C401.625 145.064 407.16 143.738 407.16 143.738" fill="white"/>
<path d="M403.38 145.197C401.625 145.33 400.005 144.799 398.655 143.606C397.71 142.545 397.305 139.097 405.135 127.561C405.405 127.031 405.945 126.898 406.485 127.163C407.025 127.429 407.16 127.959 406.89 128.489L406.755 128.622C402.57 134.854 399.465 141.086 400.14 142.147C401.49 143.606 405.54 142.943 406.89 142.545C407.43 142.412 407.97 142.678 408.105 143.208C408.24 143.738 407.97 144.269 407.43 144.401C406.08 144.932 404.73 145.197 403.38 145.197Z" fill="#453232"/>
<path d="M396.9 149.971C396.9 149.971 404.595 161.109 418.095 150.368Z" fill="white"/>
<path d="M406.755 156.07C406.08 156.07 405.54 156.07 404.865 155.938C401.22 155.407 398.115 153.418 395.955 150.501C395.685 150.103 395.82 149.44 396.225 149.175C396.63 148.91 397.305 149.042 397.575 149.44C399.465 151.827 402.165 153.418 405.135 153.949C408.915 154.479 412.965 153.02 417.285 149.573C417.69 149.175 418.365 149.308 418.635 149.705C419.04 150.103 418.905 150.766 418.5 151.164C414.585 154.479 410.67 156.07 406.755 156.07Z" fill="#453232"/>
<path d="M371.385 330.041C370.71 330.041 370.305 329.511 370.305 328.981L376.65 225.022C376.65 224.492 377.19 224.094 377.73 224.094C378.27 224.094 378.675 224.624 378.675 225.155L372.33 329.113C372.33 329.511 371.925 329.909 371.385 330.041Z" fill="#453232"/>
<path d="M387.855 460.918C343.845 460.918 302.4 457.072 301.995 457.072L300.51 456.94L282.825 403.502V403.237C281.745 393.557 280.8 384.275 286.605 377.38C291.735 371.147 301.995 367.567 318.465 365.976L368.01 356.031L369.495 326.329L494.505 339.986L494.91 341.312C499.635 355.235 503.01 369.424 504.9 384.01C508.41 412.519 503.82 432.541 491.4 443.547C478.44 455.083 443.61 460.918 387.855 460.918Z" fill="#453232"/>
<path d="M328.185 408.143C328.185 408.143 320.085 369.689 290.52 378.308C260.955 386.927 326.7 530.135 326.7 539.549C326.7 548.964 301.59 577.34 301.59 577.34C308.745 576.943 315.9 576.28 323.055 575.219C330.885 573.76 352.215 543.262 353.025 539.947C353.835 536.632 338.175 435.724 328.185 408.143Z" fill="white"/>
<path d="M301.59 578.401C301.185 578.401 300.915 578.136 300.645 577.871C300.51 577.473 300.51 577.075 300.78 576.81C309.42 567.13 325.62 546.842 325.62 539.682C325.62 537.56 321.3 526.422 315.9 512.234C300.24 471.26 273.915 402.706 283.905 382.816C285.12 380.297 287.28 378.308 289.98 377.512C297.675 375.258 304.695 375.921 310.77 379.501C324.27 387.325 328.59 406.552 328.995 408.01C338.58 434.663 354.78 536.102 353.835 540.345C353.16 543.395 331.56 574.821 323.055 576.28C316.035 577.34 308.88 578.003 301.59 578.401ZM298.89 378.043C296.19 378.043 293.355 378.44 290.79 379.236C288.63 379.899 286.875 381.49 285.93 383.612C276.21 402.839 303.345 473.515 317.925 511.438C324.405 528.278 327.78 537.163 327.78 539.549C327.78 547.903 309.555 569.782 303.885 576.147C310.23 575.749 316.575 575.086 322.785 574.158C329.94 572.832 351.27 542.732 351.945 539.682C352.35 536.897 337.365 436.387 327.24 408.408C327.24 408.275 322.92 388.651 309.96 381.092C306.585 379.103 302.805 378.043 298.89 378.043Z" fill="#453232"/>
<path d="M313.335 594.446C312.255 594.446 311.175 594.446 310.095 594.446C301.86 594.048 292.005 591.926 288.9 587.02C287.685 585.164 287.55 582.91 288.495 580.921C291.735 573.495 299.7 572.832 299.97 572.832C300.24 572.832 316.17 571.904 323.055 570.445C326.97 569.65 340.47 553.738 351.135 538.754L353.7 535.174L355.05 539.417C358.02 549.494 360.315 559.572 361.935 569.915C365.04 588.611 364.095 589.142 362.61 589.805C361.665 590.203 359.775 590.468 352.62 590.998L350.055 591.131H349.785C347.22 591.131 346.005 588.877 345.465 586.357C343.44 588.214 341.145 589.672 338.58 590.733C333.99 592.589 323.055 594.446 313.335 594.446Z" fill="#453232"/>
<path d="M396.225 540.08C396.225 540.08 383.4 415.568 377.46 392.363C371.52 369.158 337.5 361.865 327.105 389.977C316.71 418.088 368.01 528.544 364.095 540.08C360.18 551.616 345.33 574.423 345.33 574.423C345.33 574.423 361.125 582.114 372.465 574.423C383.805 566.732 396.225 540.08 396.225 540.08Z" fill="white"/>
<path d="M360.45 578.932C355.05 578.799 349.785 577.606 344.925 575.351C344.655 575.219 344.52 574.954 344.385 574.688C344.25 574.423 344.385 574.158 344.52 573.893C344.655 573.628 359.235 551.086 363.15 539.682C364.5 535.571 357.345 514.886 349.65 493.007C336.285 454.685 319.68 407.082 326.16 389.446C330.75 377.114 340.47 370.087 352.35 370.617C364.905 371.413 375.435 380.032 378.405 391.966C384.345 415.038 397.035 538.621 397.17 539.815C397.17 539.947 397.17 540.212 397.035 540.345C396.495 541.406 384.48 567.395 373.005 575.086C369.36 577.738 364.905 579.064 360.45 578.932ZM346.95 574.025C350.595 575.484 362.88 579.86 372.06 573.628C382.455 566.467 394.065 542.599 395.28 539.815C394.605 533.317 382.32 414.905 376.65 392.496C373.815 381.358 364.095 373.402 352.485 372.606C341.55 372.076 332.505 378.573 328.32 390.109C322.11 407.082 339.255 456.277 351.81 492.344C361.395 519.925 366.795 535.704 365.31 540.345C361.665 550.82 349.785 569.517 346.95 574.025Z" fill="#453232"/>
<path d="M346.815 597.363C334.8 597.363 331.425 596.037 329.94 595.109C328.455 594.181 326.43 592.589 326.16 590.335C325.89 587.683 327.645 585.694 329.94 583.44C330.48 582.777 331.155 582.114 331.695 581.451C336.015 576.412 344.25 572.699 344.52 572.567L345.33 572.169L346.275 572.567C348.435 573.23 350.595 573.495 352.89 573.362C358.29 573.23 363.555 572.169 368.55 570.313C382.59 565.274 394.2 539.549 394.2 539.284L397.035 532.919L398.52 539.682C402.165 556.92 403.38 574.556 402.3 592.192L402.165 593.783L400.545 594.181C397.44 594.976 394.2 595.374 390.96 595.772C390.555 595.772 390.285 595.772 389.88 595.639C388.665 595.374 387.315 594.976 387.045 586.888C384.075 590.335 380.16 594.313 377.055 595.241C373.545 596.17 358.695 597.363 346.815 597.363Z" fill="#453232"/>
<path d="M499.5 395.015C500.985 397.27 505.98 444.873 505.98 444.873C505.98 444.873 560.925 449.779 561.735 445.934C562.545 442.088 533.655 432.541 533.655 432.541L524.61 394.75" fill="white"/>
<path d="M550.665 448.453C546.615 448.453 540.945 448.321 533.52 447.923C519.885 447.127 505.98 445.934 505.845 445.934C505.305 445.934 505.035 445.536 504.9 445.006C503.01 426.972 499.635 397.667 498.555 395.546C498.285 395.148 498.42 394.485 498.825 394.22C499.23 393.955 499.905 394.087 500.175 394.485C501.66 396.739 505.44 431.878 506.79 443.945C531.225 446.066 557.415 447.26 560.52 445.669C559.71 443.945 549.315 438.906 533.25 433.602C532.98 433.469 532.71 433.204 532.575 432.939L523.53 395.148C523.395 394.618 523.8 394.087 524.34 393.955C524.88 393.822 525.42 394.22 525.555 394.75L534.465 432.011C545.535 435.724 563.49 442.354 562.68 446.332C562.545 447.127 562.275 448.453 550.665 448.453Z" fill="#453232"/>
<path d="M506.52 226.613L544.05 406.021L492.345 407.347C492.345 407.347 474.39 312.273 473.31 297.952C472.23 283.631 506.52 226.613 506.52 226.613Z" fill="#F29AA8"/>
<path d="M391.905 137.241C398.317 137.241 403.515 132.135 403.515 125.837C403.515 119.539 398.317 114.434 391.905 114.434C385.493 114.434 380.295 119.539 380.295 125.837C380.295 132.135 385.493 137.241 391.905 137.241Z" fill="white"/>
<path d="M391.905 138.302H391.365C384.345 138.037 378.945 132.202 379.215 125.307C379.35 118.412 385.155 112.975 392.04 112.975C399.06 113.108 404.595 118.81 404.595 125.572C404.595 125.837 404.595 125.97 404.595 126.235C404.325 132.998 398.655 138.302 391.905 138.302ZM391.905 115.362C385.965 115.362 381.24 120.003 381.24 125.837C381.24 131.672 385.965 136.313 391.905 136.313C397.575 136.313 402.3 131.804 402.57 126.235C402.84 120.401 398.25 115.627 392.31 115.362H391.905Z" fill="#453232"/>
<path d="M417.555 116.29C411.615 116.29 406.89 120.931 406.89 126.766C406.89 132.6 411.615 137.241 417.555 137.241C423.225 137.241 427.95 132.733 428.22 127.163C428.49 121.329 423.9 116.555 417.96 116.29H417.555Z" fill="white"/>
<path d="M417.69 138.302H417.15C410.4 138.169 405 132.733 405.135 125.97C405.27 119.34 410.805 114.036 417.69 114.169C424.44 114.301 429.84 119.738 429.705 126.5C429.57 132.998 424.17 138.169 417.69 138.302ZM417.69 117.351C412.29 117.484 407.97 121.859 408.105 127.163C408.24 132.467 412.695 136.711 418.095 136.578C423.495 136.445 427.815 132.07 427.68 126.766C427.545 121.594 423.36 117.484 418.095 117.351H417.69Z" fill="#453232"/>
<path d="M334.53 316.251C334.26 316.251 333.99 316.118 333.72 315.853L283.905 259.366C283.5 258.968 283.635 258.305 284.04 257.907C284.445 257.509 285.12 257.642 285.525 258.04L335.475 314.527C335.88 314.925 335.745 315.588 335.34 315.853C335.07 316.251 334.8 316.251 334.53 316.251Z" fill="#453232"/>
<path d="M242.865 148.91L290.115 131.141L294.435 152.49L246.78 167.474L242.865 148.91Z" fill="#453232"/>
<path d="M392.857 124.674C392.915 123.211 392.298 121.999 391.479 121.967C390.659 121.936 389.948 123.096 389.889 124.56C389.831 126.023 390.447 127.235 391.267 127.267C392.086 127.299 392.798 126.138 392.857 124.674Z" fill="#453232"/>
<path d="M419.273 126.091C419.332 124.627 418.715 123.415 417.895 123.384C417.076 123.352 416.364 124.513 416.305 125.976C416.247 127.44 416.864 128.652 417.683 128.683C418.503 128.715 419.215 127.554 419.273 126.091Z" fill="#453232"/>
<path d="M429.165 127.429C431.595 127.296 452.79 125.97 453.465 134.987Z" fill="#453232"/>
<path d="M453.6 136.048C453.06 136.048 452.655 135.65 452.52 135.119C451.845 126.898 430.11 128.357 429.3 128.357C428.76 128.489 428.22 128.092 428.085 127.561C427.95 127.031 428.355 126.5 428.895 126.368H429.03C433.08 126.103 453.6 125.042 454.545 134.854C454.68 135.517 454.275 135.915 453.6 136.048Z" fill="#453232"/>
<path d="M432 136.578C432.405 134.589 433.485 132.865 434.97 131.539C436.455 130.346 438.075 129.55 439.83 128.887C440.775 128.489 441.72 128.224 442.8 128.224C443.475 128.357 444.285 128.489 444.825 128.887C446.445 129.55 447.66 130.744 448.335 132.335C448.74 133.661 448.875 134.987 448.605 136.313C448.47 137.771 448.2 139.23 447.66 140.556C445.5 146.258 438.885 149.175 433.08 146.921C433.08 146.921 432.945 146.921 432.945 146.788" fill="white"/>
<path d="M437.265 148.777C435.645 148.777 434.16 148.512 432.675 147.849C432.135 147.716 431.865 147.053 432 146.523C432.135 145.993 432.81 145.727 433.35 145.86C433.35 145.86 433.35 145.86 433.485 145.86C438.75 147.982 444.69 145.462 446.85 140.291V140.158C447.39 138.832 447.66 137.506 447.795 136.18C447.93 134.987 447.93 133.793 447.525 132.6C446.85 131.274 445.77 130.213 444.42 129.683C443.88 129.418 443.34 129.152 442.8 129.152C441.855 129.152 441.045 129.418 440.235 129.683C438.615 130.213 436.995 131.141 435.645 132.202C434.295 133.396 433.35 134.987 432.945 136.711C432.81 137.241 432.27 137.639 431.73 137.506C431.19 137.374 430.785 136.843 430.92 136.313C431.325 134.191 432.54 132.202 434.295 130.744C435.915 129.55 437.67 128.622 439.56 127.959C440.64 127.429 441.855 127.163 442.935 127.296C443.745 127.429 444.555 127.694 445.365 128.092C447.12 128.887 448.605 130.346 449.415 132.07C449.955 133.528 450.09 134.987 449.82 136.578C449.685 138.169 449.415 139.628 448.74 141.086C447.525 144.136 445.23 146.523 442.125 147.849C440.64 148.512 439.02 148.91 437.265 148.777Z" fill="#453232"/>
<path d="M491.535 404.032C490.995 404.032 490.59 403.634 490.59 403.237L460.08 220.646C459.945 220.116 460.35 219.586 460.89 219.453C461.43 219.32 461.97 219.718 462.105 220.249L492.48 402.839C492.615 403.369 492.21 403.9 491.67 404.032H491.535Z" fill="#453232"/>
<path d="M400.14 359.213C400.005 359.213 399.87 359.213 399.735 359.081C387.72 353.777 370.98 357.622 370.17 357.887C369.63 358.02 369.09 357.622 368.955 357.092C368.82 356.561 369.225 356.031 369.765 355.898C370.44 355.766 387.855 351.655 400.545 357.224C401.085 357.49 401.22 358.02 401.085 358.55C400.815 358.948 400.545 359.213 400.14 359.213Z" fill="white"/>
<path d="M464.4 324.605C464.265 324.605 463.995 324.605 463.86 324.472L438.615 310.019C438.075 309.754 437.94 309.091 438.21 308.693C438.48 308.162 439.155 308.03 439.56 308.295L464.805 322.748C465.345 323.014 465.48 323.677 465.21 324.074C465.075 324.472 464.805 324.605 464.4 324.605Z" fill="#453232"/>
<path d="M382.32 315.986C381.78 315.986 381.24 315.588 381.24 315.058C381.24 314.792 381.375 314.395 381.645 314.262L396.765 302.328C397.17 301.93 397.845 302.063 398.25 302.461C398.655 302.858 398.52 303.521 398.115 303.919L382.995 315.853C382.86 315.853 382.59 315.986 382.32 315.986Z" fill="#453232"/>
<path d="M197.64 518.864C202.5 514.621 207.9 511.173 213.705 508.521C214.245 525.361 207.225 541.008 200.745 551.616H179.82" fill="white"/>
<path d="M200.745 552.544H179.82C179.28 552.544 178.74 552.146 178.74 551.483C178.74 550.82 179.145 550.423 179.82 550.423H200.205C206.01 540.61 212.76 525.892 212.76 509.847C207.495 512.366 202.635 515.549 198.315 519.394C197.91 519.792 197.235 519.659 196.83 519.262C196.425 518.864 196.56 518.201 196.965 517.803C201.825 513.56 207.36 509.98 213.3 507.328C213.84 507.195 214.38 507.328 214.65 507.858C214.65 507.991 214.65 508.123 214.65 508.123C215.19 525.494 207.765 541.406 201.555 551.749C201.42 552.412 201.15 552.544 200.745 552.544Z" fill="#453232"/>
<path d="M167.67 523.372C172.8 496.985 193.86 480.41 193.86 480.41C197.775 492.874 199.125 505.869 197.64 518.864C196.56 530.002 194.13 541.008 190.35 551.616H167.805" fill="white"/>
<path d="M190.35 552.544H167.805C167.265 552.544 166.725 552.146 166.725 551.483C166.725 550.82 167.13 550.423 167.805 550.423H189.675C193.185 540.08 195.615 529.472 196.695 518.599C198.045 506.267 196.83 493.802 193.32 482.001C188.865 485.846 172.935 501.228 168.615 523.505C168.615 524.035 168.075 524.433 167.535 524.433C166.995 524.433 166.59 523.903 166.59 523.372V523.24C171.72 496.72 192.915 479.747 193.185 479.614C193.455 479.349 193.725 479.349 194.13 479.482C194.4 479.614 194.67 479.879 194.805 480.145C198.72 492.742 200.07 505.869 198.72 518.996C197.64 530.267 195.21 541.273 191.43 552.014C191.16 552.279 190.755 552.544 190.35 552.544Z" fill="#453232"/>
<path d="M156.465 551.616H176.445C176.58 545.782 175.23 537.03 168.885 525.626L167.535 523.372C155.925 504.145 145.395 504.41 145.395 504.41C140.94 524.566 150.39 542.599 156.465 551.616Z" fill="white"/>
<path d="M176.445 552.544H156.465C156.195 552.544 155.79 552.412 155.655 552.146C149.58 542.997 139.86 524.831 144.45 504.145C144.585 503.747 144.99 503.35 145.395 503.35C145.8 503.35 156.735 503.35 168.48 522.842C168.885 523.505 169.29 524.3 169.695 525.096C176.445 537.03 177.525 546.047 177.39 551.616C177.39 552.146 176.985 552.544 176.445 552.544ZM157.005 550.555H175.5C175.5 545.251 174.15 536.897 168.075 526.024L166.86 523.903C157.545 508.521 149.04 505.869 146.34 505.471C142.425 524.698 151.2 541.804 157.005 550.555Z" fill="#453232"/>
<path d="M160.11 582.777H199.26L205.605 551.616H153.765L160.11 582.777Z" fill="#453232"/>
<path d="M199.26 583.705H160.11C159.57 583.705 159.165 583.307 159.165 582.91L152.82 551.749C152.82 551.483 152.82 551.218 153.09 550.953C153.225 550.688 153.63 550.555 153.9 550.555H205.74C206.01 550.555 206.28 550.688 206.55 550.953C206.685 551.218 206.82 551.483 206.685 551.749L200.34 582.91C200.205 583.307 199.8 583.705 199.26 583.705ZM160.92 581.716H198.45L204.39 552.544H155.115L160.92 581.716Z" fill="#453232"/>
</svg>
