<svg width="593" height="525" viewBox="0 0 593 525" fill="none" xmlns="http://www.w3.org/2000/svg">
<path d="M582.565 373.597H10.03V492.141H582.565V373.597Z" fill="white"/>
<path d="M582.565 493.069H10.03C9.48998 493.069 9.08498 492.672 8.94998 492.009V373.464C8.94998 372.934 9.35498 372.536 10.03 372.403H582.565C583.105 372.403 583.51 372.801 583.645 373.464V492.009C583.51 492.672 583.105 493.069 582.565 493.069ZM10.975 491.08H581.485V374.525H10.975V491.08Z" fill="#453232"/>
<path d="M6.52 373.597H585.94C588.91 373.597 591.34 375.984 591.34 378.901V387.52C591.34 390.437 588.91 392.824 585.94 392.824H6.52C3.55 392.824 1.12 390.437 1.12 387.52V378.901C1.255 375.984 3.685 373.597 6.52 373.597Z" fill="white"/>
<path d="M585.94 393.752H6.51999C3.00999 393.752 0.174988 390.967 0.174988 387.52V378.901C0.174988 375.453 3.00999 372.669 6.51999 372.669H585.94C589.45 372.669 592.285 375.453 592.285 378.901V387.52C592.285 390.967 589.45 393.752 585.94 393.752ZM6.51999 374.658C4.08999 374.658 2.19999 376.514 2.19999 378.901V387.52C2.19999 389.907 4.08999 391.763 6.51999 391.763H585.94C588.37 391.763 590.26 389.907 590.26 387.52V378.901C590.26 376.514 588.37 374.658 585.94 374.658H6.51999Z" fill="#453232"/>
<path d="M229.27 343.099H49.99V372.536H229.27V343.099Z" fill="#453232"/>
<path d="M229.27 373.597H49.99C49.45 373.597 48.91 373.199 48.91 372.536V343.099C48.91 342.568 49.315 342.038 49.99 342.038H229.27C229.81 342.038 230.35 342.436 230.35 343.099V372.536C230.215 373.066 229.81 373.597 229.27 373.597ZM51.07 371.608H228.325V344.16H50.935L51.07 371.608Z" fill="#453232"/>
<path d="M229.27 343.099H131.53V372.536H229.27V343.099Z" fill="white"/>
<path d="M229.27 373.597H131.53C130.99 373.597 130.45 373.199 130.45 372.669C130.45 372.669 130.45 372.669 130.45 372.536V343.099C130.45 342.568 130.855 342.171 131.53 342.038H229.27C229.81 342.038 230.35 342.436 230.35 343.099V372.536C230.215 373.066 229.81 373.597 229.27 373.597ZM132.475 371.608H228.19V344.16H132.475V371.608Z" fill="#453232"/>
<path d="M226.705 321.883H81.445V343.762H226.705V321.883Z" fill="#453232"/>
<path d="M226.705 344.69H81.445C80.905 344.69 80.365 344.292 80.365 343.629V321.75C80.365 321.22 80.77 320.689 81.445 320.689H226.57C227.11 320.689 227.65 321.087 227.65 321.75V343.629C227.65 344.16 227.245 344.69 226.705 344.69ZM82.525 342.701H225.76V322.811H82.66L82.525 342.701Z" fill="#453232"/>
<path d="M226.705 321.883H164.74V343.762H226.705V321.883Z" fill="white"/>
<path d="M226.705 344.69H164.74C164.2 344.69 163.795 344.292 163.66 343.762V321.883C163.66 321.352 164.065 320.955 164.605 320.822H226.57C227.11 320.822 227.65 321.22 227.65 321.883V343.762C227.65 344.16 227.245 344.69 226.705 344.69ZM165.685 342.701H225.625V322.811H165.685V342.701Z" fill="#453232"/>
<path d="M206.05 300.667H60.925V322.546H206.05V300.667Z" fill="#453232"/>
<path d="M206.185 323.474H60.925C60.385 323.474 59.845 323.076 59.845 322.413V300.534C59.845 300.004 60.25 299.606 60.79 299.473H205.915C206.455 299.473 206.995 299.871 206.995 300.534V322.413C207.13 322.944 206.725 323.474 206.185 323.474ZM62.005 321.485H205.24V301.595H62.14L62.005 321.485Z" fill="#453232"/>
<path d="M206.185 300.667H144.22V322.546H206.185V300.667Z" fill="white"/>
<path d="M206.185 323.474H144.22C143.68 323.474 143.275 323.076 143.14 322.413V300.534C143.14 300.004 143.545 299.473 144.22 299.473H206.185C206.725 299.473 207.265 299.871 207.265 300.534V322.413C207.13 322.944 206.725 323.474 206.185 323.474ZM145.165 321.485H205.105V301.595H145.165V321.485Z" fill="#453232"/>
<path d="M137.79 312.047C137.975 309.491 136.014 307.271 133.411 307.089C130.808 306.907 128.548 308.833 128.363 311.389C128.178 313.946 130.138 316.166 132.741 316.348C135.344 316.529 137.605 314.604 137.79 312.047Z" fill="white"/>
<path d="M133.15 317.374C130.045 317.374 127.48 314.855 127.48 311.805C127.48 308.755 130.045 306.236 133.15 306.236C136.255 306.236 138.82 308.755 138.82 311.805C138.82 314.855 136.255 317.374 133.15 317.374ZM133.15 308.092C131.125 308.092 129.505 309.684 129.505 311.673C129.505 313.662 131.125 315.253 133.15 315.253C135.175 315.253 136.795 313.662 136.795 311.673C136.795 309.816 135.175 308.092 133.15 308.092Z" fill="#453232"/>
<path d="M95.62 340.977C95.08 340.977 94.675 340.579 94.54 340.049V325.33C94.54 324.8 94.945 324.27 95.62 324.27C96.295 324.27 96.7 324.667 96.7 325.33V340.049C96.7 340.447 96.16 340.977 95.62 340.977Z" fill="#453232"/>
<path d="M115.06 370.149C114.52 370.149 113.98 369.751 113.98 369.088V346.016C113.98 345.486 114.385 344.955 115.06 344.955C115.735 344.955 116.14 345.353 116.14 346.016V369.088C116.14 369.619 115.6 370.149 115.06 370.149Z" fill="#453232"/>
<path d="M142.465 43.1576L150.295 37.1906L183.235 50.7158L250.195 28.439L256.27 37.4558L186.205 76.9706L142.465 43.1576Z" fill="#453232"/>
<path d="M167.035 148.972L139.9 40.2404L182.965 58.5392L260.86 30.8258L280.84 140.619L209.155 164.884L167.035 148.972Z" fill="white"/>
<path d="M209.155 165.813C209.02 165.813 208.885 165.813 208.75 165.68L166.63 149.768C166.36 149.635 166.09 149.37 165.955 149.105L138.955 40.373C138.82 39.8426 139.09 39.3122 139.63 39.1796C139.9 39.1796 140.035 39.1796 140.305 39.1796L183.1 57.4784L260.455 29.8976C260.995 29.765 261.535 30.0302 261.805 30.5606V30.6932L281.785 140.486C281.92 141.016 281.515 141.414 281.11 141.547L209.425 165.813C209.425 165.945 209.29 165.945 209.155 165.813ZM167.845 148.309L209.155 163.824L279.625 139.956L260.05 32.1518L183.37 59.4674C183.1 59.6 182.83 59.6 182.56 59.4674L141.385 42.0968L167.845 148.309Z" fill="#453232"/>
<path d="M202.945 160.111C202.405 160.111 202 159.713 202 159.315L182.155 58.6718C182.02 58.1414 182.425 57.611 182.965 57.4784C183.505 57.3458 184.045 57.7436 184.18 58.274L204.025 158.917C204.16 159.448 203.755 159.978 203.215 160.111H202.945Z" fill="#453232"/>
<path d="M231.565 184.377C231.565 184.377 223.6 172.177 224.815 168.995C225.76 165.813 226.3 162.498 226.705 159.315L218.335 161.304C218.335 161.304 209.695 139.956 208.75 132.53C207.805 125.104 191.605 132 191.065 137.701C190.525 143.403 190.255 158.254 194.845 166.741C199.435 175.227 212.53 195.78 212.53 195.78" fill="white"/>
<path d="M212.395 196.708C211.99 196.708 211.72 196.576 211.585 196.178C211.45 196.045 198.49 175.492 193.9 167.006C189.31 158.52 189.31 143.934 189.985 137.436C190.525 132.928 198.625 128.287 204.295 128.154C207.4 128.154 209.425 129.613 209.83 132.265C210.64 138.63 217.39 156 219.01 159.978L226.57 158.254C226.84 158.122 227.245 158.254 227.515 158.52C227.785 158.785 227.92 159.05 227.785 159.315C227.515 162.63 226.84 166.078 225.895 169.26C225.355 170.984 228.73 177.879 232.51 183.714C232.78 184.111 232.645 184.774 232.24 185.04C231.835 185.305 231.16 185.172 230.89 184.774C229.54 182.653 222.79 172.045 224.005 168.597C224.815 165.945 225.355 163.293 225.625 160.509L218.605 162.1C218.065 162.232 217.66 161.967 217.39 161.569C216.985 160.641 208.615 139.956 207.805 132.53C207.67 132 207.535 130.143 204.295 130.143C199.435 130.143 192.415 134.386 192.01 137.569C191.335 143.934 191.335 157.989 195.655 166.078C200.245 174.564 213.205 194.852 213.34 195.117C213.61 195.515 213.475 196.178 213.07 196.443C212.8 196.576 212.665 196.708 212.395 196.708Z" fill="#453232"/>
<path d="M479.155 196.178C479.02 196.178 478.885 196.178 478.75 196.178C478.21 195.913 477.94 195.382 478.21 194.852C486.58 174.166 481.45 148.309 465.79 132.132C464.98 131.337 464.17 130.541 463.36 129.613C458.095 124.309 452.02 118.342 452.425 110.518C452.56 108.927 452.83 107.336 453.235 105.745C453.505 104.551 453.775 103.358 453.91 102.165C454.585 94.6064 448.105 88.2416 442.57 84.2636C441.22 83.3354 439.87 82.4072 438.52 81.3464L438.385 81.2138C432.85 77.501 427.18 73.6556 423.67 67.8212C419.62 60.926 418.945 53.1026 418.405 45.5444C417.865 38.9144 417.46 32.1518 414.49 26.1848C404.365 5.3666 378.985 -3.5176 357.79 6.4274C354.955 7.7534 352.39 9.3446 349.96 11.201C344.83 15.0464 340.78 20.0852 338.35 25.9196C335.65 32.417 334.975 39.71 334.705 46.7378C333.895 61.8542 332.545 76.5728 323.905 89.0372C321.205 92.6174 318.37 96.065 315.265 99.38C309.595 105.612 304.195 111.314 302.575 118.872C300.955 126.961 303.925 135.182 310.54 140.221C310.945 140.619 310.945 141.282 310.675 141.679C310.405 142.077 309.73 142.077 309.325 141.812C302.17 136.243 298.795 127.226 300.685 118.474C302.44 110.518 307.975 104.419 313.78 98.054C316.885 94.8716 319.72 91.5566 322.285 87.9764C330.52 75.9098 332.005 61.589 332.68 46.7378C333.085 39.5774 333.625 32.0192 336.46 25.2566C339.16 19.157 343.345 13.853 348.745 9.7424C368.185 -5.1088 396.13 -1.7938 411.25 17.168C413.275 19.6874 414.895 22.3394 416.38 25.2566C419.485 31.4888 420.025 38.5166 420.43 45.2792C420.97 52.5722 421.51 60.1304 425.425 66.6278C428.665 72.0644 434.2 75.7772 439.465 79.3574L439.6 79.49C440.95 80.4182 442.435 81.3464 443.785 82.4072C449.725 86.783 456.745 93.6782 455.935 102.165C455.8 103.491 455.53 104.684 455.26 106.01C454.855 107.469 454.585 108.927 454.45 110.518C454.18 117.546 459.85 123.115 464.845 128.154C465.655 128.95 466.6 129.878 467.41 130.674C483.61 147.381 488.875 174.034 480.235 195.515C479.83 195.913 479.56 196.178 479.155 196.178Z" fill="#453232"/>
<path d="M320.8 134.121L278.68 224.952L237.64 179.868L203.35 195.78C203.35 195.78 278.95 307.827 299.74 297.617C320.53 287.407 350.365 196.974 350.365 196.974L320.8 134.121Z" fill="#F29AA8"/>
<path d="M375.34 108.927C375.34 108.927 329.575 113.833 318.91 135.58C308.245 157.326 310.54 258.102 310.54 258.102L479.29 275.871C479.29 275.871 474.97 192.996 467.005 156.265C459.04 119.535 434.74 95.1368 375.34 108.927Z" fill="#F29AA8"/>
<path d="M361.84 119.933L378.85 209.703L402.34 111.314L361.84 119.933Z" fill="#453232"/>
<path d="M378.85 210.764C378.31 210.764 377.905 210.366 377.905 209.968L360.895 120.066C360.76 119.535 361.165 119.005 361.705 118.872L402.205 110.253C402.61 110.253 402.88 110.253 403.15 110.518C403.42 110.784 403.555 111.049 403.42 111.447L379.93 209.968C379.795 210.499 379.39 210.764 378.85 210.764ZM363.055 120.596L378.985 204.93L400.99 112.64L363.055 120.596Z" fill="#453232"/>
<path d="M361.975 93.6782L361.84 119.933C361.84 119.933 364.54 134.519 380.74 130.143C390.46 127.359 398.425 120.463 402.34 111.314L400.45 65.9648C400.315 64.1084 392.485 56.8154 392.755 40.1078C381.145 39.9752 370.21 35.2016 362.515 26.7152C362.515 26.7152 355.765 36.6602 352.795 39.8426C350.5 42.2294 348.34 44.8814 346.72 47.7986C344.02 52.8374 344.02 59.2022 344.155 64.7714C344.155 71.4014 344.83 78.0314 346.18 84.5288C348.88 96.728 361.975 93.6782 361.975 93.6782Z" fill="white"/>
<path d="M374.935 131.867C372.235 131.867 369.67 131.204 367.51 129.878C364.135 127.624 361.705 124.044 360.76 120.066V119.933L360.895 94.8716C357.385 95.402 353.74 94.739 350.635 93.0152C347.665 91.0262 345.775 87.9764 345.235 84.6614C343.885 78.164 343.21 71.4014 343.21 64.7714C343.075 59.3348 342.94 52.7048 345.775 47.4008C347.53 44.4836 349.555 41.699 351.985 39.3122C354.82 36.2624 361.57 26.3174 361.57 26.3174C361.705 26.0522 362.11 25.9196 362.38 25.9196C362.65 25.9196 363.055 26.0522 363.19 26.3174C370.75 34.5386 381.415 39.1796 392.755 39.3122C393.025 39.3122 393.295 39.4448 393.43 39.5774C393.565 39.71 393.7 39.9752 393.7 40.2404C393.43 48.329 395.59 56.285 399.91 63.1802C400.585 63.9758 400.99 65.0366 401.26 66.0974C401.26 66.3626 403.15 111.447 403.15 111.447C403.15 111.579 403.15 111.712 403.15 111.844C399.1 121.259 391 128.419 380.875 131.204C379.12 131.602 377.095 131.867 374.935 131.867ZM362.785 119.8C363.595 123.248 365.62 126.298 368.59 128.287C371.695 130.143 375.61 130.408 380.47 129.215C389.785 126.563 397.345 119.933 401.26 111.181C399.37 65.9648 399.37 65.9648 399.37 65.9648C399.1 65.3018 398.695 64.6388 398.29 64.1084C393.835 57.2132 391.54 49.2572 391.675 41.1686C380.605 40.7708 370.21 36.2624 362.515 28.439C359.68 32.6822 356.71 36.6602 353.47 40.6382C351.175 42.8924 349.15 45.5444 347.53 48.329C344.83 53.2352 344.965 59.3348 345.1 64.7714C345.1 71.2688 345.775 77.8988 347.125 84.2636C347.53 87.1808 349.285 89.7002 351.715 91.424C356.035 94.076 361.57 92.8826 361.705 92.8826C361.975 92.75 362.38 92.8826 362.515 93.0152C362.785 93.1478 362.92 93.5456 362.92 93.8108L362.785 119.8Z" fill="#453232"/>
<path d="M362.11 106.54C362.11 106.54 372.91 107.071 379.93 99.9104C386.95 92.75 385.87 85.7222 385.87 85.7222C385.87 85.7222 374.125 93.413 361.975 93.6782L362.11 106.54Z" fill="#453232"/>
<path d="M362.65 107.469H362.11C361.57 107.469 361.165 107.071 361.165 106.54L361.03 93.6782C361.03 93.1478 361.435 92.75 361.975 92.6174C373.72 92.3522 385.195 84.9266 385.33 84.794C385.735 84.5288 386.41 84.6614 386.68 85.0592C386.815 85.1918 386.815 85.3244 386.815 85.457C386.815 85.7222 387.895 93.1478 380.605 100.573C374.26 107.071 364.945 107.469 362.65 107.469ZM363.055 94.6064L363.19 105.48C365.89 105.347 373.855 104.684 379.255 99.1148C382.495 95.9324 384.52 91.8218 384.925 87.3134C381.415 89.5676 372.505 94.076 363.055 94.6064Z" fill="#453232"/>
<path d="M364.945 55.2242C364.945 55.2242 356.305 67.8212 358.465 69.9428C360.625 72.0644 366.16 70.7384 366.16 70.7384" fill="white"/>
<path d="M362.38 72.197C360.625 72.3296 359.005 71.7992 357.655 70.6058C356.71 69.545 356.305 66.0974 364.135 54.5612C364.405 54.0308 364.945 53.8982 365.485 54.1634C366.025 54.4286 366.16 54.959 365.89 55.4894L365.755 55.622C361.57 61.8542 358.465 68.0864 359.14 69.1472C360.49 70.6058 364.54 69.9428 365.89 69.545C366.43 69.4124 366.97 69.6776 367.105 70.208C367.24 70.7384 366.97 71.2688 366.43 71.4014C365.08 71.9318 363.73 72.197 362.38 72.197Z" fill="#453232"/>
<path d="M355.9 76.9706C355.9 76.9706 363.595 88.109 377.095 77.3684Z" fill="white"/>
<path d="M365.755 83.0702C365.08 83.0702 364.54 83.0702 363.865 82.9376C360.22 82.4072 357.115 80.4182 354.955 77.501C354.685 77.1032 354.82 76.4402 355.225 76.175C355.63 75.9098 356.305 76.0424 356.575 76.4402C358.465 78.827 361.165 80.4182 364.135 80.9486C367.915 81.479 371.965 80.0204 376.285 76.5728C376.69 76.175 377.365 76.3076 377.635 76.7054C378.04 77.1032 377.905 77.7662 377.5 78.164C373.585 81.479 369.67 83.0702 365.755 83.0702Z" fill="#453232"/>
<path d="M330.385 257.041C329.71 257.041 329.305 256.511 329.305 255.981L335.65 152.022C335.65 151.492 336.19 151.094 336.73 151.094C337.27 151.094 337.675 151.624 337.675 152.155L331.33 256.113C331.33 256.511 330.925 256.909 330.385 257.041Z" fill="#453232"/>
<path d="M346.855 387.918C302.845 387.918 261.4 384.072 260.995 384.072L259.51 383.94L241.825 330.502V330.237C240.745 320.557 239.8 311.275 245.605 304.38C250.735 298.147 260.995 294.567 277.465 292.976L327.01 283.031L328.495 253.329L453.505 266.986L453.91 268.312C458.635 282.235 462.01 296.424 463.9 311.01C467.41 339.519 462.82 359.541 450.4 370.547C437.44 382.083 402.61 387.918 346.855 387.918Z" fill="#453232"/>
<path d="M287.185 335.143C287.185 335.143 279.085 296.689 249.52 305.308C219.955 313.927 285.7 457.135 285.7 466.549C285.7 475.964 260.59 504.34 260.59 504.34C267.745 503.943 274.9 503.28 282.055 502.219C289.885 500.76 311.215 470.262 312.025 466.947C312.835 463.632 297.175 362.724 287.185 335.143Z" fill="white"/>
<path d="M260.59 505.401C260.185 505.401 259.915 505.136 259.645 504.871C259.51 504.473 259.51 504.075 259.78 503.81C268.42 494.13 284.62 473.842 284.62 466.682C284.62 464.56 280.3 453.422 274.9 439.234C259.24 398.26 232.915 329.706 242.905 309.816C244.12 307.297 246.28 305.308 248.98 304.512C256.675 302.258 263.695 302.921 269.77 306.501C283.27 314.325 287.59 333.552 287.995 335.01C297.58 361.663 313.78 463.102 312.835 467.345C312.16 470.395 290.56 501.821 282.055 503.28C275.035 504.34 267.88 505.003 260.59 505.401ZM257.89 305.043C255.19 305.043 252.355 305.44 249.79 306.236C247.63 306.899 245.875 308.49 244.93 310.612C235.21 329.839 262.345 400.515 276.925 438.438C283.405 455.278 286.78 464.163 286.78 466.549C286.78 474.903 268.555 496.782 262.885 503.147C269.23 502.749 275.575 502.086 281.785 501.158C288.94 499.832 310.27 469.732 310.945 466.682C311.35 463.897 296.365 363.387 286.24 335.408C286.24 335.275 281.92 315.651 268.96 308.092C265.585 306.103 261.805 305.043 257.89 305.043Z" fill="#453232"/>
<path d="M272.335 521.446C271.255 521.446 270.175 521.446 269.095 521.446C260.86 521.048 251.005 518.926 247.9 514.02C246.685 512.164 246.55 509.91 247.495 507.921C250.735 500.495 258.7 499.832 258.97 499.832C259.24 499.832 275.17 498.904 282.055 497.445C285.97 496.65 299.47 480.738 310.135 465.754L312.7 462.174L314.05 466.417C317.02 476.494 319.315 486.572 320.935 496.915C324.04 515.611 323.095 516.142 321.61 516.805C320.665 517.203 318.775 517.468 311.62 517.998L309.055 518.131H308.785C306.22 518.131 305.005 515.877 304.465 513.357C302.44 515.214 300.145 516.672 297.58 517.733C292.99 519.589 282.055 521.446 272.335 521.446Z" fill="#453232"/>
<path d="M355.225 467.08C355.225 467.08 342.4 342.568 336.46 319.363C330.52 296.158 296.5 288.865 286.105 316.977C275.71 345.088 327.01 455.544 323.095 467.08C319.18 478.616 304.33 501.423 304.33 501.423C304.33 501.423 320.125 509.114 331.465 501.423C342.805 493.732 355.225 467.08 355.225 467.08Z" fill="white"/>
<path d="M319.45 505.932C314.05 505.799 308.785 504.606 303.925 502.351C303.655 502.219 303.52 501.954 303.385 501.688C303.25 501.423 303.385 501.158 303.52 500.893C303.655 500.628 318.235 478.086 322.15 466.682C323.5 462.571 316.345 441.886 308.65 420.007C295.285 381.685 278.68 334.082 285.16 316.446C289.75 304.114 299.47 297.087 311.35 297.617C323.905 298.413 334.435 307.032 337.405 318.966C343.345 342.038 356.035 465.621 356.17 466.815C356.17 466.947 356.17 467.212 356.035 467.345C355.495 468.406 343.48 494.395 332.005 502.086C328.36 504.738 323.905 506.064 319.45 505.932ZM305.95 501.025C309.595 502.484 321.88 506.86 331.06 500.628C341.455 493.467 353.065 469.599 354.28 466.815C353.605 460.317 341.32 341.905 335.65 319.496C332.815 308.358 323.095 300.402 311.485 299.606C300.55 299.076 291.505 305.573 287.32 317.109C281.11 334.082 298.255 383.277 310.81 419.344C320.395 446.925 325.795 462.704 324.31 467.345C320.665 477.82 308.785 496.517 305.95 501.025Z" fill="#453232"/>
<path d="M305.815 524.363C293.8 524.363 290.425 523.037 288.94 522.109C287.455 521.181 285.43 519.589 285.16 517.335C284.89 514.683 286.645 512.694 288.94 510.44C289.48 509.777 290.155 509.114 290.695 508.451C295.015 503.412 303.25 499.699 303.52 499.567L304.33 499.169L305.275 499.567C307.435 500.23 309.595 500.495 311.89 500.362C317.29 500.23 322.555 499.169 327.55 497.313C341.59 492.274 353.2 466.549 353.2 466.284L356.035 459.919L357.52 466.682C361.165 483.92 362.38 501.556 361.3 519.192L361.165 520.783L359.545 521.181C356.44 521.976 353.2 522.374 349.96 522.772C349.555 522.772 349.285 522.772 348.88 522.639C347.665 522.374 346.315 521.976 346.045 513.888C343.075 517.335 339.16 521.313 336.055 522.241C332.545 523.17 317.695 524.363 305.815 524.363Z" fill="#453232"/>
<path d="M458.5 322.015C459.985 324.27 464.98 371.873 464.98 371.873C464.98 371.873 519.925 376.779 520.735 372.934C521.545 369.088 492.655 359.541 492.655 359.541L483.61 321.75" fill="white"/>
<path d="M509.665 375.453C505.615 375.453 499.945 375.321 492.52 374.923C478.885 374.127 464.98 372.934 464.845 372.934C464.305 372.934 464.035 372.536 463.9 372.006C462.01 353.972 458.635 324.667 457.555 322.546C457.285 322.148 457.42 321.485 457.825 321.22C458.23 320.955 458.905 321.087 459.175 321.485C460.66 323.739 464.44 358.878 465.79 370.945C490.225 373.066 516.415 374.26 519.52 372.669C518.71 370.945 508.315 365.906 492.25 360.602C491.98 360.469 491.71 360.204 491.575 359.939L482.53 322.148C482.395 321.618 482.8 321.087 483.34 320.955C483.88 320.822 484.42 321.22 484.555 321.75L493.465 359.011C504.535 362.724 522.49 369.354 521.68 373.332C521.545 374.127 521.275 375.453 509.665 375.453Z" fill="#453232"/>
<path d="M465.52 153.613L503.05 333.021L451.345 334.347C451.345 334.347 433.39 239.273 432.31 224.952C431.23 210.631 465.52 153.613 465.52 153.613Z" fill="#F29AA8"/>
<path d="M350.905 64.241C357.317 64.241 362.515 59.1354 362.515 52.8374C362.515 46.5394 357.317 41.4338 350.905 41.4338C344.493 41.4338 339.295 46.5394 339.295 52.8374C339.295 59.1354 344.493 64.241 350.905 64.241Z" fill="white"/>
<path d="M350.905 65.3018H350.365C343.345 65.0366 337.945 59.2022 338.215 52.307C338.35 45.4118 344.155 39.9752 351.04 39.9752C358.06 40.1078 363.595 45.8096 363.595 52.5722C363.595 52.8374 363.595 52.97 363.595 53.2352C363.325 59.9978 357.655 65.3018 350.905 65.3018ZM350.905 42.362C344.965 42.362 340.24 47.003 340.24 52.8374C340.24 58.6718 344.965 63.3128 350.905 63.3128C356.575 63.3128 361.3 58.8044 361.57 53.2352C361.84 47.4008 357.25 42.6272 351.31 42.362H350.905Z" fill="#453232"/>
<path d="M376.555 43.2902C370.615 43.2902 365.89 47.9312 365.89 53.7656C365.89 59.6 370.615 64.241 376.555 64.241C382.225 64.241 386.95 59.7326 387.22 54.1634C387.49 48.329 382.9 43.5554 376.96 43.2902H376.555Z" fill="white"/>
<path d="M376.69 65.3018H376.15C369.4 65.1692 364 59.7326 364.135 52.97C364.27 46.34 369.805 41.036 376.69 41.1686C383.44 41.3012 388.84 46.7378 388.705 53.5004C388.57 59.9978 383.17 65.1692 376.69 65.3018ZM376.69 44.351C371.29 44.4836 366.97 48.8594 367.105 54.1634C367.24 59.4674 371.695 63.7106 377.095 63.578C382.495 63.4454 386.815 59.0696 386.68 53.7656C386.545 48.5942 382.36 44.4836 377.095 44.351H376.69Z" fill="#453232"/>
<path d="M293.53 243.251C293.26 243.251 292.99 243.118 292.72 242.853L242.905 186.366C242.5 185.968 242.635 185.305 243.04 184.907C243.445 184.509 244.12 184.642 244.525 185.04L294.475 241.527C294.88 241.925 294.745 242.588 294.34 242.853C294.07 243.251 293.8 243.251 293.53 243.251Z" fill="#453232"/>
<path d="M201.865 75.9098L249.115 58.1414L253.435 79.49L205.78 94.4738L201.865 75.9098Z" fill="#453232"/>
<path d="M351.857 51.6744C351.915 50.2109 351.298 48.9989 350.479 48.9672C349.659 48.9356 348.948 50.0964 348.889 51.5598C348.831 53.0233 349.447 54.2354 350.267 54.267C351.086 54.2986 351.798 53.1379 351.857 51.6744Z" fill="#453232"/>
<path d="M378.273 53.0908C378.332 51.6273 377.715 50.4153 376.895 50.3836C376.076 50.352 375.364 51.5128 375.305 52.9763C375.247 54.4397 375.864 55.6518 376.683 55.6834C377.503 55.715 378.215 54.5543 378.273 53.0908Z" fill="#453232"/>
<path d="M388.165 54.4286C390.595 54.296 411.79 52.97 412.465 61.9868Z" fill="#453232"/>
<path d="M412.6 63.0476C412.06 63.0476 411.655 62.6498 411.52 62.1194C410.845 53.8982 389.11 55.3568 388.3 55.3568C387.76 55.4894 387.22 55.0916 387.085 54.5612C386.95 54.0308 387.355 53.5004 387.895 53.3678H388.03C392.08 53.1026 412.6 52.0418 413.545 61.8542C413.68 62.5172 413.275 62.915 412.6 63.0476Z" fill="#453232"/>
<path d="M391 63.578C391.405 61.589 392.485 59.8652 393.97 58.5392C395.455 57.3458 397.075 56.5502 398.83 55.8872C399.775 55.4894 400.72 55.2242 401.8 55.2242C402.475 55.3568 403.285 55.4894 403.825 55.8872C405.445 56.5502 406.66 57.7436 407.335 59.3348C407.74 60.6608 407.875 61.9868 407.605 63.3128C407.47 64.7714 407.2 66.23 406.66 67.556C404.5 73.2578 397.885 76.175 392.08 73.9208C392.08 73.9208 391.945 73.9208 391.945 73.7882" fill="white"/>
<path d="M396.265 75.7772C394.645 75.7772 393.16 75.512 391.675 74.849C391.135 74.7164 390.865 74.0534 391 73.523C391.135 72.9926 391.81 72.7274 392.35 72.86C392.35 72.86 392.35 72.86 392.485 72.86C397.75 74.9816 403.69 72.4622 405.85 67.2908V67.1582C406.39 65.8322 406.66 64.5062 406.795 63.1802C406.93 61.9868 406.93 60.7934 406.525 59.6C405.85 58.274 404.77 57.2132 403.42 56.6828C402.88 56.4176 402.34 56.1524 401.8 56.1524C400.855 56.1524 400.045 56.4176 399.235 56.6828C397.615 57.2132 395.995 58.1414 394.645 59.2022C393.295 60.3956 392.35 61.9868 391.945 63.7106C391.81 64.241 391.27 64.6388 390.73 64.5062C390.19 64.3736 389.785 63.8432 389.92 63.3128C390.325 61.1912 391.54 59.2022 393.295 57.7436C394.915 56.5502 396.67 55.622 398.56 54.959C399.64 54.4286 400.855 54.1634 401.935 54.296C402.745 54.4286 403.555 54.6938 404.365 55.0916C406.12 55.8872 407.605 57.3458 408.415 59.0696C408.955 60.5282 409.09 61.9868 408.82 63.578C408.685 65.1692 408.415 66.6278 407.74 68.0864C406.525 71.1362 404.23 73.523 401.125 74.849C399.64 75.512 398.02 75.9098 396.265 75.7772Z" fill="#453232"/>
<path d="M450.535 331.032C449.995 331.032 449.59 330.634 449.59 330.237L419.08 147.646C418.945 147.116 419.35 146.586 419.89 146.453C420.43 146.32 420.97 146.718 421.105 147.249L451.48 329.839C451.615 330.369 451.21 330.9 450.67 331.032H450.535Z" fill="#453232"/>
<path d="M359.14 286.213C359.005 286.213 358.87 286.213 358.735 286.081C346.72 280.777 329.98 284.622 329.17 284.887C328.63 285.02 328.09 284.622 327.955 284.092C327.82 283.561 328.225 283.031 328.765 282.898C329.44 282.766 346.855 278.655 359.545 284.224C360.085 284.49 360.22 285.02 360.085 285.55C359.815 285.948 359.545 286.213 359.14 286.213Z" fill="white"/>
<path d="M423.4 251.605C423.265 251.605 422.995 251.605 422.86 251.472L397.615 237.019C397.075 236.754 396.94 236.091 397.21 235.693C397.48 235.162 398.155 235.03 398.56 235.295L423.805 249.748C424.345 250.014 424.48 250.677 424.21 251.074C424.075 251.472 423.805 251.605 423.4 251.605Z" fill="#453232"/>
<path d="M341.32 242.986C340.78 242.986 340.24 242.588 340.24 242.058C340.24 241.792 340.375 241.395 340.645 241.262L355.765 229.328C356.17 228.93 356.845 229.063 357.25 229.461C357.655 229.858 357.52 230.521 357.115 230.919L341.995 242.853C341.86 242.853 341.59 242.986 341.32 242.986Z" fill="#453232"/>
<path d="M156.64 445.864C161.5 441.621 166.9 438.173 172.705 435.521C173.245 452.361 166.225 468.008 159.745 478.616H138.82" fill="white"/>
<path d="M159.745 479.544H138.82C138.28 479.544 137.74 479.146 137.74 478.483C137.74 477.82 138.145 477.423 138.82 477.423H159.205C165.01 467.61 171.76 452.892 171.76 436.847C166.495 439.366 161.635 442.549 157.315 446.394C156.91 446.792 156.235 446.659 155.83 446.262C155.425 445.864 155.56 445.201 155.965 444.803C160.825 440.56 166.36 436.98 172.3 434.328C172.84 434.195 173.38 434.328 173.65 434.858C173.65 434.991 173.65 435.123 173.65 435.123C174.19 452.494 166.765 468.406 160.555 478.749C160.42 479.412 160.15 479.544 159.745 479.544Z" fill="#453232"/>
<path d="M126.67 450.372C131.8 423.985 152.86 407.41 152.86 407.41C156.775 419.874 158.125 432.869 156.64 445.864C155.56 457.002 153.13 468.008 149.35 478.616H126.805" fill="white"/>
<path d="M149.35 479.544H126.805C126.265 479.544 125.725 479.146 125.725 478.483C125.725 477.82 126.13 477.423 126.805 477.423H148.675C152.185 467.08 154.615 456.472 155.695 445.599C157.045 433.267 155.83 420.802 152.32 409.001C147.865 412.846 131.935 428.228 127.615 450.505C127.615 451.035 127.075 451.433 126.535 451.433C125.995 451.433 125.59 450.903 125.59 450.372V450.24C130.72 423.72 151.915 406.747 152.185 406.614C152.455 406.349 152.725 406.349 153.13 406.482C153.4 406.614 153.67 406.879 153.805 407.145C157.72 419.742 159.07 432.869 157.72 445.996C156.64 457.267 154.21 468.273 150.43 479.014C150.16 479.279 149.755 479.544 149.35 479.544Z" fill="#453232"/>
<path d="M115.465 478.616H135.445C135.58 472.782 134.23 464.03 127.885 452.626L126.535 450.372C114.925 431.145 104.395 431.41 104.395 431.41C99.94 451.566 109.39 469.599 115.465 478.616Z" fill="white"/>
<path d="M135.445 479.544H115.465C115.195 479.544 114.79 479.412 114.655 479.146C108.58 469.997 98.86 451.831 103.45 431.145C103.585 430.747 103.99 430.35 104.395 430.35C104.8 430.35 115.735 430.35 127.48 449.842C127.885 450.505 128.29 451.3 128.695 452.096C135.445 464.03 136.525 473.047 136.39 478.616C136.39 479.146 135.985 479.544 135.445 479.544ZM116.005 477.555H134.5C134.5 472.251 133.15 463.897 127.075 453.024L125.86 450.903C116.545 435.521 108.04 432.869 105.34 432.471C101.425 451.698 110.2 468.804 116.005 477.555Z" fill="#453232"/>
<path d="M119.11 509.777H158.26L164.605 478.616H112.765L119.11 509.777Z" fill="#453232"/>
<path d="M158.26 510.705H119.11C118.57 510.705 118.165 510.307 118.165 509.91L111.82 478.749C111.82 478.483 111.82 478.218 112.09 477.953C112.225 477.688 112.63 477.555 112.9 477.555H164.74C165.01 477.555 165.28 477.688 165.55 477.953C165.685 478.218 165.82 478.483 165.685 478.749L159.34 509.91C159.205 510.307 158.8 510.705 158.26 510.705ZM119.92 508.716H157.45L163.39 479.544H114.115L119.92 508.716Z" fill="#453232"/>
</svg>
