<svg width="1280" height="1280" viewBox="0 0 1280 1280" fill="none" xmlns="http://www.w3.org/2000/svg">
<g clip-path="url(#clip0_164_34)">
<path d="M612.8 -0.207194C613.792 -0.211402 613.792 -0.211402 614.808 -0.215674C616.984 -0.222674 619.16 -0.218066 621.336 -0.21265C622.856 -0.21373 624.376 -0.215282 625.896 -0.21729C629.08 -0.219642 632.264 -0.216234 635.416 -0.20873C639.488 -0.19961 643.576 -0.204866 647.656 -0.214442C650.792 -0.220234 653.936 -0.218378 657.096 -0.214238C658.6 -0.213174 660.096 -0.214469 661.6 -0.218206C663.704 -0.222286 665.8 -0.216046 667.896 -0.207166C668.51 -0.210406 669.128 -0.213646 669.76 -0.217006C673.552 -0.187406 676.712 0.450194 680.4 1.59899C682.344 1.76779 684.296 1.88219 686.248 1.94939C691.176 2.17899 696.008 2.73099 700.808 3.54939C701.696 3.69659 701.696 3.69659 702.592 3.84619C706.192 4.47659 709.64 5.37419 713.152 6.39819C715.976 7.02139 718.8 7.59819 721.632 8.17419C724.216 8.76779 726.648 9.55019 729.152 10.3982C731.496 10.9942 733.84 11.5422 736.192 12.0942C738.656 12.7718 741.008 13.6142 743.392 14.5342C745.28 15.2478 747.176 15.9182 749.08 16.5742C749.756 16.8086 750.432 17.0422 751.128 17.2838C752.512 17.7622 753.896 18.2358 755.288 18.7158C759.184 20.0678 762.976 21.5398 766.728 23.2038C767.648 23.5334 768.576 23.8638 769.528 24.2038C799.208 35.1638 827.208 53.6438 851.128 73.6438C851.81 74.187 852.488 74.7318 853.192 75.2918C858.216 79.3238 862.952 83.6118 867.672 88.0118C869.464 89.6918 871.28 91.3478 873.112 92.9878C873.558 93.3894 874.008 93.7878 874.464 94.2038C875.32 94.9702 876.176 95.7318 877.032 96.4918C878.024 97.3878 878.976 98.3238 879.92 99.2758V100.876C880.687 101.197 880.687 101.197 881.472 101.525C883.12 102.477 883.12 102.477 883.92 104.877C884.37 105.085 884.824 105.292 885.288 105.505C888.024 106.953 889.728 109.281 891.672 111.625C892.307 112.381 892.307 112.381 892.952 113.153C894.216 114.657 895.464 116.169 896.72 117.673C897.68 118.825 897.68 118.825 898.664 120.001C902.568 124.721 906.32 129.521 910.024 134.401C911.32 136.073 912.624 137.689 914 139.297C915.68 141.353 917 143.337 918.312 145.641C919.176 147.009 920.04 148.377 920.912 149.737C921.398 150.501 921.888 151.265 922.384 152.049C923.4 153.633 924.416 155.217 925.432 156.793C931.904 166.873 931.904 166.873 931.904 169.673H933.504C940.104 181.993 940.104 181.993 942.944 187.673C943.57 188.937 944.2 190.193 944.84 191.449C947.4 196.465 949.664 201.529 951.824 206.729C952.342 207.977 952.342 207.977 952.872 209.249C958.392 222.689 963.192 236.449 966.552 250.609C967.097 252.841 967.097 252.841 967.912 255.097C968.848 258.017 969.4 260.953 969.92 263.977C970.453 267.049 970.992 270.025 971.92 273.017C973.056 277.273 973.48 281.577 973.976 285.897C974.174 287.633 974.375 289.377 974.579 291.113C974.709 292.257 974.709 292.257 974.84 293.433C974.946 295.169 974.946 295.169 975.928 296.001C976.103 298.057 976.231 300.089 976.328 302.145C976.36 302.762 976.393 303.377 976.426 304.017C976.53 305.993 976.63 307.977 976.728 309.953C976.858 312.553 976.991 315.153 977.128 317.753C977.156 318.355 977.185 318.953 977.214 319.577C977.329 322.697 977.329 322.697 978.326 325.609C978.401 327.249 978.423 328.897 978.422 330.537C978.423 331.593 978.424 332.641 978.425 333.729C978.422 334.905 978.419 336.073 978.416 337.249C978.416 338.481 978.416 339.705 978.417 340.937C978.417 344.281 978.412 347.625 978.406 350.937C978.401 354.433 978.401 357.921 978.4 361.417C978.398 368.033 978.391 374.617 978.383 381.257C978.374 388.793 978.37 396.297 978.366 403.897C978.357 419.417 978.343 434.937 978.325 450.377C978.765 450.376 979.205 450.374 979.653 450.372C984.301 450.354 988.933 450.342 993.573 450.333C995.301 450.329 997.021 450.324 998.749 450.317C1007.23 450.283 1015.79 450.278 1024.27 450.731C1024.87 450.762 1025.48 450.793 1026.1 450.825C1030.19 451.075 1030.19 451.075 1031.09 451.977C1032.5 452.229 1033.92 452.475 1035.34 452.696C1056.06 455.944 1075.82 465.336 1091.1 479.976V481.576L1092.45 482.127C1101.33 487.191 1108.69 499.327 1113.49 507.967C1113.76 508.443 1114.02 508.919 1114.29 509.415C1120.89 521.495 1125.49 534.135 1127.49 547.815C1127.75 550.287 1127.75 550.287 1128.7 551.983C1128.78 553.383 1128.8 554.791 1128.8 556.191C1128.8 557.543 1128.8 557.543 1128.81 558.919C1128.81 559.919 1128.8 560.919 1128.8 561.951C1128.8 563.023 1128.8 564.087 1128.81 565.159C1128.81 568.119 1128.81 571.079 1128.8 574.039C1128.8 577.247 1128.8 580.463 1128.81 583.639C1128.81 589.271 1128.81 594.919 1128.81 600.519C1128.8 608.919 1128.81 617.239 1128.81 625.639C1128.81 640.599 1128.81 655.559 1128.81 670.519C1128.81 683.639 1128.81 696.679 1128.81 709.799C1128.81 710.663 1128.81 711.535 1128.81 712.423C1128.81 715.943 1128.81 719.463 1128.81 722.983C1128.81 756.023 1128.81 789.063 1128.81 822.183C1128.8 851.543 1128.8 880.983 1128.81 910.183C1128.81 943.143 1128.81 976.183 1128.81 1009.38C1128.81 1012.89 1128.81 1016.41 1128.81 1019.94C1128.81 1020.81 1128.81 1021.67 1128.81 1022.57C1128.81 1035.69 1128.81 1048.73 1128.81 1061.85C1128.81 1076.73 1128.81 1091.61 1128.81 1106.49C1128.81 1114.81 1128.81 1123.13 1128.81 1131.53C1128.81 1137.09 1128.81 1142.65 1128.81 1148.17C1128.8 1151.34 1128.8 1154.51 1128.81 1157.69C1128.81 1160.57 1128.81 1163.45 1128.8 1166.33C1128.8 1167.86 1128.8 1169.4 1128.81 1170.93C1128.81 1171.83 1128.8 1172.73 1128.8 1173.65C1128.8 1174.82 1128.8 1174.82 1128.8 1176.02C1128.7 1177.77 1128.7 1177.77 1127.9 1178.57C1127.66 1180.24 1127.43 1181.92 1127.22 1183.59C1125.43 1197.51 1120.91 1209.43 1114.26 1221.75C1113.8 1222.63 1113.34 1223.51 1112.87 1224.42C1109.68 1230.45 1109.68 1230.45 1107.06 1232.98C1106.24 1234.02 1105.45 1235.07 1104.66 1236.13C1098.9 1243.57 1092.58 1250.93 1084.66 1256.21H1083.06C1082.79 1257.01 1082.53 1257.8 1082.26 1258.61C1080.77 1259.81 1080.77 1259.81 1078.91 1261.01C1078.3 1261.41 1077.7 1261.81 1077.07 1262.21C1074.85 1263.53 1072.59 1264.69 1070.26 1265.81L1067.55 1267.13C1057.63 1271.89 1047.39 1275.37 1036.91 1278.57C1035.23 1279.09 1033.55 1279.63 1031.87 1280.19C1030.11 1280.27 1028.34 1280.29 1026.58 1280.29C1025.76 1280.3 1025.76 1280.3 1024.93 1280.3C1023.09 1280.3 1021.24 1280.3 1019.4 1280.3C1018.07 1280.3 1016.74 1280.3 1015.4 1280.3C1011.71 1280.31 1008.02 1280.31 1004.36 1280.3C1000.35 1280.3 996.363 1280.31 992.363 1280.31C984.411 1280.32 976.443 1280.32 968.523 1280.32C959.003 1280.32 949.483 1280.32 939.963 1280.33C917.483 1280.34 895.003 1280.35 872.523 1280.35C861.083 1280.35 849.643 1280.36 838.203 1280.36C801.563 1280.37 764.843 1280.38 728.603 1280.38C726.851 1280.38 725.099 1280.38 723.347 1280.38C719.835 1280.38 716.315 1280.38 712.787 1280.38C708.675 1280.38 704.547 1280.38 700.467 1280.38C699.291 1280.38 698.107 1280.38 696.931 1280.38C659.091 1280.39 621.251 1280.4 583.331 1280.42C556.131 1280.43 528.931 1280.44 501.731 1280.45C501.172 1280.45 500.611 1280.45 500.035 1280.45C487.795 1280.45 475.475 1280.45 463.235 1280.45C458.843 1280.45 454.435 1280.45 450.035 1280.45C448.939 1280.45 447.851 1280.45 446.755 1280.45C429.315 1280.45 411.955 1280.46 394.515 1280.47C376.515 1280.48 358.435 1280.49 340.435 1280.48C330.035 1280.48 319.635 1280.48 309.235 1280.49C302.299 1280.5 295.395 1280.5 288.435 1280.49C284.483 1280.49 280.523 1280.48 276.595 1280.49C272.995 1280.5 269.395 1280.5 265.795 1280.49C264.499 1280.49 263.211 1280.49 261.915 1280.5C254.859 1280.53 248.475 1280.14 241.755 1277.79C240.963 1277.53 240.171 1277.27 239.355 1276.99C238.563 1276.73 237.771 1276.47 236.955 1276.19C234.819 1275.62 232.683 1275.05 230.539 1274.5C225.211 1272.92 220.299 1270.78 215.339 1268.24L213.739 1267.43C212.683 1266.9 211.619 1266.36 210.563 1265.82C207.891 1264.47 205.219 1263.13 202.563 1261.79V1260.19L200.811 1259.58C198.379 1258.51 196.659 1257.23 194.611 1255.54C193.921 1254.98 193.235 1254.41 192.523 1253.82L190.563 1252.19L188.979 1250.94C187.875 1250.06 186.811 1249.13 185.763 1248.19V1246.59C184.971 1246.33 184.179 1246.06 183.363 1245.79C174.723 1237.79 167.523 1227.87 162.083 1217.39C161.035 1215.36 161.035 1215.36 159.811 1213.52C158.211 1210.67 157.219 1207.75 156.195 1204.64C155.986 1204.01 155.776 1203.38 155.561 1202.74C153.897 1197.59 152.761 1192.42 151.825 1187.14C151.618 1185.02 151.618 1185.02 150.593 1184.14C149.521 1178.82 149.681 1173.5 149.689 1168.06C149.688 1166.98 149.686 1165.91 149.684 1164.84C149.678 1161.89 149.678 1158.94 149.679 1155.96C149.679 1152.75 149.674 1149.54 149.67 1146.36C149.663 1139.98 149.659 1133.64 149.658 1127.24C149.655 1119.61 149.648 1111.96 149.641 1104.36C149.625 1085.88 149.616 1067.48 149.609 1049C149.606 1040.28 149.602 1031.56 149.597 1022.84C149.583 992.92 149.571 963.08 149.565 933.24C149.565 931.368 149.564 929.488 149.564 927.616C149.564 926.688 149.564 925.752 149.563 924.8C149.562 920.088 149.562 915.36 149.561 910.64C149.56 909.704 149.56 908.768 149.56 907.808C149.554 877.488 149.535 847.168 149.509 816.608C149.482 784.528 149.466 752.448 149.463 720.608C149.463 717.088 149.462 713.568 149.462 710.048C149.462 709.184 149.462 708.312 149.462 707.424C149.46 693.504 149.447 679.504 149.431 665.584C149.415 651.584 149.41 637.584 149.418 623.504C149.422 615.184 149.417 606.864 149.4 598.544C149.389 592.976 149.39 587.424 149.4 581.824C149.406 578.656 149.406 575.488 149.393 572.304C149.324 555.584 150.729 541.184 156.649 525.424C156.957 524.568 157.266 523.712 157.585 522.832C158.993 518.992 160.441 515.56 162.601 512.112L163.801 509.616C164.873 507.552 165.761 506.48 167.401 504.912C168.345 503.232 168.345 503.232 169.001 501.712H170.601C170.749 501.052 170.897 500.392 171.05 499.712C172.602 495.936 175.01 493.44 177.802 490.512C178.445 489.836 179.09 489.16 179.754 488.464C182.002 486.328 184.322 484.304 186.666 482.272C187.938 481.144 189.154 479.96 190.354 478.76C192.21 476.904 194.082 475.256 196.202 473.712H197.802V472.112C198.946 471.248 198.946 471.248 200.554 470.312C203.018 468.84 205.394 467.304 207.754 465.664C214.522 461.152 222.154 458.752 229.834 456.144C230.579 455.879 231.322 455.612 232.09 455.336C234.61 454.55 236.986 454.088 239.594 453.712C240.506 453.576 241.426 453.441 242.37 453.301C243.314 453.165 244.258 453.03 245.234 452.89C247.122 452.616 249.01 452.34 250.898 452.058C251.73 451.938 252.562 451.819 253.418 451.696C255.418 451.436 255.418 451.436 257.034 450.536C258.418 450.463 259.802 450.441 261.178 450.444C262.042 450.444 262.906 450.445 263.802 450.445C265.21 450.451 265.21 450.451 266.642 450.457C267.602 450.458 268.554 450.459 269.538 450.461C272.602 450.465 275.666 450.475 278.738 450.485C280.81 450.489 282.882 450.493 284.962 450.496C290.058 450.505 295.122 450.518 300.242 450.535C300.241 449.97 300.239 449.407 300.238 448.823C300.202 434.903 300.176 420.983 300.159 407.063C300.151 400.335 300.14 393.623 300.121 386.903C299.964 328.503 299.964 328.503 301.841 304.503C301.943 303.127 301.943 303.127 302.046 301.719C302.349 297.807 302.726 294.239 303.806 290.439C304.572 287.007 304.894 283.495 305.278 280.039C305.756 275.823 305.756 275.823 306.638 274.943C306.787 273.407 306.787 273.407 306.938 271.839C307.305 268.167 308.154 264.775 309.186 261.199C309.674 259.479 310.122 257.751 310.546 256.023C311.626 251.663 312.882 247.383 314.138 243.063L314.845 240.599C316.429 235.151 318.237 229.799 320.237 224.519C320.637 223.439 321.037 222.351 321.437 221.271C322.589 218.215 323.797 215.191 325.021 212.151C325.545 210.847 326.061 209.527 326.557 208.215C328.637 202.783 331.213 197.655 333.853 192.455C334.669 190.839 335.477 189.223 336.277 187.599C339.069 181.959 341.909 176.399 344.997 170.879C345.949 169.191 346.893 167.511 347.837 165.823C349.285 163.239 350.741 160.663 352.197 158.079H353.797C354.093 157.015 354.093 157.015 354.397 155.927C355.453 153.135 356.733 151.575 358.597 149.279C360.053 147.039 361.453 144.775 362.853 142.495C364.005 140.775 365.117 139.495 366.597 138.079L367.397 136.479C368.261 134.751 369.229 133.839 370.597 132.479C371.38 131.479 372.149 130.455 372.901 129.431C376.277 124.879 379.957 120.631 383.701 116.391C384.709 115.223 385.661 114.015 386.597 112.791C387.957 111.175 389.229 109.975 390.845 108.639C392.965 106.879 394.765 105.047 396.541 102.943C398.893 100.167 401.437 97.8712 404.213 95.5272C405.853 94.0472 407.261 92.4792 408.693 90.7992C410.989 88.1032 413.413 85.9112 416.197 83.6952C417.181 82.8312 418.165 81.9672 419.149 81.0952C424.877 76.0712 430.669 71.1752 437.069 67.0952C438.557 66.0712 439.701 64.9432 440.973 63.6632C441.957 62.9536 442.957 62.2712 443.973 61.6152C446.333 60.0712 448.693 58.5192 451.029 56.9432C456.653 53.1592 462.309 49.4632 468.149 46.0632C469.021 45.5536 469.893 45.0472 470.789 44.5192C476.053 41.4552 481.349 38.5752 486.869 35.9592C488.965 34.8952 490.949 33.7112 492.965 32.5032C494.277 31.9264 495.589 31.3512 496.909 30.8072C498.861 29.9832 500.789 29.0952 502.709 28.2072C514.149 23.0072 525.829 18.3672 537.829 14.7672C539.885 14.148 541.917 13.4712 543.941 12.7672C546.845 11.7832 549.749 11.0872 552.741 10.4872C554.621 10.0752 554.621 10.0752 556.757 9.2952C559.661 8.3592 562.589 7.7672 565.557 7.2152C569.125 6.8304 569.125 6.8304 572.109 5.2632C575.725 4.588 579.373 4.1272 582.989 3.6152C584.005 3.4664 585.021 3.3168 586.077 3.164C587.069 3.0232 588.053 2.8824 589.077 2.7376C590.437 2.544 590.437 2.544 591.813 2.3464C594.493 2.0656 594.493 2.0656 597.277 2.1232C600.085 2.19496 600.085 2.19496 602.637 1.2752C606.061 0.371197 609.037 0.243197 612.557 0.259197L612.8 -0.207194ZM601.36 77.1528C599.304 77.6088 597.248 77.9384 595.168 78.2488C585.168 79.7528 575.728 81.8728 566.048 85.0008C563.432 85.8328 560.784 86.5368 558.136 87.2568C554.464 88.2968 551.048 89.5208 547.576 91.1608C545.696 92.0408 543.792 92.8008 541.864 93.5608C522.104 101.433 502.904 112.041 485.864 124.761C484.384 125.825 482.896 126.897 481.416 127.961C475.96 131.937 470.616 135.961 465.896 140.761C464.84 141.689 463.768 142.601 462.696 143.513C460.888 145.073 459.392 146.497 457.896 148.361C456.4 150.233 454.912 151.617 453.096 153.161C450.64 155.257 448.656 157.385 446.696 159.961C445.368 161.297 444.032 162.633 442.696 163.961C441.288 165.433 439.888 166.913 438.496 168.409C437.799 169.152 437.104 169.897 436.384 170.665C434.616 172.561 434.616 172.561 434.256 174.537C434.136 175.008 434.017 175.481 433.894 175.969C432.83 176.505 431.758 177.041 430.694 177.569C429.366 179.401 429.366 179.401 428.246 181.521C426.846 184.049 425.534 185.945 423.494 187.969C422.678 189.249 421.902 190.553 421.142 191.873C419.438 194.785 417.614 197.353 415.494 199.953C413.966 202.497 412.55 205.081 411.134 207.697C407.718 214.017 407.718 214.017 405.79 216.817C404.11 219.457 403.054 222.089 401.942 224.977C401.062 227.209 400.094 229.369 399.086 231.545C394.15 242.265 390.286 253.465 386.686 264.745C386.278 265.993 386.278 265.993 385.862 267.273C382.534 278.153 380.166 289.673 379.022 300.953C378.687 303.969 378.687 303.969 377.886 304.769C375.782 319.969 376.07 335.409 376.126 350.689C376.136 354.201 376.137 357.721 376.138 361.249C376.143 367.873 376.156 374.529 376.173 381.089C376.194 390.049 376.203 399.009 376.212 408.049C376.227 422.129 376.259 436.209 376.288 450.369H449.888C449.936 440.449 449.985 430.529 450.035 420.289C450.067 414.025 450.1 407.729 450.133 401.489C450.187 391.569 450.239 381.569 450.286 371.649C450.32 364.401 450.357 357.169 450.398 349.889C450.419 346.049 450.439 342.209 450.456 338.369C450.472 334.761 450.491 331.145 450.513 327.569C450.521 326.241 450.527 324.913 450.531 323.585C450.538 321.777 450.549 319.969 450.562 318.161C450.567 317.145 450.572 316.137 450.578 315.089C450.689 312.745 450.689 312.745 451.49 311.145C451.706 309.401 451.881 307.657 452.037 305.905C452.136 304.841 452.236 303.769 452.335 302.705C452.488 301.025 452.639 299.345 452.788 297.673C452.933 296.049 453.085 294.433 453.237 292.809C453.324 291.841 453.411 290.865 453.501 289.873C453.884 287.193 454.565 284.889 455.493 282.353C456.006 280.473 456.501 278.593 456.997 276.705C459.157 268.465 461.357 260.385 465.077 252.785C465.508 251.905 465.941 251.017 466.381 250.105C468.997 244.785 471.733 239.545 474.701 234.345C475.215 233.425 475.725 232.505 476.261 231.561C476.825 230.553 477.389 229.553 477.957 228.545C478.351 227.835 478.351 227.835 478.754 227.113C480.386 224.233 482.178 221.681 484.306 219.145C484.784 218.534 485.266 217.921 485.754 217.297C488.602 213.801 491.514 210.337 494.714 207.137C495.522 206.241 496.322 205.345 497.114 204.433C497.732 203.73 497.732 203.73 498.362 203.017C499.57 201.561 499.57 201.561 500.362 199.809C501.338 197.905 502.434 197.649 504.314 196.737C504.578 195.945 504.842 195.153 505.114 194.337C506.17 193.788 507.242 193.257 508.314 192.737C510.026 191.489 511.538 190.169 513.114 188.737V187.137C513.691 186.933 514.266 186.729 514.866 186.518C517.258 185.478 519.042 184.222 521.114 182.638C526.002 179.014 531.114 175.854 536.314 172.718C537.13 172.222 537.954 171.726 538.802 171.214C543.97 168.126 549.202 165.454 554.722 163.134C555.666 162.738 556.602 162.342 557.578 161.934C566.458 158.27 575.418 155.366 584.778 153.374C586.402 153.006 588.01 152.603 589.61 152.134C598.57 149.622 607.53 150.046 616.73 150.102C618.554 150.105 620.37 150.106 622.194 150.107C625.994 150.111 629.786 150.122 633.554 150.14C638.418 150.163 643.314 150.171 648.114 150.175C651.866 150.178 655.618 150.186 659.394 150.196C661.186 150.2 662.978 150.204 664.778 150.207C667.282 150.213 669.778 150.223 672.282 150.236C673.386 150.237 673.386 150.237 674.514 150.239C679.25 150.27 683.634 150.768 688.194 151.967C689.418 152.232 690.65 152.494 691.882 152.751C720.442 158.871 745.162 171.391 767.642 190.031C768.858 191.031 770.098 192.007 771.346 192.975C773.018 194.359 773.018 194.359 773.818 195.959H775.418V197.559C776.714 198.639 778.018 199.719 779.322 200.791C782.682 203.887 785.394 207.575 788.202 211.191C789.01 212.175 789.01 212.175 789.834 213.175C801.754 227.735 811.434 244.215 817.194 262.135C817.607 263.367 818.05 264.583 818.53 265.791C823.098 277.391 825.314 289.631 826.322 301.951C826.295 304.615 826.295 304.615 827.41 305.567C827.511 307.743 827.559 309.895 827.574 312.071C827.582 312.759 827.59 313.447 827.598 314.159C827.623 316.471 827.643 318.783 827.663 321.103C827.679 322.743 827.696 324.383 827.713 326.023C827.758 330.455 827.797 334.903 827.835 339.303C827.86 342.047 827.885 344.799 827.912 347.543C828.097 366.983 828.241 386.343 828.232 405.783C828.232 406.528 828.231 407.271 828.231 408.039C828.227 415.071 828.215 422.119 828.188 429.159C828.179 431.695 828.172 434.231 828.166 436.759C828.16 438.479 828.15 440.207 828.14 441.927C828.137 442.935 828.135 443.943 828.132 444.983C828.128 445.863 828.124 446.735 828.119 447.639C827.989 449.551 827.989 449.551 829.007 450.391C831.271 450.467 833.519 450.492 835.783 450.482C836.494 450.482 837.207 450.482 837.935 450.482C840.295 450.482 842.655 450.476 845.015 450.469C846.647 450.468 848.279 450.467 849.911 450.466C854.215 450.463 858.551 450.455 862.791 450.446C867.175 450.438 871.591 450.434 875.911 450.43C884.551 450.422 893.111 450.408 901.751 450.391C902.364 430.711 902.687 411.111 902.655 391.431C902.652 389.423 902.649 387.423 902.647 385.415C902.609 354.455 902.117 323.655 899.351 292.615H898.551C898.023 288.655 897.495 284.695 896.951 280.615H896.151L893.751 267.815H892.151C892.003 266.455 892.003 266.455 891.851 265.063C891.398 261.383 890.611 257.815 889.755 254.183H888.155C887.955 253.159 887.755 252.135 887.549 251.079C886.605 246.855 885.109 242.999 883.453 238.999C883.182 238.329 882.91 237.655 882.629 236.967C879.397 229.039 875.797 221.367 871.829 213.767C871.387 212.903 870.949 212.047 870.493 211.159C867.853 206.063 864.989 201.319 861.693 196.599C861.091 195.663 860.493 194.727 859.901 193.783C855.981 187.551 851.821 181.623 847.261 175.783C846.754 175.12 846.245 174.455 845.725 173.775C841.909 168.879 837.765 164.335 833.565 159.855C831.717 157.879 829.917 155.863 828.149 153.815C822.381 147.175 815.829 141.175 808.629 136.055C807.253 135.007 806.101 133.847 804.877 132.623C803.853 131.823 802.821 131.039 801.773 130.271C799.989 128.951 798.237 127.631 796.525 126.223C794.101 124.327 791.557 122.671 788.989 120.983C786.997 119.631 785.149 118.135 783.277 116.623C781.949 115.807 780.613 115.015 779.277 114.223C778.566 113.798 777.853 113.375 777.125 112.935C772.253 110.047 767.365 107.383 762.245 104.935C760.125 103.863 758.117 102.687 756.093 101.447C749.861 98.1832 743.373 95.3912 736.893 92.6472C736.085 92.268 735.277 91.888 734.445 91.4952C730.685 89.8712 726.709 88.9112 722.765 87.8232C720.749 87.24 718.829 86.6232 716.885 85.8472C704.005 80.8632 690.085 78.6712 676.405 76.9672C674.469 76.6512 674.469 76.6512 673.669 75.8552C650.549 72.8712 623.829 71.5992 601.109 77.0472L601.36 77.1528ZM605.912 225.953C604.392 226.161 604.392 226.161 602.84 226.373C600.768 226.685 599.136 227.059 597.216 227.853C595.032 228.741 592.84 229.501 590.584 230.189C586.512 231.541 582.832 233.413 579.064 235.453C578.425 235.79 577.784 236.127 577.128 236.477C569.392 240.477 569.392 240.477 562.728 245.917C561.712 246.789 560.696 247.653 559.68 248.517C557.072 250.781 554.824 253.141 552.64 255.805C551.568 257.077 550.432 258.213 549.232 259.365C547.344 260.901 547.344 260.901 547.536 262.717C546.344 263.113 546.344 263.113 545.136 263.517C544.152 264.701 544.152 264.701 543.32 266.205C542.991 266.762 542.662 267.317 542.32 267.893C541.978 268.494 541.635 269.093 541.28 269.717C540.926 270.331 540.571 270.949 540.208 271.581C536.152 278.701 532.568 285.901 530.368 293.821C529.902 295.517 529.902 295.517 529.056 297.821C526.488 306.381 526.48 315.021 526.528 323.901C526.528 325.285 526.528 326.661 526.527 328.045C526.527 331.765 526.536 335.485 526.547 339.165C526.557 343.061 526.558 346.965 526.56 350.845C526.565 358.213 526.578 365.565 526.594 372.925C526.612 381.325 526.621 389.725 526.629 398.125C526.646 415.405 526.674 432.605 526.71 449.885C528.646 450.853 529.846 450.781 532.006 450.781C532.789 450.782 533.574 450.784 534.382 450.786C535.246 450.783 536.118 450.781 537.006 450.779C538.382 450.78 538.382 450.78 539.782 450.781C542.334 450.782 544.886 450.779 547.43 450.775C550.174 450.772 552.926 450.773 555.67 450.774C560.43 450.774 565.19 450.771 569.99 450.767C576.878 450.76 583.75 450.758 590.63 450.757C601.83 450.756 612.95 450.75 624.15 450.743C635.03 450.735 645.83 450.73 656.71 450.726C657.71 450.726 657.71 450.726 658.734 450.726C662.086 450.725 665.446 450.724 668.814 450.723C696.654 450.714 724.494 450.7 752.014 450.682C752.051 432.362 752.08 414.042 752.097 395.722C752.105 387.242 752.117 378.682 752.135 370.202C752.151 362.786 752.161 355.402 752.165 347.962C752.167 344.034 752.172 340.106 752.183 336.202C752.194 332.506 752.198 328.802 752.195 325.082C752.196 323.73 752.199 322.378 752.205 321.018C752.234 314.218 752.124 307.738 750.413 301.098C750.159 299.882 749.908 298.666 749.663 297.45C744.959 276.57 732.063 256.09 714.623 243.77C712.967 242.57 712.967 242.57 711.255 242.706V241.106C708.191 239.018 704.903 237.29 701.655 235.506C700.995 235.138 700.335 234.77 699.655 234.394C690.055 229.282 680.215 227.034 669.495 225.594C666.439 225.132 666.439 225.132 664.839 224.33C663.487 224.25 662.127 224.22 660.775 224.214C659.503 224.207 659.503 224.207 658.199 224.199C657.271 224.198 656.343 224.197 655.391 224.196C653.951 224.192 653.951 224.192 652.487 224.188C650.447 224.184 648.407 224.182 646.367 224.182C643.295 224.181 640.223 224.166 637.167 224.151C626.527 224.127 616.207 224.388 605.647 225.927L605.912 225.953ZM901.912 315.553V324.353H902.712V315.553H901.912ZM450.712 347.553V363.553H451.512V347.553H450.712ZM257.112 451.553V452.353H261.112V451.553H257.112ZM1026.71 452.353V453.153H1030.71V452.353H1026.71ZM234.712 541.153L233.192 543.625L231.712 545.969C231.244 546.746 230.776 547.521 230.296 548.329C229.587 549.489 229.587 549.489 228.864 550.673C226.328 555.793 225.72 560.993 225.504 566.593C225.474 567.278 225.444 567.961 225.413 568.665C225.042 578.185 225.085 587.625 225.095 597.145C225.097 600.025 225.095 602.905 225.093 605.785C225.09 610.817 225.09 615.865 225.092 620.905C225.095 628.385 225.093 635.865 225.091 643.385C225.087 656.745 225.087 670.105 225.089 683.465C225.091 695.145 225.092 706.905 225.091 718.585C225.091 719.363 225.091 720.145 225.091 720.945C225.09 724.105 225.09 727.265 225.09 730.465C225.087 760.065 225.09 789.745 225.094 819.265C225.098 845.505 225.097 871.825 225.094 898.065C225.089 927.585 225.088 957.185 225.09 986.865C225.09 990.025 225.091 993.185 225.091 996.305C225.091 997.082 225.091 997.857 225.091 998.665C225.092 1010.34 225.091 1022.02 225.089 1033.7C225.087 1046.98 225.087 1060.34 225.092 1073.62C225.094 1080.41 225.095 1087.22 225.092 1093.94C225.047 1126.9 225.047 1126.9 225.505 1159.86C225.523 1160.81 225.523 1160.81 225.541 1161.77C225.777 1173.37 227.693 1183.05 235.781 1191.93C241.973 1197.63 249.061 1201.77 257.381 1203.29C258.813 1203.6 258.813 1203.6 259.613 1204.4C266.357 1205.62 273.373 1205.31 280.173 1205.3C281.445 1205.31 282.717 1205.31 283.989 1205.31C287.485 1205.31 290.981 1205.31 294.469 1205.31C298.269 1205.31 302.077 1205.31 305.909 1205.31C312.573 1205.32 319.269 1205.32 325.909 1205.32C335.829 1205.32 345.749 1205.32 355.669 1205.33C374.389 1205.33 393.109 1205.34 411.909 1205.34C426.389 1205.34 440.869 1205.34 455.349 1205.34C459.517 1205.34 463.669 1205.34 467.829 1205.34C468.861 1205.34 469.901 1205.34 470.965 1205.34C500.085 1205.35 529.205 1205.35 558.165 1205.35C559.277 1205.35 560.381 1205.35 561.493 1205.35C566.501 1205.35 571.493 1205.35 576.533 1205.35C578.765 1205.35 580.997 1205.35 583.229 1205.35C584.349 1205.35 585.461 1205.35 586.581 1205.35C621.941 1205.35 657.221 1205.36 692.981 1205.37C701.861 1205.37 710.821 1205.37 719.701 1205.37C720.525 1205.38 720.525 1205.38 721.365 1205.38C738.245 1205.38 755.125 1205.38 772.085 1205.38C772.881 1205.38 772.881 1205.38 773.693 1205.38C785.853 1205.39 798.013 1205.39 810.253 1205.39C814.421 1205.38 818.573 1205.38 822.733 1205.38C823.757 1205.38 824.781 1205.38 825.845 1205.38C842.325 1205.38 858.885 1205.39 875.365 1205.4C891.925 1205.4 908.565 1205.4 925.125 1205.4C934.965 1205.4 944.805 1205.4 954.725 1205.41C961.309 1205.41 967.925 1205.41 974.485 1205.4C978.237 1205.4 981.989 1205.4 985.765 1205.41C989.181 1205.41 992.605 1205.41 996.005 1205.4C997.229 1205.4 998.445 1205.4 999.669 1205.41C1006.17 1205.43 1012.55 1205.17 1019.03 1204.47C1019.63 1204.41 1020.23 1204.34 1020.85 1204.28C1025.56 1203.72 1029.49 1202.66 1033.65 1200.4C1034.38 1200 1035.13 1199.61 1035.89 1199.2C1044.05 1194.45 1048.29 1188.08 1052.05 1179.6C1052.46 1178.69 1052.46 1178.68 1052.89 1177.76C1053.71 1175.41 1053.85 1173.65 1053.85 1171.17C1053.85 1169.83 1053.85 1169.83 1053.86 1168.47C1053.85 1167.49 1053.85 1166.52 1053.84 1165.52C1053.85 1163.96 1053.85 1163.96 1053.85 1162.37C1053.86 1159.46 1053.85 1156.56 1053.85 1153.64C1053.84 1150.49 1053.85 1147.34 1053.85 1144.21C1053.85 1138.68 1053.85 1133.16 1053.85 1127.64C1053.84 1119.4 1053.84 1111.17 1053.84 1103.01C1053.85 1089.17 1053.85 1075.33 1053.84 1061.49C1053.83 1047.81 1053.83 1034.05 1053.83 1020.37C1053.83 1019.52 1053.83 1018.66 1053.83 1017.78C1053.83 1014.33 1053.83 1010.87 1053.83 1007.38C1053.83 974.901 1053.82 942.501 1053.81 909.781C1053.8 880.981 1053.79 852.101 1053.79 823.381C1053.79 821.533 1053.79 819.677 1053.79 817.829C1053.79 816.453 1053.79 816.453 1053.79 815.053C1053.79 810.445 1053.79 805.853 1053.79 801.213C1053.79 799.853 1053.79 799.853 1053.79 798.461C1053.79 774.381 1053.79 750.301 1053.79 726.221C1053.79 724.933 1053.79 724.933 1053.79 723.629C1053.78 720.181 1053.78 716.741 1053.78 713.309C1053.78 701.309 1053.78 689.309 1053.78 677.309C1053.78 661.869 1053.78 646.429 1053.77 630.989C1053.76 622.829 1053.76 614.669 1053.76 606.429C1053.76 600.973 1053.76 595.549 1053.76 590.029C1053.75 586.917 1053.75 583.805 1053.75 580.669C1053.76 577.317 1053.75 573.965 1053.75 570.589C1053.75 569.621 1053.75 568.653 1053.75 567.661C1053.74 562.677 1053.51 557.821 1052.85 552.941H1051.25C1051.18 552.387 1051.11 551.837 1051.03 551.261C1049.32 544.429 1044.24 537.661 1038.47 533.741C1037.75 533.237 1037.04 532.733 1036.3 532.213C1027.74 526.749 1019.1 525.957 1009.18 526.037C1007.86 526.033 1006.55 526.026 1005.24 526.019C1001.66 526.003 998.063 526.011 994.439 526.024C990.527 526.033 986.623 526.019 982.679 526.009C975.831 525.993 968.999 525.992 962.119 526.001C951.959 526.015 941.799 526.005 931.559 525.991C913.399 525.967 895.159 525.966 876.999 525.975C861.079 525.982 845.159 525.983 829.239 525.976C827.639 525.976 826.039 525.975 824.439 525.974C820.687 525.973 816.935 525.971 813.159 525.97C801.159 525.965 789.239 525.961 777.239 525.959C776.694 525.959 776.151 525.959 775.583 525.959C758.223 525.955 740.863 525.958 723.423 525.965C722.86 525.966 722.295 525.966 721.719 525.966C712.599 525.97 703.399 525.974 694.279 525.978C658.039 525.994 621.719 525.987 585.479 525.961C576.359 525.954 567.159 525.947 558.039 525.941C557.476 525.941 556.911 525.94 556.335 525.94C538.975 525.928 521.615 525.922 504.255 525.922C503.439 525.922 503.439 525.922 502.607 525.922C490.607 525.923 478.687 525.925 466.687 525.928C461.871 525.929 457.087 525.93 452.207 525.931C451.151 525.932 450.103 525.932 449.015 525.932C433.095 525.936 417.255 525.927 401.335 525.913C383.255 525.896 365.175 525.897 347.095 525.92C337.015 525.932 326.855 525.931 316.775 525.911C310.015 525.899 303.255 525.905 296.455 525.925C292.607 525.935 288.751 525.938 284.935 525.92C281.423 525.904 277.919 525.91 274.375 525.934C273.119 525.938 271.863 525.935 270.607 525.922C257.407 525.8 243.007 529.602 234.927 540.882L234.712 541.153Z" fill="#FCFCFC"/>
<path d="M643.2 682.4C643.83 682.441 644.456 682.482 645.104 682.524C646.856 682.642 648.6 682.769 650.344 682.9C651.058 682.95 651.768 682.999 652.504 683.05C666.984 684.338 680.904 689.57 693.544 696.49C694.285 696.894 695.024 697.298 695.784 697.714C704.184 702.546 712.424 708.674 719.144 715.714V717.314C719.794 717.542 719.794 717.542 720.456 717.774C723.24 719.462 724.952 721.822 726.944 724.366C727.369 724.905 727.792 725.446 728.232 725.998C736.232 736.318 743.672 748.558 747.112 761.278C747.314 762.001 747.516 762.726 747.725 763.47C748.128 764.934 748.525 766.398 748.917 767.862C749.356 769.494 749.845 771.118 750.357 772.734C751.197 776.006 751.477 779.022 751.613 782.414C751.657 783.35 751.657 783.35 751.703 784.31C752.098 793.35 752.041 802.39 751.613 811.43C751.576 812.318 751.576 812.318 751.538 813.23C751.346 816.71 750.714 819.614 749.514 822.91C749.169 824.358 748.836 825.806 748.514 827.262C744.266 844.542 734.514 862.622 721.474 874.942C721.061 875.387 720.65 875.83 720.226 876.294C719.074 877.342 719.074 877.342 717.474 877.342C717.309 877.787 717.144 878.23 716.974 878.694C715.47 881.214 713.35 882.766 711.07 884.542C710.41 885.119 709.75 885.694 709.07 886.294C707.07 887.742 707.07 887.742 704.47 888.598C703.382 888.969 703.382 888.969 702.27 889.348C702.006 890.14 701.742 890.932 701.47 891.748C699.854 892.876 698.286 893.844 696.574 894.796C695.836 895.213 695.836 895.213 695.086 895.636C690.414 898.204 685.566 900.172 680.606 902.044C678.414 902.723 678.414 902.723 677.494 903.748C676.422 909.812 676.574 915.908 676.582 922.068C676.58 923.268 676.577 924.468 676.574 925.676C676.568 928.252 676.563 930.836 676.561 933.412C676.556 937.492 676.543 941.572 676.528 945.652C676.523 947.052 676.518 948.452 676.513 949.852C676.51 950.554 676.507 951.252 676.505 951.98C676.471 961.5 676.445 970.94 676.435 980.46C676.428 986.876 676.41 993.26 676.379 999.74C676.364 1003.13 676.354 1006.52 676.358 1009.9C676.361 1013.09 676.35 1016.28 676.328 1019.5C676.323 1020.67 676.322 1021.83 676.328 1023C676.381 1034.68 673.44 1041.96 665.448 1050.36C656.888 1058.52 648.008 1060.04 636.488 1059.96C630.952 1059.72 626.088 1059.08 621.528 1055.83C620.464 1055.28 619.4 1054.75 618.328 1054.23V1052.63C617.384 1052.33 617.384 1052.33 616.424 1052.03C614.064 1050.91 613.6 1050.22 612.728 1047.83H611.128C609.688 1046.19 609.688 1046.19 608.024 1043.92C607.208 1042.84 607.208 1042.84 606.384 1041.73C601.712 1034.1 601.056 1027.25 601.088 1018.45C601.081 1017.2 601.073 1015.94 601.063 1014.69C601.041 1011.31 601.038 1007.92 601.039 1004.53C601.036 1000.99 601.016 997.444 600.997 993.892C600.965 987.188 600.949 980.452 600.938 973.812C600.925 966.18 600.895 958.532 600.862 950.932C600.797 935.252 600.754 919.572 600.725 903.892C599.845 903.452 598.965 903.012 598.053 902.556C596.885 901.974 595.717 901.388 594.557 900.804C593.978 900.514 593.397 900.226 592.797 899.924C569.757 888.404 550.637 871.524 538.317 848.644C537.865 847.828 537.865 847.828 537.405 846.988C533.973 840.476 531.149 833.468 529.885 826.188C529.582 824.628 529.582 824.628 528.733 823.244C527.589 820.748 527.325 818.22 527.021 815.516C526.92 814.628 526.92 814.628 526.817 813.724C526.114 806.86 526.126 800.044 526.282 793.164C526.318 791.228 526.316 789.292 526.308 787.356C526.42 775.596 528.78 761.996 535.108 751.916C535.629 750.796 536.132 749.66 536.612 748.516C539.628 741.628 543.54 735.636 547.892 729.476C548.42 728.684 548.948 727.892 549.492 727.076H551.092C551.29 726.494 551.488 725.916 551.692 725.316C555.764 716.196 566.252 708.676 574.492 703.636C576.564 702.348 578.5 700.948 580.452 699.492C585.492 695.932 591.012 693.484 596.612 691.092C597.452 690.729 598.3 690.366 599.172 689.988C612.612 684.692 628.612 681.588 643.092 682.588L643.2 682.4ZM611.92 771.2C609.024 774.424 609.024 774.424 607.92 778.4H606.32C606.107 778.989 605.895 779.576 605.676 780.184C605.394 780.965 605.111 781.744 604.82 782.552C604.542 783.322 604.263 784.096 603.98 784.888C603.124 787.2 603.124 787.2 602.236 789.128C599.964 795.768 601.052 804.088 603.924 810.408C604.27 811.216 604.617 812.024 604.972 812.856C609.828 821.336 617.052 829.016 626.732 831.816C627.988 832.088 629.244 832.338 630.5 832.557C631.9 832.844 631.9 832.844 632.7 833.645C644.3 834.411 654.62 833.408 663.9 825.645C667.732 822.085 667.732 822.085 669.9 817.485C670.032 817.004 670.164 816.525 670.3 816.029C671.092 815.765 671.884 815.501 672.7 815.229C676.836 805.949 678.54 795.389 675.1 785.629C674.846 784.888 674.59 784.149 674.328 783.389C670.552 773.389 664.728 766.589 655.048 762.109C639.688 755.469 623.608 758.781 611.928 771.229L611.92 771.2Z" fill="#FDFDFD"/>
</g>
<defs>
<clipPath id="clip0_164_34">
<rect width="1280" height="1280" fill="white"/>
</clipPath>
</defs>
</svg>
