<svg width="50" height="50" viewBox="0 0 50 50" fill="none" xmlns="http://www.w3.org/2000/svg">
<path fill-rule="evenodd" clip-rule="evenodd" d="M4.16667 0H14.5833C16.8845 0 18.75 1.86548 18.75 4.16667V14.5833C18.75 16.8845 16.8845 18.75 14.5833 18.75H4.16667C1.86548 18.75 0 16.8845 0 14.5833V4.16667C0 1.86548 1.86548 0 4.16667 0ZM4.16667 22.9167H14.5833C16.8845 22.9167 18.75 24.7821 18.75 27.0833V45.8333C18.75 48.1346 16.8845 50 14.5833 50H4.16667C1.86548 50 0 48.1346 0 45.8333V27.0833C0 24.7821 1.86548 22.9167 4.16667 22.9167ZM27.0833 0H45.8333C48.1346 0 50 1.86548 50 4.16667V27.0833C50 29.3846 48.1346 31.25 45.8333 31.25H27.0833C24.7821 31.25 22.9167 29.3846 22.9167 27.0833V4.16667C22.9167 1.86548 24.7821 0 27.0833 0ZM27.0833 35.4167H45.8333C48.1346 35.4167 50 37.2821 50 39.5833V45.8333C50 48.1346 48.1346 50 45.8333 50H27.0833C24.7821 50 22.9167 48.1346 22.9167 45.8333V39.5833C22.9167 37.2821 24.7821 35.4167 27.0833 35.4167Z" fill="#E87C7A"/>
</svg>
