<svg width="721" height="516" viewBox="0 0 721 516" fill="none" xmlns="http://www.w3.org/2000/svg">
<path d="M282.56 309.159C282.56 309.159 275.062 302.09 274.359 300.105C273.656 298.119 272.214 284.906 269.348 286.6C266.482 288.295 267.094 298.906 267.094 298.906C267.094 298.906 256.55 283.742 253.666 285.214C250.782 286.686 246.456 294.456 246.87 297.195C247.285 299.933 266.139 319.907 272.574 323.622L282.56 309.159Z" fill="#F5F5F5"/>
<path d="M272.574 324.392C272.409 324.395 272.246 324.354 272.105 324.272C265.941 320.695 246.402 300.464 245.969 297.229C245.537 293.994 250.187 285.933 253.179 284.41C255.919 283.057 261.849 290.246 266.049 296.014C266.049 292.505 266.518 287.217 268.807 285.864C269.053 285.714 269.335 285.623 269.627 285.599C269.919 285.575 270.213 285.619 270.483 285.727C272.43 286.566 273.421 291.05 274.503 296.818C274.653 297.833 274.864 298.839 275.134 299.831C275.602 301.149 280.289 305.873 283.119 308.543C283.268 308.681 283.362 308.864 283.385 309.06C283.408 309.257 283.358 309.455 283.245 309.621L273.241 324.015C273.169 324.124 273.072 324.215 272.956 324.28C272.84 324.346 272.709 324.384 272.574 324.392ZM254.152 285.916C251.575 287.199 247.537 294.765 247.826 296.99C248.114 299.215 265.382 317.682 272.394 322.338L281.406 309.244C279.424 307.362 274.196 302.244 273.493 300.361C273.192 299.291 272.958 298.205 272.79 297.109C272.358 294.782 270.988 287.713 269.816 287.285C268.176 288.295 267.761 294.645 268.014 298.855C268.026 299.044 267.971 299.232 267.859 299.388C267.747 299.545 267.583 299.662 267.394 299.72C267.204 299.779 266.999 299.776 266.811 299.713C266.623 299.649 266.463 299.528 266.355 299.369C261.362 292.077 255.685 285.916 254.152 285.916Z" fill="#453232"/>
<path d="M362.663 262.21C362.663 262.21 311.833 326.463 304.623 319.925C297.413 313.386 279.388 302.621 279.388 302.621L264.625 322.098C264.625 322.098 308.732 361.122 323.567 355.559C338.401 349.997 381.139 297.195 381.139 297.195L362.663 262.21Z" fill="#F29AA8"/>
<path d="M332.165 298.136C328.56 295.997 323.855 293.823 320.827 291.05C315.996 286.617 312.842 279.994 308.336 275.099C307.768 275.526 307.339 276.095 307.097 276.743C306.855 277.391 306.809 278.09 306.966 278.761C307.31 280.099 307.863 281.379 308.606 282.561C309.975 285.125 310.969 287.855 311.562 290.674C303.144 288.363 294.455 287.063 285.696 286.806C285.272 288.035 285.164 289.343 285.38 290.62C285.596 291.898 286.131 293.107 286.94 294.148C288.567 296.218 290.533 298.026 292.762 299.506C295.413 301.615 298.289 303.457 301.342 305C308.191 308.217 316.339 308.423 322.071 313.558C324.666 315.902 329.551 318.179 332.237 315.269C333.354 314.037 332.723 298.479 332.165 298.136Z" fill="#F5F5F5"/>
<path d="M328.92 317.494C326.094 317.265 323.445 316.095 321.44 314.191C318.015 311.11 313.689 309.878 309.111 308.577C306.311 307.861 303.579 306.922 300.945 305.77C297.834 304.199 294.904 302.323 292.203 300.173C289.89 298.65 287.856 296.777 286.183 294.628C285.291 293.47 284.706 292.125 284.476 290.707C284.247 289.289 284.381 287.839 284.867 286.481C284.941 286.322 285.062 286.187 285.216 286.092C285.37 285.998 285.549 285.948 285.732 285.95C294.053 286.164 302.318 287.313 310.354 289.373C309.766 287.119 308.907 284.937 307.795 282.869L307.525 282.339C306.846 281.245 306.359 280.054 306.083 278.813C305.888 277.975 305.955 277.101 306.275 276.299C306.595 275.496 307.155 274.8 307.885 274.294C308.067 274.181 308.286 274.135 308.501 274.163C308.716 274.191 308.914 274.293 309.057 274.448C311.074 276.756 312.923 279.192 314.59 281.739C316.563 284.818 318.878 287.687 321.494 290.297C323.939 292.295 326.618 294.018 329.479 295.432C330.578 296.048 331.678 296.647 332.669 297.246C333.084 297.486 333.192 297.931 333.282 298.547C333.625 300.687 334.364 314.088 332.958 315.663C332.513 316.168 331.963 316.581 331.343 316.875C330.723 317.17 330.045 317.34 329.353 317.374L328.92 317.494ZM286.345 287.679C286.113 288.71 286.112 289.776 286.342 290.808C286.572 291.84 287.027 292.815 287.679 293.669C289.258 295.657 291.163 297.39 293.321 298.804C295.927 300.873 298.747 302.685 301.738 304.212C304.288 305.313 306.928 306.212 309.633 306.9C314.212 308.2 318.952 309.552 322.684 312.924C324.405 314.575 326.697 315.578 329.137 315.748C329.602 315.735 330.059 315.63 330.478 315.438C330.897 315.246 331.269 314.973 331.57 314.636C332.237 313.403 331.966 300.943 331.426 298.684C330.506 298.136 329.533 297.606 328.524 296.972C325.536 295.483 322.741 293.668 320.196 291.564C317.453 288.86 315.035 285.875 312.986 282.664C311.516 280.44 309.916 278.297 308.191 276.245C307.768 276.931 307.62 277.74 307.777 278.522C308.039 279.579 308.464 280.594 309.039 281.534L309.345 282.065C310.746 284.701 311.764 287.505 312.373 290.4C312.407 290.545 312.4 290.696 312.352 290.837C312.305 290.978 312.219 291.105 312.103 291.204C311.992 291.304 311.855 291.374 311.706 291.407C311.557 291.44 311.402 291.435 311.256 291.393C303.144 289.191 294.778 287.943 286.345 287.679Z" fill="#453232"/>
<path d="M415.314 158.335C419.793 159.013 423.972 160.898 427.356 163.765C430.74 166.632 433.185 170.361 434.402 174.51C436.205 181.151 435.015 189.024 439.81 194.159C441.286 195.645 443.12 196.767 445.155 197.429C447.19 198.091 449.365 198.273 451.49 197.958C455.758 197.262 459.608 195.099 462.305 191.882C463.001 196.021 462.393 200.263 460.559 204.075C458.725 207.888 455.745 211.101 451.995 213.311C448.603 215.074 444.857 216.138 441.003 216.433C437.148 216.728 433.271 216.247 429.626 215.023C422.344 212.501 415.744 208.472 410.303 203.23C401.208 195.529 395.371 184.95 393.882 173.466C392.458 162.358 405.004 156.915 415.314 158.335Z" fill="#F5F5F5"/>
<path d="M439.323 217.316C435.929 217.302 432.558 216.776 429.338 215.759C421.927 213.201 415.209 209.108 409.672 203.778C400.43 195.931 394.499 185.167 392.981 173.483C392.677 171.478 392.882 169.434 393.578 167.52C394.274 165.605 395.441 163.877 396.983 162.477C399.481 160.397 402.433 158.867 405.627 157.997C408.821 157.127 412.178 156.939 415.458 157.445C420.109 158.156 424.447 160.117 427.961 163.095C431.475 166.074 434.017 169.946 435.286 174.253C435.857 176.585 436.249 178.953 436.457 181.339C436.998 185.977 437.485 190.359 440.495 193.559C441.878 194.91 443.582 195.925 445.464 196.521C447.346 197.117 449.35 197.275 451.31 196.983C455.358 196.32 459.008 194.267 461.566 191.215C461.675 191.089 461.82 190.997 461.983 190.948C462.146 190.9 462.321 190.897 462.485 190.941C462.651 190.979 462.801 191.063 462.916 191.182C463.031 191.3 463.107 191.449 463.134 191.608C463.862 195.918 463.222 200.335 461.296 204.298C459.37 208.26 456.245 211.589 452.319 213.859C448.39 216.091 443.903 217.285 439.323 217.316ZM412.052 158.969C406.982 158.862 402.054 160.566 398.244 163.744C396.905 164.961 395.892 166.464 395.29 168.129C394.688 169.793 394.514 171.57 394.784 173.312C396.254 184.606 402.008 195.006 410.97 202.562C416.316 207.698 422.791 211.649 429.932 214.133C433.452 215.323 437.196 215.799 440.921 215.531C444.647 215.263 448.272 214.256 451.562 212.575C454.876 210.611 457.567 207.831 459.351 204.531C461.134 201.232 461.943 197.535 461.692 193.833C458.986 196.459 455.47 198.197 451.652 198.797C449.38 199.137 447.054 198.946 444.877 198.239C442.7 197.532 440.738 196.331 439.161 194.74C435.772 191.112 435.214 186.183 434.691 181.544C434.48 179.24 434.101 176.952 433.555 174.698C432.33 170.184 429.556 166.186 425.672 163.334C421.788 160.483 417.015 158.941 412.106 158.952L412.052 158.969Z" fill="#453232"/>
<path d="M405.238 175.605C403.029 172.513 399.888 170.126 396.226 168.759C393.427 167.975 390.458 167.916 387.628 168.588C386.606 168.714 385.623 169.041 384.742 169.548C383.861 170.055 383.1 170.731 382.509 171.532C382.092 172.496 381.888 173.531 381.91 174.573C381.931 175.616 382.178 176.643 382.635 177.591C385.014 184.334 393.305 199.481 402.462 199.105C415.242 198.677 409.6 180.979 405.238 175.605Z" fill="#453232"/>
<path d="M402.138 200.063C392.693 200.063 384.401 185.241 381.842 177.95C381.351 176.887 381.098 175.739 381.098 174.578C381.098 173.418 381.351 172.269 381.842 171.206C382.477 170.278 383.317 169.491 384.303 168.9C385.29 168.309 386.399 167.928 387.556 167.783C390.527 167.101 393.635 167.172 396.568 167.989C400.38 169.363 403.653 171.819 405.941 175.023C409.059 178.891 413.151 189.366 410.177 195.562C409.487 196.923 408.396 198.065 407.036 198.848C405.676 199.632 404.106 200.025 402.516 199.978L402.138 200.063ZM391.863 168.998C390.522 169.008 389.187 169.157 387.88 169.443C386.98 169.541 386.112 169.815 385.33 170.248C384.548 170.681 383.87 171.264 383.338 171.959C382.994 172.827 382.837 173.75 382.874 174.676C382.911 175.602 383.142 176.511 383.554 177.351C385.915 184.043 393.9 198.643 402.426 198.266C403.687 198.336 404.942 198.048 406.03 197.438C407.119 196.829 407.991 195.925 408.537 194.843C411.15 189.554 407.419 179.662 404.517 176.016C402.437 173.094 399.47 170.843 396.009 169.563C394.667 169.169 393.268 168.978 391.863 168.998Z" fill="#453232"/>
<path d="M450.246 392.889L459.619 444.544L359.256 437.458L357.904 374.712L450.246 392.889Z" fill="#453232"/>
<path d="M459.637 445.4L359.256 438.314C359.032 438.301 358.821 438.207 358.666 438.051C358.512 437.895 358.427 437.689 358.427 437.475L357.075 374.729C357.077 374.6 357.107 374.472 357.162 374.355C357.218 374.237 357.299 374.131 357.4 374.044C357.506 373.967 357.629 373.912 357.759 373.882C357.889 373.853 358.025 373.85 358.157 373.873L450.499 392.05C450.675 392.083 450.837 392.166 450.963 392.288C451.089 392.41 451.172 392.566 451.202 392.735L460.593 444.407C460.614 444.53 460.606 444.656 460.57 444.777C460.535 444.897 460.472 445.008 460.386 445.103C460.3 445.197 460.193 445.273 460.073 445.324C459.953 445.376 459.823 445.401 459.692 445.4H459.637ZM360.158 436.671L458.556 443.62L449.543 393.608L358.932 375.773L360.158 436.671Z" fill="#453232"/>
<path d="M409.6 253.67C409.6 253.67 432.726 264.025 445.83 293.84C452.806 309.707 455.113 398.434 455.113 398.434C455.113 398.434 387.375 412.777 355.02 395.747C355.02 395.747 356.228 354.378 352.767 326.257C350.965 311.897 350.586 281.449 357.904 268.287C367.8 250.503 391.629 254.577 409.6 253.67Z" fill="#F29AA8"/>
<path d="M355.093 354.943C354.86 354.943 354.636 354.858 354.468 354.705C354.3 354.552 354.201 354.343 354.191 354.122C354.191 353.711 352.803 313.318 351.415 302.775C349.991 291.923 356.823 275.526 357.075 274.842C357.119 274.737 357.184 274.642 357.266 274.561C357.349 274.481 357.448 274.416 357.556 274.372C357.665 274.327 357.782 274.303 357.901 274.302C358.019 274.3 358.137 274.321 358.247 274.363C358.466 274.45 358.641 274.615 358.736 274.822C358.83 275.03 358.835 275.264 358.752 275.475C358.752 275.629 351.83 292.146 353.2 302.569C354.57 312.993 355.976 353.711 355.994 354.105C355.999 354.217 355.98 354.329 355.939 354.435C355.898 354.54 355.836 354.637 355.755 354.72C355.675 354.803 355.578 354.869 355.471 354.917C355.363 354.964 355.247 354.99 355.129 354.995L355.093 354.943Z" fill="#453232"/>
<path d="M402.895 182.52C402.246 181.476 401.597 180.466 400.93 179.49C394.838 170.505 383.554 169.461 373.694 173.038C371.73 173.757 369.621 174.955 369.332 176.94C365.349 175.229 360.482 176.94 357.526 180.038C347.919 189.845 348.225 205.404 351.451 217.521C352.049 220.355 353.232 223.048 354.93 225.446C356.767 227.621 359.096 229.376 361.744 230.581C379.661 239.395 406.265 232.515 410.411 211.753C412.25 202.015 408.158 191.249 402.895 182.52Z" fill="#F5F5F5"/>
<path d="M378.525 235.099C372.56 235.134 366.672 233.82 361.347 231.265C358.544 230.05 356.076 228.233 354.137 225.959C352.372 223.469 351.147 220.671 350.532 217.727C348.513 210.196 345.125 191.369 356.805 179.456C359.527 176.683 364.285 174.493 368.683 175.81C369.161 174.948 369.818 174.187 370.614 173.572C371.411 172.957 372.329 172.502 373.316 172.233C382.509 168.913 394.784 168.93 401.633 179.08C402.318 180.072 402.967 181.099 403.616 182.16C407.401 188.373 413.421 200.508 411.168 211.942C410.324 216.219 408.41 220.242 405.587 223.67C402.763 227.098 399.114 229.832 394.946 231.642C389.815 233.949 384.202 235.131 378.525 235.099ZM365.908 177.111C362.92 177.257 360.115 178.519 358.103 180.62C347.017 191.933 350.316 210.042 352.263 217.316C352.815 220.042 353.943 222.633 355.579 224.932C357.333 226.991 359.559 228.642 362.086 229.759C367.072 232.099 372.55 233.34 378.111 233.39C383.673 233.441 389.175 232.299 394.207 230.05C398.1 228.334 401.507 225.763 404.146 222.548C406.786 219.334 408.581 215.569 409.384 211.565C411.529 200.68 405.779 188.955 402.048 182.948C401.417 181.921 400.768 180.911 400.101 179.952C393.846 170.727 382.491 170.744 373.947 173.842C372.342 174.424 370.342 175.451 370.143 177.06C370.127 177.19 370.077 177.314 369.998 177.421C369.92 177.528 369.815 177.616 369.693 177.676C369.568 177.739 369.429 177.772 369.287 177.772C369.146 177.772 369.007 177.739 368.882 177.676C367.944 177.29 366.93 177.097 365.908 177.111Z" fill="#453232"/>
<path d="M372.739 235.972L374.199 252.831C374.199 252.831 379.408 256.614 390.782 252.917C402.156 249.22 402.642 246.344 402.642 246.344L399.434 215.211C399.29 213.876 393.846 209.546 392.729 208.621C389.645 206.084 386.228 203.938 382.563 202.237C380.854 201.522 379.198 200.698 377.606 199.772C375.624 198.462 374.024 196.697 372.956 194.64C371.887 192.584 371.385 190.304 371.495 188.014C371.691 189.87 371.471 191.745 370.849 193.515C370.228 195.285 369.22 196.91 367.89 198.283C366.088 200.149 363.6 201.484 361.906 203.418C358.824 207.081 360.103 210.264 360.518 214.389C361.113 219.079 360.41 223.717 361.509 228.424C363.33 236.742 372.577 235.869 372.739 235.972Z" fill="#F5F5F5"/>
<path d="M381.535 255.398C378.768 255.554 376.018 254.896 373.658 253.516C373.555 253.444 373.469 253.352 373.406 253.245C373.344 253.139 373.307 253.021 373.298 252.9L371.91 236.811C365.745 236.623 361.726 233.747 360.536 228.698C359.987 225.951 359.746 223.157 359.815 220.363C359.832 218.431 359.742 216.5 359.545 214.578C359.449 213.961 359.358 213.391 359.274 212.866C358.752 209.563 358.265 206.448 361.077 203.042C362.107 201.902 363.261 200.87 364.52 199.961C365.437 199.289 366.305 198.557 367.115 197.77C369.183 195.67 370.419 192.954 370.612 190.085C370.558 189.396 370.558 188.703 370.612 188.014C370.626 187.799 370.724 187.597 370.888 187.448C371.051 187.298 371.268 187.213 371.495 187.21C371.719 187.208 371.936 187.287 372.103 187.429C372.269 187.572 372.374 187.768 372.396 187.98C372.451 188.669 372.451 189.361 372.396 190.051C372.6 191.857 373.21 193.601 374.187 195.164C375.164 196.726 376.483 198.07 378.056 199.105C379.205 199.82 380.41 200.45 381.661 200.988L382.833 201.518C386.56 203.258 390.037 205.444 393.179 208.022L393.522 208.313C398.929 212.695 400.101 214.235 400.209 215.159L403.417 246.327V246.533C403.309 247.097 402.264 250.11 390.962 253.79C387.933 254.809 384.749 255.353 381.535 255.398ZM375.064 252.335C376.308 253.002 381.301 255.107 390.494 252.112C399.686 249.117 401.471 246.704 401.723 246.224C401.453 243.606 398.551 215.416 398.533 215.262C398.515 215.108 397.704 213.773 392.476 209.511L392.134 209.237C389.114 206.745 385.763 204.639 382.166 202.973L381.012 202.443C379.656 201.873 378.348 201.203 377.101 200.44C374.648 198.818 372.764 196.535 371.694 193.885C371.011 195.736 369.931 197.432 368.521 198.865C367.654 199.696 366.733 200.473 365.763 201.193C364.599 202.033 363.53 202.985 362.573 204.034C360.212 206.841 360.608 209.357 361.113 212.592C361.209 213.185 361.299 213.802 361.383 214.441C361.594 216.425 361.69 218.419 361.672 220.414C361.599 223.088 361.829 225.762 362.357 228.39C363.384 232.789 366.881 235.133 372.487 235.236C372.768 235.198 373.054 235.252 373.298 235.39C373.412 235.458 373.508 235.551 373.577 235.661C373.646 235.771 373.686 235.896 373.694 236.023L375.064 252.335Z" fill="#453232"/>
<path d="M392.548 215.211C392.799 213.663 393.571 212.234 394.747 211.137C395.894 210.157 397.211 209.375 398.641 208.827C399.381 208.433 400.209 208.21 401.056 208.176C401.65 208.215 402.231 208.36 402.769 208.604C404.082 209.08 405.174 209.984 405.851 211.154C406.263 212.149 406.418 213.223 406.302 214.287C406.278 215.446 406.09 216.598 405.743 217.71C405.364 218.813 404.759 219.834 403.964 220.715C403.17 221.596 402.2 222.319 401.11 222.844C398.898 223.893 396.34 224.072 393.99 223.341" fill="#F5F5F5"/>
<path d="M396.929 224.71C395.832 224.708 394.743 224.541 393.702 224.214C393.59 224.178 393.486 224.121 393.396 224.047C393.307 223.973 393.234 223.883 393.181 223.782C393.128 223.681 393.097 223.571 393.089 223.459C393.081 223.346 393.096 223.234 393.134 223.127C393.172 223.02 393.232 222.921 393.31 222.837C393.388 222.752 393.483 222.682 393.589 222.632C393.695 222.582 393.811 222.552 393.929 222.545C394.048 222.537 394.166 222.552 394.279 222.588C395.329 222.92 396.439 223.051 397.544 222.972C398.648 222.893 399.725 222.607 400.711 222.129C401.698 221.651 402.574 220.991 403.289 220.189C404.005 219.386 404.544 218.456 404.878 217.453C405.211 216.409 405.387 215.326 405.4 214.235C405.512 213.308 405.388 212.369 405.04 211.497C404.447 210.522 403.517 209.772 402.408 209.374C401.976 209.183 401.513 209.062 401.038 209.015C400.332 209.07 399.645 209.263 399.019 209.58C397.697 210.091 396.478 210.815 395.414 211.719C394.378 212.694 393.701 213.961 393.486 215.331C393.45 215.558 393.321 215.762 393.126 215.898C392.932 216.035 392.688 216.092 392.449 216.058C392.21 216.024 391.995 215.901 391.852 215.717C391.708 215.532 391.647 215.301 391.683 215.074C391.955 213.338 392.815 211.733 394.135 210.504C395.359 209.461 396.761 208.622 398.28 208.022C399.15 207.589 400.111 207.343 401.092 207.303C401.805 207.341 402.502 207.51 403.147 207.8C404.687 208.34 405.968 209.392 406.752 210.761C407.235 211.888 407.421 213.11 407.293 214.321C407.27 215.562 407.07 216.794 406.698 217.984C406.045 219.932 404.755 221.632 403.014 222.836C401.273 224.04 399.172 224.684 397.019 224.676L396.929 224.71Z" fill="#453232"/>
<path d="M374.74 208.245C374.74 208.245 369.152 217.248 370.702 218.668C372.252 220.089 376.254 218.874 376.254 218.874" fill="#F5F5F5"/>
<path d="M373.118 220.226C372.012 220.297 370.921 219.96 370.071 219.284C368.377 217.727 371.261 212.181 373.965 207.817C374.096 207.645 374.289 207.526 374.508 207.483C374.726 207.439 374.954 207.474 375.147 207.58C375.339 207.687 375.484 207.857 375.552 208.059C375.62 208.261 375.607 208.48 375.515 208.673C372.901 212.9 370.973 217.23 371.369 218.103C372.198 218.874 374.83 218.411 375.983 218.103C376.211 218.033 376.458 218.051 376.671 218.154C376.884 218.257 377.045 218.436 377.119 218.651C377.187 218.869 377.163 219.104 377.052 219.305C376.941 219.506 376.752 219.659 376.524 219.729C375.42 220.049 374.272 220.216 373.118 220.226Z" fill="#453232"/>
<path d="M382.573 207.612C383.4 207.499 383.935 206.512 383.768 205.408C383.6 204.304 382.793 203.501 381.965 203.614C381.138 203.727 380.603 204.714 380.77 205.818C380.938 206.922 381.745 207.725 382.573 207.612Z" fill="#453232"/>
<path d="M368.169 209.031C369.006 209.022 369.672 208.11 369.659 206.995C369.645 205.879 368.957 204.983 368.12 204.992C367.284 205.001 366.617 205.913 366.631 207.028C366.644 208.143 367.333 209.04 368.169 209.031Z" fill="#453232"/>
<path d="M372.739 235.972C372.739 235.972 384.005 237.547 390.205 233.508C390.205 233.508 384.221 248.193 373.748 247.525L372.739 235.972Z" fill="#453232"/>
<path d="M374.451 248.415H373.676C373.461 248.403 373.257 248.316 373.104 248.171C372.951 248.026 372.86 247.833 372.847 247.628L371.856 236.075C371.839 235.948 371.855 235.82 371.902 235.701C371.949 235.582 372.026 235.475 372.126 235.39C372.228 235.304 372.349 235.239 372.479 235.201C372.61 235.163 372.748 235.151 372.883 235.168C372.991 235.168 383.86 236.64 389.7 232.84C389.852 232.728 390.04 232.667 390.232 232.667C390.425 232.667 390.612 232.728 390.764 232.84C390.913 232.954 391.021 233.109 391.073 233.284C391.124 233.459 391.117 233.645 391.052 233.816C390.8 234.432 384.978 248.415 374.451 248.415ZM373.73 236.948L374.578 246.687C381.427 246.584 386.222 239.293 388.258 235.476C383.595 237.004 378.628 237.507 373.73 236.948Z" fill="#453232"/>
<path d="M366.322 252.917L364.592 260.584L409.6 253.67L406.121 245.249L366.322 252.917Z" fill="#F5F5F5"/>
<path d="M364.592 261.423C364.471 261.426 364.35 261.404 364.239 261.36C364.127 261.316 364.026 261.25 363.943 261.166C363.84 261.066 363.766 260.943 363.725 260.809C363.684 260.675 363.678 260.533 363.708 260.396L365.511 252.711C365.553 252.552 365.642 252.407 365.766 252.292C365.89 252.177 366.045 252.097 366.214 252.061L406.013 244.393C406.22 244.353 406.436 244.383 406.623 244.476C406.81 244.57 406.958 244.722 407.041 244.907L410.519 253.345C410.563 253.465 410.579 253.592 410.567 253.719C410.554 253.845 410.513 253.968 410.447 254.078C410.38 254.189 410.289 254.284 410.181 254.358C410.072 254.432 409.948 254.484 409.816 254.508L364.754 261.355L364.592 261.423ZM367.079 253.618L365.745 259.523L408.356 252.985L405.563 246.139L367.079 253.618Z" fill="#453232"/>
<path d="M372.126 232.07C371.786 232.065 371.45 232.001 371.135 231.882C367.205 230.427 368.882 223.615 369.098 222.844C369.145 222.65 369.263 222.478 369.431 222.358C369.6 222.239 369.808 222.181 370.017 222.194C377.425 222.519 377.498 222.673 377.75 223.272C378.002 223.871 376.344 229.177 374.415 231.026C374.127 231.337 373.776 231.59 373.383 231.769C372.989 231.949 372.562 232.051 372.126 232.07ZM370.684 223.94C370.288 225.891 369.945 229.605 371.784 230.29C371.93 230.341 372.087 230.357 372.241 230.336C372.395 230.315 372.542 230.258 372.667 230.17C374.181 229.28 375.443 225.84 375.875 224.265C374.794 224.162 372.703 224.043 370.684 223.94Z" fill="#453232"/>
<path d="M425.552 291.222C425.552 291.222 407.635 316.484 404.157 321.499C400.678 326.514 329.227 291.769 329.227 291.769L318.412 314.602C318.412 314.602 419.928 378.905 424.939 367.66C429.95 356.415 440.387 311.178 440.387 311.178" fill="#F29AA8"/>
<path d="M396.874 320.763C385.501 320.763 341.249 299.797 335.986 297.281C335.774 297.178 335.613 297 335.539 296.785C335.464 296.57 335.483 296.336 335.589 296.134C335.698 295.932 335.885 295.779 336.111 295.709C336.338 295.638 336.584 295.656 336.797 295.757C358.427 306.027 392.404 320.712 397.866 318.949C403.958 316.964 417.351 290.126 421.983 279.942C422.079 279.734 422.258 279.569 422.481 279.486C422.704 279.402 422.953 279.407 423.173 279.497C423.393 279.588 423.566 279.758 423.654 279.97C423.742 280.182 423.737 280.418 423.642 280.627C421.839 284.444 406.41 317.973 398.407 320.558C397.91 320.702 397.393 320.771 396.874 320.763Z" fill="#453232"/>
<path d="M406.464 360.129C383.031 360.129 322.359 318.316 319.601 316.399C319.505 316.332 319.424 316.249 319.362 316.153C319.301 316.057 319.259 315.95 319.241 315.839C319.222 315.727 319.227 315.614 319.255 315.504C319.283 315.395 319.333 315.292 319.403 315.201C319.473 315.11 319.561 315.033 319.662 314.974C319.763 314.915 319.876 314.876 319.993 314.858C320.11 314.841 320.23 314.846 320.345 314.872C320.46 314.898 320.569 314.946 320.665 315.012C321.386 315.509 392.891 364.836 410.465 357.802C416.486 355.388 437.016 324.512 444.424 312.822C444.548 312.63 444.745 312.492 444.975 312.438C445.204 312.384 445.446 312.417 445.65 312.531C445.754 312.587 445.845 312.663 445.917 312.754C445.99 312.844 446.042 312.948 446.07 313.059C446.099 313.169 446.104 313.284 446.084 313.396C446.065 313.508 446.021 313.616 445.957 313.712C444.857 315.423 418.919 356.261 411.168 359.376C409.668 359.922 408.069 360.178 406.464 360.129Z" fill="#453232"/>
<path d="M267.094 310.015C266.917 310.014 266.743 309.963 266.595 309.868C266.448 309.774 266.333 309.64 266.265 309.484C263.381 302.98 266.265 298.633 266.265 298.444C266.326 298.343 266.408 298.255 266.505 298.185C266.603 298.115 266.715 298.065 266.833 298.037C266.952 298.01 267.076 298.005 267.197 298.024C267.317 298.043 267.433 298.086 267.535 298.149C267.638 298.211 267.727 298.293 267.795 298.39C267.864 298.486 267.911 298.595 267.934 298.709C267.956 298.823 267.955 298.94 267.928 299.054C267.901 299.167 267.851 299.274 267.779 299.369C267.671 299.54 265.364 303.185 267.779 308.816C267.827 308.921 267.851 309.033 267.852 309.147C267.854 309.26 267.831 309.373 267.785 309.478C267.74 309.583 267.673 309.679 267.589 309.759C267.504 309.84 267.403 309.903 267.293 309.946C267.23 309.977 267.164 310 267.094 310.015Z" fill="#453232"/>
<path d="M144.975 257.059H102.346C97.2918 257.059 92.2992 258.112 87.7198 260.143C83.1404 262.173 79.0856 265.133 75.8411 268.812C72.5965 272.492 70.2411 276.803 68.9408 281.44C67.6404 286.078 67.4267 290.93 68.3148 295.655L98.8311 456.645H211.722L179.006 284.084C177.57 276.506 173.375 269.648 167.154 264.709C160.934 259.769 153.084 257.061 144.975 257.059Z" fill="#F5F5F5"/>
<path d="M211.722 457.552H98.8311C98.6177 457.555 98.41 457.486 98.2449 457.358C98.0799 457.229 97.9682 457.049 97.9298 456.85L67.4135 295.86C66.5139 291.014 66.7421 286.04 68.0822 281.287C69.4222 276.534 71.8415 272.117 75.1703 268.346C78.4992 264.575 82.6568 261.542 87.3515 259.459C92.0462 257.376 97.1641 256.294 102.346 256.288H144.975C153.296 256.285 161.354 259.061 167.737 264.13C174.12 269.199 178.422 276.238 179.89 284.016L212.695 456.542C212.719 456.665 212.714 456.792 212.68 456.913C212.647 457.034 212.586 457.147 212.502 457.243C212.418 457.339 212.312 457.417 212.193 457.47C212.074 457.523 211.944 457.551 211.812 457.552H211.722ZM99.5701 455.84H210.64L178.195 284.238C176.785 276.856 172.684 270.181 166.609 265.384C160.535 260.586 152.876 257.972 144.975 258H102.346C97.4163 257.998 92.5464 259.024 88.0802 261.006C83.614 262.987 79.6605 265.875 76.4988 269.467C73.3372 273.058 71.0447 277.265 69.7831 281.79C68.5216 286.315 68.3219 291.048 69.198 295.655L99.5701 455.84Z" fill="#453232"/>
<path d="M227.295 358.983C227.295 358.983 230.684 403.774 234.091 404.853C237.497 405.931 272.069 409.166 272.069 409.166L268.464 426.384C268.464 426.384 201.772 429.619 198.437 418.049C195.103 406.479 191.065 350.425 191.065 350.425L227.295 358.983Z" fill="#F5F5F5"/>
<path d="M248.078 427.634C227.818 427.634 199.843 426.179 197.5 418.203C194.111 406.667 190.29 352.752 190.11 350.459C190.094 350.327 190.114 350.193 190.168 350.071C190.221 349.948 190.307 349.84 190.416 349.757C190.524 349.67 190.652 349.607 190.789 349.575C190.927 349.542 191.071 349.54 191.209 349.569L227.512 358.127C227.696 358.168 227.862 358.266 227.982 358.405C228.103 358.544 228.172 358.717 228.178 358.897C229.783 379.864 232.559 402.491 234.469 404.048C237.083 404.87 262.57 407.369 272.16 408.276C272.287 408.285 272.412 408.32 272.524 408.379C272.636 408.438 272.733 408.52 272.808 408.618C272.881 408.717 272.931 408.828 272.956 408.946C272.981 409.064 272.979 409.185 272.953 409.303L269.348 426.521C269.305 426.705 269.202 426.871 269.053 426.994C268.903 427.117 268.716 427.192 268.518 427.206C266.157 427.274 258.046 427.634 248.078 427.634ZM191.984 351.52C192.579 359.633 196.166 407.3 199.194 417.741C201.808 426.59 248.781 426.299 267.689 425.494L271.024 409.85C265.22 409.303 237.011 406.598 233.838 405.589C230.666 404.579 227.782 376.612 226.466 359.599L191.984 351.52Z" fill="#453232"/>
<path d="M195.968 293.755C196.454 294.867 217.219 304.503 226.61 328.739C236.001 352.975 236.398 366.291 236.398 366.291H183.206L195.968 293.755Z" fill="#F29AA8"/>
<path d="M150.851 290.143C150.851 290.143 131.366 295.381 127.419 303.99C123.471 312.599 131.51 428.472 131.51 428.472L222.789 431.159C222.789 431.159 208.621 375.705 213.146 361.173C217.67 346.642 213.722 317.032 212.01 308.953C210.298 300.875 193.3 293.344 187.64 290.126C181.98 286.908 150.851 290.143 150.851 290.143Z" fill="#F29AA8"/>
<path d="M180.574 430.868H180.43C180.197 430.831 179.988 430.707 179.85 430.525C179.712 430.342 179.655 430.115 179.691 429.893C191.786 359.085 185.531 308.799 185.459 308.371C185.434 308.147 185.503 307.922 185.652 307.746C185.8 307.569 186.016 307.456 186.252 307.43C186.369 307.413 186.488 307.419 186.602 307.448C186.716 307.476 186.822 307.526 186.915 307.595C187.008 307.664 187.085 307.75 187.141 307.848C187.198 307.947 187.233 308.055 187.244 308.166C187.244 308.662 193.607 359.171 181.476 430.235C181.42 430.42 181.302 430.583 181.139 430.697C180.976 430.812 180.777 430.872 180.574 430.868Z" fill="#453232"/>
<path d="M156.457 261.149C156.259 260.773 156.024 260.242 155.736 259.438C154.853 257.281 153.05 256.015 151.969 253.909C149.896 250.093 150.635 246.447 150.419 242.373C150.082 237.272 151.131 232.174 153.465 227.568C154.354 225.537 155.86 223.803 157.791 222.588C158.766 222.014 159.908 221.749 161.052 221.832C162.196 221.916 163.282 222.342 164.154 223.05C163.706 222.002 163.585 220.855 163.805 219.744C164.026 218.633 164.579 217.606 165.397 216.785C167.067 215.173 169.11 213.954 171.364 213.225C174.772 211.766 178.443 210.941 182.179 210.795C184.054 210.736 185.923 211.035 187.675 211.672C189.427 212.31 191.027 213.275 192.381 214.509C194.922 217.025 195.986 220.534 197.788 223.529C199.591 226.524 203.196 229.246 206.693 228.287C209.541 227.534 211.163 224.727 212.244 222.108C212.948 224.421 213.042 226.863 212.517 229.218C211.992 231.573 210.864 233.769 209.234 235.613C211.672 234.77 213.869 233.399 215.651 231.608C215.599 234.469 214.438 237.211 212.389 239.31C209.985 241.424 207.151 243.049 204.061 244.085C202.385 244.77 200.762 245.043 200.096 246.567C199.429 248.09 200.222 250.332 199.537 252.061C198.435 254.914 196.757 257.536 194.598 259.78C191.134 263.144 186.621 265.358 181.728 266.096C176.854 266.815 171.884 266.693 167.056 265.736C164.519 265.378 162.075 264.578 159.846 263.374C157.575 262.108 157.214 262.587 156.457 261.149Z" fill="#F5F5F5"/>
<path d="M175.978 267.533C172.953 267.516 169.936 267.235 166.966 266.695C164.283 266.328 161.696 265.487 159.341 264.213C158.766 263.871 158.163 263.574 157.539 263.323C157.102 263.182 156.701 262.957 156.36 262.662C156.019 262.368 155.745 262.01 155.556 261.611C155.27 261.055 155.018 260.483 154.799 259.9C154.301 258.855 153.652 257.881 152.87 257.007C152.187 256.218 151.584 255.37 151.068 254.474C149.738 251.693 149.185 248.634 149.463 245.591C149.463 244.616 149.463 243.606 149.463 242.562C149.137 237.312 150.222 232.07 152.618 227.329C153.59 225.148 155.221 223.29 157.304 221.989C158.113 221.539 159.009 221.251 159.939 221.142C160.869 221.034 161.812 221.106 162.712 221.355C162.706 219.518 163.404 217.742 164.676 216.358C166.445 214.64 168.611 213.339 171.003 212.558C174.547 211.063 178.358 210.221 182.233 210.076C184.224 210.024 186.207 210.349 188.064 211.034C189.921 211.719 191.616 212.749 193.048 214.064C194.665 215.844 195.968 217.861 196.905 220.037C197.446 221.116 198.005 222.228 198.708 223.255C200.366 225.925 203.538 228.39 206.567 227.62C208.567 227.072 210.172 225.275 211.505 221.954C211.574 221.784 211.699 221.638 211.861 221.54C212.023 221.441 212.214 221.395 212.407 221.407C212.599 221.41 212.784 221.472 212.937 221.583C213.089 221.694 213.2 221.848 213.254 222.023C214.414 225.874 213.983 230 212.046 233.559C213.163 232.891 214.187 232.091 215.092 231.18C215.219 231.047 215.385 230.955 215.569 230.915C215.753 230.875 215.945 230.89 216.12 230.957C216.289 231.027 216.434 231.141 216.536 231.287C216.639 231.433 216.694 231.604 216.697 231.779C216.665 234.864 215.417 237.825 213.2 240.08C210.708 242.285 207.771 243.985 204.566 245.078L203.502 245.471C202.186 245.951 201.429 246.242 201.069 247.063C200.84 247.83 200.772 248.633 200.871 249.425C200.98 250.475 200.864 251.535 200.528 252.54C199.39 255.502 197.65 258.224 195.409 260.55C191.803 264.052 187.109 266.362 182.016 267.14C180.02 267.441 177.999 267.573 175.978 267.533ZM157.286 260.687C157.611 261.32 157.701 261.355 158.386 261.646C159.064 261.933 159.72 262.265 160.35 262.638C162.511 263.799 164.884 264.56 167.344 264.881C172.052 265.824 176.902 265.946 181.656 265.24C186.354 264.54 190.69 262.421 194.021 259.198C196.101 257.04 197.717 254.516 198.78 251.77C199.006 250.973 199.073 250.143 198.978 249.322C198.863 248.283 198.985 247.232 199.338 246.242C199.683 245.592 200.176 245.023 200.781 244.576C201.385 244.129 202.087 243.815 202.835 243.657L203.809 243.298C206.773 242.291 209.499 240.738 211.83 238.728C213.114 237.398 214.031 235.787 214.498 234.038C213.031 235.141 211.388 236.014 209.631 236.623C209.436 236.69 209.222 236.694 209.024 236.634C208.827 236.573 208.655 236.453 208.538 236.29C208.42 236.127 208.363 235.932 208.375 235.735C208.387 235.538 208.467 235.351 208.603 235.202C211.074 232.398 212.273 228.779 211.938 225.138C211.45 226.109 210.764 226.978 209.919 227.695C209.075 228.412 208.088 228.963 207.017 229.314C203.034 230.392 199.14 227.5 197.049 224.179C196.364 223.084 195.806 221.92 195.247 220.756C194.365 218.752 193.148 216.897 191.642 215.262C190.382 214.12 188.894 213.228 187.266 212.64C185.637 212.052 183.902 211.78 182.161 211.839C178.534 211.989 174.969 212.784 171.652 214.184C169.523 214.895 167.597 216.067 166.028 217.607C165.344 218.303 164.877 219.167 164.679 220.101C164.482 221.035 164.562 222.003 164.911 222.896C165.012 223.083 165.039 223.299 164.986 223.503C164.933 223.708 164.804 223.887 164.622 224.008C164.44 224.127 164.219 224.181 163.999 224.162C163.779 224.143 163.572 224.053 163.415 223.906C162.692 223.331 161.795 222.992 160.854 222.936C159.914 222.881 158.979 223.113 158.187 223.597C156.409 224.716 155.032 226.322 154.24 228.202C152.053 232.635 151.08 237.522 151.41 242.408C151.41 243.469 151.41 244.513 151.41 245.54C151.159 248.296 151.643 251.069 152.816 253.601C153.277 254.403 153.82 255.16 154.438 255.861C155.336 256.864 156.071 257.989 156.619 259.198C156.908 259.9 157.124 260.396 157.304 260.756L157.286 260.687Z" fill="#453232"/>
<path d="M193.21 283.383L195.012 294.474C195.012 294.474 193.21 310.597 180.34 307.772C176.463 306.844 172.844 305.128 169.732 302.743C166.621 300.359 164.09 297.362 162.315 293.96L160.675 264.675C160.675 264.675 170.12 259.78 167.146 240.234C177.69 244.421 189.23 245.829 200.546 244.307C200.546 244.307 205.124 264.453 203.664 273.883C203.438 276.404 202.252 278.759 200.327 280.508C198.402 282.257 195.872 283.279 193.21 283.383Z" fill="#F5F5F5"/>
<path d="M183.242 308.988C182.192 308.981 181.145 308.861 180.124 308.628C176.116 307.671 172.377 305.893 169.17 303.418C165.962 300.944 163.364 297.832 161.558 294.302C161.538 294.201 161.538 294.096 161.558 293.994L159.936 264.726C159.923 264.559 159.963 264.392 160.049 264.246C160.136 264.1 160.266 263.982 160.423 263.905C160.423 263.905 169.237 258.959 166.407 240.354C166.38 240.194 166.402 240.031 166.469 239.883C166.536 239.734 166.645 239.607 166.785 239.515C166.927 239.435 167.089 239.393 167.254 239.393C167.419 239.393 167.581 239.435 167.723 239.515C178.081 243.599 189.399 244.988 200.51 243.537C200.746 243.507 200.985 243.562 201.179 243.692C201.373 243.823 201.508 244.018 201.556 244.239C201.736 245.061 206.134 264.624 204.674 274.106C204.433 276.658 203.281 279.055 201.409 280.901C199.538 282.747 197.058 283.93 194.382 284.255L196.022 294.422C196.04 294.495 196.04 294.572 196.022 294.645C196.022 295.004 194.958 303.494 189.335 307.293C187.545 308.458 185.411 309.051 183.242 308.988ZM163.415 293.738C165.141 296.965 167.57 299.808 170.541 302.077C173.512 304.346 176.956 305.99 180.647 306.9C181.924 307.256 183.268 307.34 184.583 307.145C185.898 306.949 187.152 306.48 188.253 305.77C192.886 302.638 194.039 295.5 194.165 294.474L192.363 283.52C192.342 283.395 192.351 283.267 192.388 283.146C192.425 283.024 192.491 282.912 192.579 282.818C192.667 282.723 192.775 282.646 192.896 282.593C193.017 282.54 193.149 282.512 193.282 282.51C195.721 282.405 198.035 281.458 199.79 279.848C201.546 278.237 202.622 276.074 202.817 273.764C204.079 265.651 200.708 249.117 199.879 245.317C189.243 246.568 178.446 245.31 168.444 241.655C170.48 258 163.757 263.802 161.792 265.137L163.415 293.738Z" fill="#453232"/>
<path d="M186.631 256.117C186.631 256.117 192.723 266.729 190.885 268.321C189.046 269.913 184.45 268.321 184.45 268.321" fill="#F5F5F5"/>
<path d="M188.325 269.981C186.905 269.948 185.499 269.7 184.161 269.245C183.938 269.171 183.754 269.016 183.649 268.815C183.545 268.613 183.528 268.38 183.603 268.167C183.684 267.953 183.851 267.778 184.066 267.679C184.281 267.58 184.529 267.565 184.756 267.636C186.342 268.167 189.226 268.68 190.272 267.773C190.849 266.952 188.776 261.731 185.838 256.614C185.723 256.414 185.697 256.179 185.764 255.961C185.832 255.743 185.988 255.559 186.198 255.45C186.409 255.341 186.656 255.316 186.886 255.38C187.116 255.444 187.309 255.592 187.424 255.792C189.821 259.985 193.552 267.26 191.498 269.04C190.6 269.717 189.469 270.052 188.325 269.981Z" fill="#453232"/>
<path d="M180.705 256.914C181.401 256.886 181.911 255.638 181.844 254.127C181.777 252.616 181.159 251.414 180.462 251.442C179.766 251.469 179.256 252.717 179.323 254.228C179.39 255.739 180.009 256.942 180.705 256.914Z" fill="#453232"/>
<path d="M196.824 257.532C197.52 257.506 198.034 256.258 197.97 254.746C197.906 253.234 197.29 252.029 196.593 252.055C195.896 252.082 195.383 253.329 195.447 254.842C195.51 256.354 196.127 257.559 196.824 257.532Z" fill="#453232"/>
<path d="M169.002 259.712C167.865 257.871 166.366 256.256 164.586 254.953C163.67 254.184 162.523 253.705 161.306 253.584C160.302 253.58 159.319 253.854 158.476 254.372C157.213 255.077 156.12 256.026 155.27 257.158C154.419 258.291 153.828 259.581 153.537 260.944C153.257 262.209 153.312 263.521 153.699 264.761C154.427 266.677 155.836 268.293 157.683 269.331C159.525 270.341 161.485 271.145 163.523 271.727" fill="#F5F5F5"/>
<path d="M163.523 272.531C163.427 272.548 163.33 272.548 163.234 272.531C161.122 271.911 159.095 271.055 157.196 269.981C155.154 268.837 153.598 267.051 152.798 264.932C152.38 263.551 152.325 262.094 152.636 260.687C152.958 259.199 153.606 257.792 154.537 256.556C155.469 255.321 156.663 254.285 158.043 253.516C159.035 252.92 160.186 252.605 161.36 252.609C162.771 252.747 164.104 253.29 165.181 254.166C167.052 255.538 168.625 257.241 169.814 259.181C169.901 259.38 169.909 259.602 169.837 259.807C169.765 260.011 169.617 260.184 169.421 260.292C169.225 260.401 168.995 260.439 168.772 260.398C168.549 260.357 168.349 260.241 168.209 260.071C167.129 258.337 165.71 256.815 164.028 255.587C163.254 254.936 162.294 254.519 161.27 254.389C160.441 254.4 159.634 254.637 158.944 255.073C157.797 255.714 156.804 256.577 156.03 257.606C155.257 258.635 154.721 259.808 154.456 261.047C154.2 262.18 154.243 263.356 154.582 264.47C155.248 266.184 156.523 267.625 158.187 268.543C159.969 269.515 161.862 270.29 163.829 270.854C163.946 270.89 164.055 270.949 164.148 271.026C164.241 271.103 164.316 271.197 164.37 271.303C164.424 271.408 164.455 271.523 164.461 271.64C164.467 271.757 164.448 271.874 164.406 271.984C164.336 272.15 164.213 272.292 164.055 272.39C163.897 272.488 163.711 272.537 163.523 272.531Z" fill="#453232"/>
<path d="M193.21 283.383C185.835 284.442 178.297 283.243 171.688 279.959C171.688 279.959 182.665 295.98 194.904 293.652L193.21 283.383Z" fill="#453232"/>
<path d="M192.489 294.85C180.917 294.85 171.364 281.158 170.859 280.49C170.74 280.339 170.676 280.156 170.676 279.968C170.676 279.78 170.74 279.597 170.859 279.446C170.989 279.307 171.164 279.213 171.357 279.179C171.549 279.145 171.748 279.173 171.922 279.258C178.363 282.426 185.696 283.577 192.868 282.544C193.112 282.505 193.362 282.553 193.57 282.681C193.672 282.749 193.757 282.835 193.822 282.935C193.887 283.035 193.93 283.147 193.949 283.263L195.625 293.652C195.658 293.871 195.601 294.094 195.467 294.275C195.334 294.456 195.132 294.582 194.904 294.628C194.108 294.768 193.299 294.843 192.489 294.85ZM174.464 282.15C178.069 286.326 185.658 293.977 193.877 293.07L192.471 284.375C186.367 285.096 180.17 284.33 174.464 282.15Z" fill="#453232"/>
<path d="M176.933 264.025C174.883 264.028 172.877 263.454 171.17 262.374C169.464 261.295 168.132 259.759 167.345 257.961C166.558 256.163 166.35 254.184 166.748 252.274C167.146 250.364 168.132 248.608 169.58 247.23C171.029 245.852 172.876 244.913 174.887 244.532C176.898 244.151 178.983 244.345 180.877 245.089C182.772 245.834 184.392 247.095 185.532 248.714C186.671 250.333 187.28 252.236 187.28 254.183C187.28 256.79 186.19 259.291 184.25 261.136C182.311 262.981 179.679 264.02 176.933 264.025ZM176.933 246.122C175.249 246.118 173.602 246.59 172.2 247.476C170.798 248.362 169.705 249.624 169.059 251.101C168.413 252.578 168.243 254.203 168.57 255.772C168.898 257.341 169.709 258.782 170.899 259.913C172.09 261.044 173.608 261.813 175.26 262.125C176.912 262.436 178.624 262.274 180.18 261.661C181.735 261.047 183.063 260.009 183.997 258.678C184.93 257.347 185.427 255.782 185.423 254.183C185.418 252.047 184.522 249.999 182.931 248.488C181.34 246.977 179.184 246.126 176.933 246.122Z" fill="#453232"/>
<path d="M197.266 264.025C195.216 264.025 193.212 263.448 191.507 262.366C189.803 261.285 188.475 259.748 187.69 257.949C186.906 256.151 186.7 254.172 187.1 252.263C187.5 250.354 188.487 248.601 189.937 247.224C191.386 245.848 193.233 244.911 195.244 244.531C197.254 244.151 199.338 244.346 201.232 245.091C203.126 245.836 204.744 247.097 205.883 248.716C207.022 250.334 207.63 252.237 207.63 254.183C207.63 256.793 206.538 259.297 204.594 261.142C202.651 262.988 200.014 264.025 197.266 264.025ZM197.266 246.122C195.581 246.118 193.934 246.59 192.532 247.476C191.13 248.362 190.037 249.624 189.391 251.101C188.745 252.578 188.575 254.203 188.902 255.772C189.23 257.341 190.041 258.782 191.232 259.913C192.423 261.044 193.94 261.813 195.592 262.125C197.244 262.436 198.956 262.274 200.512 261.661C202.067 261.047 203.396 260.009 204.329 258.678C205.263 257.347 205.759 255.782 205.755 254.183C205.751 252.047 204.855 249.999 203.264 248.488C201.672 246.977 199.516 246.126 197.266 246.122Z" fill="#453232"/>
<path d="M187.839 274.157L182.431 271.658C182.431 271.658 181.025 275.903 183.278 276.793C185.531 277.683 187.839 274.157 187.839 274.157Z" fill="#453232"/>
<path d="M183.981 277.82C183.591 277.817 183.205 277.742 182.846 277.597C179.926 276.434 181.332 271.915 181.494 271.402C181.537 271.286 181.603 271.179 181.69 271.088C181.777 270.997 181.881 270.923 181.998 270.871C182.117 270.82 182.246 270.794 182.377 270.794C182.507 270.794 182.637 270.82 182.755 270.871L188.163 273.37C188.278 273.423 188.38 273.5 188.461 273.595C188.542 273.689 188.6 273.799 188.632 273.918C188.68 274.026 188.705 274.142 188.705 274.26C188.705 274.378 188.68 274.494 188.632 274.602C188.361 274.996 186.379 277.82 183.981 277.82ZM182.972 272.891C182.737 274.106 182.683 275.681 183.549 276.023C184.414 276.365 185.694 275.355 186.469 274.482L182.972 272.891Z" fill="#453232"/>
<path d="M188.794 428.917H312.085V421.54H188.794V428.917Z" fill="#F5F5F5"/>
<path d="M312.085 429.756H188.794C188.555 429.756 188.326 429.666 188.157 429.505C187.988 429.345 187.893 429.127 187.893 428.9V421.523C187.897 421.298 187.994 421.083 188.162 420.923C188.33 420.763 188.556 420.672 188.794 420.668H312.085C312.322 420.672 312.549 420.763 312.717 420.923C312.885 421.083 312.981 421.298 312.986 421.523V428.9C312.986 429.127 312.891 429.345 312.722 429.505C312.553 429.666 312.324 429.756 312.085 429.756ZM189.695 428.044H311.184V422.311H189.695V428.044Z" fill="#453232"/>
<path d="M115.594 357.939C115.594 357.939 107.087 421.267 111.773 426.401C116.46 431.536 200.853 420.051 209.793 419.641C218.733 419.23 236.362 424.382 235.929 415.499C235.497 406.616 212.821 405.948 206.873 408.772C200.925 411.596 142.812 407.061 142.812 407.061L144.506 357.921L115.594 357.939Z" fill="#F5F5F5"/>
<path d="M121.759 428.678C115.721 428.678 112.097 428.147 111.07 426.966C106.275 421.592 113.828 364.306 114.675 357.802C114.705 357.594 114.813 357.404 114.978 357.266C115.144 357.128 115.356 357.051 115.576 357.048H144.416C144.66 357.049 144.893 357.141 145.065 357.305C145.15 357.389 145.217 357.488 145.26 357.597C145.304 357.706 145.323 357.822 145.318 357.939L143.641 406.256C160.35 407.54 201.772 410.21 206.386 407.968C211.001 405.726 225.24 405.537 232.432 409.525C233.629 410.068 234.656 410.899 235.412 411.935C236.168 412.97 236.625 414.175 236.74 415.43C236.816 416.189 236.713 416.954 236.439 417.671C236.165 418.387 235.726 419.037 235.154 419.572C232.072 422.345 225.15 421.643 218.445 420.976C215.559 420.615 212.65 420.444 209.739 420.462C207.558 420.565 200.564 421.369 191.714 422.379C158.62 426.281 134.683 428.678 121.759 428.678ZM116.351 358.794C112.981 384.091 109.141 422.294 112.422 425.905C115.702 429.516 168.84 423.372 191.552 420.77C200.799 419.709 207.468 418.939 209.703 418.836C212.716 418.812 215.728 418.99 218.715 419.367C224.718 419.966 231.513 420.633 234.001 418.408C234.382 418.04 234.671 417.595 234.846 417.106C235.021 416.617 235.077 416.097 235.01 415.584C234.903 414.617 234.531 413.694 233.929 412.907C233.328 412.12 232.52 411.497 231.585 411.1C225.186 407.523 211.541 407.557 207.269 409.594C201.249 412.435 148.688 408.396 142.722 407.882C142.491 407.869 142.274 407.77 142.119 407.607C141.964 407.443 141.883 407.229 141.893 407.009L143.551 358.76L116.351 358.794Z" fill="#453232"/>
<path d="M253.522 353.42H329.443L311.598 421.677H235.677L253.522 353.42Z" fill="#F5F5F5"/>
<path d="M311.598 422.533H235.677C235.537 422.531 235.4 422.499 235.276 422.439C235.151 422.38 235.042 422.295 234.956 422.191C234.878 422.088 234.823 421.972 234.795 421.848C234.767 421.724 234.766 421.596 234.794 421.472L252.656 353.215C252.701 353.029 252.812 352.864 252.969 352.745C253.126 352.627 253.321 352.563 253.522 352.564H329.443C329.579 352.564 329.712 352.593 329.834 352.649C329.956 352.705 330.063 352.788 330.146 352.889C330.233 352.991 330.293 353.111 330.321 353.239C330.349 353.367 330.345 353.499 330.308 353.625L312.463 421.883C312.418 422.068 312.308 422.234 312.151 422.352C311.994 422.47 311.799 422.534 311.598 422.533ZM236.83 420.822H310.895L328.289 354.276H254.153L236.83 420.822Z" fill="#453232"/>
<path d="M137.387 298.735C136.954 298.992 129.654 300.926 129.275 301.337C122.336 308.474 118.46 313.472 115.594 322.68C111.858 335.451 109.716 348.595 109.213 361.841C109.213 361.841 137.711 371.546 150.04 365.829C150.04 365.829 157.25 317.374 150.04 304.058C147.445 299.317 143.371 295.021 137.387 298.735Z" fill="#F29AA8"/>
<path d="M150.959 359.77H150.761C150.646 359.748 150.536 359.704 150.439 359.64C150.341 359.577 150.258 359.496 150.194 359.402C150.131 359.308 150.087 359.203 150.067 359.092C150.047 358.982 150.05 358.869 150.076 358.76C150.184 358.281 160.747 311.538 147.679 302.022C147.494 301.88 147.374 301.677 147.344 301.453C147.314 301.23 147.376 301.005 147.517 300.823C147.663 300.645 147.877 300.528 148.114 300.499C148.35 300.47 148.589 300.531 148.778 300.669C162.748 310.836 152.293 357.151 151.843 359.119C151.794 359.306 151.68 359.472 151.52 359.59C151.36 359.708 151.162 359.772 150.959 359.77Z" fill="#453232"/>
<path d="M212.298 367.147H212.154C212.037 367.128 211.924 367.088 211.824 367.028C211.723 366.967 211.636 366.889 211.567 366.797C211.498 366.704 211.449 366.6 211.423 366.49C211.397 366.379 211.395 366.265 211.415 366.154C211.415 365.795 218.139 329.099 211.415 314.978C211.358 314.875 211.323 314.761 211.314 314.645C211.305 314.528 211.32 314.411 211.36 314.301C211.4 314.19 211.464 314.089 211.547 314.003C211.63 313.916 211.73 313.847 211.842 313.799C211.954 313.751 212.076 313.725 212.199 313.724C212.322 313.722 212.444 313.744 212.558 313.789C212.671 313.833 212.774 313.9 212.86 313.984C212.945 314.067 213.012 314.167 213.055 314.276C219.923 328.876 213.398 364.922 213.055 366.445C213.026 366.624 212.936 366.789 212.8 366.915C212.663 367.042 212.488 367.123 212.298 367.147Z" fill="#453232"/>
<path d="M546.734 428.9H56.941V439.751H546.734V428.9Z" fill="#F5F5F5"/>
<path d="M546.734 440.607H56.941C56.7034 440.603 56.4768 440.511 56.3088 440.352C56.1408 440.192 56.0443 439.977 56.0397 439.751V428.9C56.0443 428.675 56.1408 428.459 56.3088 428.3C56.4768 428.14 56.7034 428.049 56.941 428.044H546.734C546.973 428.044 547.203 428.135 547.372 428.295C547.541 428.456 547.636 428.673 547.636 428.9V439.751C547.636 439.978 547.541 440.196 547.372 440.357C547.203 440.517 546.973 440.607 546.734 440.607ZM57.8422 438.896H545.833V429.756H57.8422V438.896Z" fill="#453232"/>
<path d="M535.937 439.751H67.756V456.833H535.937V439.751Z" fill="#F5F5F5"/>
<path d="M535.937 457.689H67.756C67.517 457.689 67.2877 457.599 67.1187 457.438C66.9497 457.278 66.8547 457.06 66.8547 456.833V439.717C66.8547 439.49 66.9497 439.273 67.1187 439.112C67.2877 438.952 67.517 438.861 67.756 438.861H535.937C536.176 438.861 536.406 438.952 536.575 439.112C536.744 439.273 536.839 439.49 536.839 439.717V456.833C536.839 457.06 536.744 457.278 536.575 457.438C536.406 457.599 536.176 457.689 535.937 457.689ZM68.6572 455.977H535.036V440.573H68.6572V455.977Z" fill="#453232"/>
<path d="M339.825 223.906C339.69 223.908 339.555 223.879 339.433 223.823C339.311 223.766 339.204 223.683 339.122 223.58C314.032 194.159 302.207 174.595 302.045 162.152H287.373C272.868 162.152 258.958 156.681 248.702 146.943C238.446 137.204 232.685 123.996 232.685 110.223C232.685 96.4508 238.446 83.2424 248.702 73.5038C258.958 63.7653 272.868 58.2942 287.373 58.2942H352.893C367.398 58.2942 381.308 63.7653 391.564 73.5038C401.82 83.2424 407.581 96.4508 407.581 110.223C407.581 123.996 401.82 137.204 391.564 146.943C381.308 156.681 367.398 162.152 352.893 162.152H316.843C312.662 188.972 340.186 222.057 340.6 222.502C340.748 222.679 340.815 222.905 340.788 223.129C340.761 223.354 340.642 223.559 340.456 223.7C340.28 223.841 340.055 223.915 339.825 223.906ZM287.373 60.0229C273.347 60.0229 259.895 65.3136 249.977 74.7312C240.059 84.1488 234.487 96.9218 234.487 110.24C234.487 123.559 240.059 136.332 249.977 145.749C259.895 155.167 273.347 160.458 287.373 160.458H302.964C303.208 160.458 303.441 160.551 303.613 160.714C303.774 160.883 303.864 161.103 303.865 161.331C303.541 170.881 310.913 185.293 326.847 205.831C326.325 204.924 325.784 204 325.261 203.042C319.205 192.002 312.536 175.793 315.113 161.228C315.148 161.03 315.256 160.85 315.418 160.722C315.58 160.593 315.785 160.524 315.996 160.526H352.893C366.92 160.526 380.371 155.235 390.289 145.818C400.207 136.4 405.779 123.627 405.779 110.309C405.779 96.9903 400.207 84.2173 390.289 74.7997C380.371 65.3821 366.92 60.0913 352.893 60.0913L287.373 60.0229Z" fill="#453232"/>
<path d="M586.84 257.059H629.469C634.522 257.062 639.513 258.117 644.091 260.148C648.669 262.18 652.722 265.14 655.966 268.819C659.21 272.498 661.566 276.807 662.867 281.443C664.169 286.08 664.385 290.93 663.5 295.655L632.984 456.645H520.075L552.809 284.033C554.253 276.463 558.452 269.615 564.672 264.685C570.892 259.755 578.738 257.056 586.84 257.059Z" fill="#F5F5F5"/>
<path d="M632.984 457.552H520.075C519.944 457.552 519.815 457.524 519.696 457.471C519.578 457.418 519.473 457.34 519.39 457.244C519.296 457.151 519.224 457.041 519.177 456.92C519.131 456.799 519.111 456.67 519.12 456.542L551.835 283.93C553.325 276.154 557.648 269.123 564.048 264.07C570.448 259.016 578.516 256.261 586.84 256.288H629.469C634.66 256.288 639.789 257.369 644.492 259.457C649.195 261.544 653.358 264.586 656.688 268.368C660.018 272.15 662.433 276.58 663.762 281.345C665.092 286.11 665.304 291.094 664.383 295.945L633.867 456.936C633.815 457.118 633.699 457.278 633.538 457.39C633.378 457.501 633.183 457.559 632.984 457.552ZM521.229 455.84H632.299L662.671 295.552C663.547 290.947 663.348 286.215 662.087 281.692C660.827 277.168 658.536 272.962 655.376 269.371C652.216 265.78 648.265 262.891 643.801 260.908C639.337 258.926 634.469 257.898 629.541 257.897H586.84C578.939 257.892 571.289 260.527 565.229 265.34C559.168 270.153 555.084 276.837 553.692 284.221L521.229 455.84Z" fill="#453232"/>
<path d="M604.811 433.436C604.811 433.436 602.432 449.918 594.212 456.696H485.702C485.702 456.696 518.615 425.888 530.043 421.523C541.471 417.159 604.811 433.436 604.811 433.436Z" fill="#453232"/>
<path d="M594.212 457.552H485.702C485.521 457.554 485.343 457.505 485.192 457.41C485.041 457.316 484.923 457.18 484.854 457.021C484.791 456.865 484.776 456.695 484.811 456.531C484.846 456.368 484.93 456.217 485.053 456.097C486.405 454.83 518.255 425.152 529.719 420.736C541.183 416.32 602.45 431.947 605.045 432.614C605.255 432.67 605.436 432.796 605.555 432.969C605.675 433.142 605.724 433.351 605.694 433.556C605.694 434.24 603.171 450.432 594.879 457.346C594.788 457.421 594.682 457.478 594.568 457.513C594.453 457.548 594.332 457.562 594.212 457.552ZM487.865 455.84H593.816C600.521 450.055 603.171 437.287 603.747 434.069C596.447 432.221 540.66 418.357 530.332 422.328C520.67 426.059 494.606 449.696 487.919 455.84H487.865Z" fill="#453232"/>
<path d="M455.492 406.359C455.348 406.53 445.181 405.845 439.107 408.909C433.033 411.973 423.407 417.21 426.796 419.743C430.185 422.276 459.638 420.103 461.945 418.408C464.252 416.714 455.492 406.359 455.492 406.359Z" fill="#F5F5F5"/>
<path d="M437.286 421.712C431.879 421.712 427.463 421.335 426.237 420.428C425.882 420.188 425.599 419.865 425.416 419.49C425.232 419.115 425.155 418.701 425.192 418.288C425.426 415.841 429.59 412.726 438.692 408.139C443.794 405.571 451.508 405.554 454.41 405.537H455.275C455.352 405.519 455.433 405.519 455.51 405.537C455.643 405.537 455.774 405.566 455.893 405.622C456.012 405.679 456.115 405.761 456.195 405.862C457.438 407.317 463.603 414.763 463.224 417.843C463.202 418.09 463.126 418.33 463.002 418.548C462.878 418.765 462.708 418.957 462.503 419.11C460.665 420.428 447.326 421.712 437.286 421.712ZM455.095 407.249H454.41C451.634 407.249 444.244 407.249 439.522 409.662C428.833 415.036 427.084 417.467 426.904 418.442C426.904 418.614 426.904 418.819 427.265 419.076C428.292 419.863 434.042 420.394 444.569 419.812C454.158 419.298 460.557 418.254 461.314 417.724C462.071 417.193 459.421 412.418 455.095 407.249Z" fill="#453232"/>
<path d="M536.262 297.469C536.262 297.469 522.22 303.254 500.807 381.216C499.004 387.532 446.984 406.188 446.984 406.188L461.404 416.697C461.404 416.697 526.727 424.159 541.723 407.882C556.72 391.605 536.262 297.469 536.262 297.469Z" fill="#F29AA8"/>
<path d="M536.262 297.469C536.262 297.469 528.655 325.402 534.369 355.234C540.083 385.067 520.075 425.22 520.075 425.22C520.075 425.22 566.724 453.307 608.614 431.622C608.614 431.622 610.993 327.216 595.762 308.68C580.531 290.143 559.118 275.407 536.262 297.469Z" fill="#F29AA8"/>
<path d="M542.769 295.483L546.734 357.939L570.203 291.581L542.769 295.483Z" fill="#453232"/>
<path d="M546.734 358.794H546.626C546.418 358.771 546.225 358.68 546.081 358.536C545.936 358.392 545.848 358.205 545.833 358.007L541.868 295.552C541.852 295.34 541.921 295.13 542.061 294.965C542.202 294.8 542.403 294.692 542.625 294.662L570.077 290.759C570.23 290.736 570.386 290.751 570.531 290.802C570.677 290.853 570.806 290.938 570.906 291.05C571.002 291.164 571.067 291.299 571.095 291.442C571.123 291.585 571.114 291.733 571.068 291.872L547.636 358.229C547.565 358.4 547.441 358.546 547.279 358.648C547.118 358.749 546.928 358.8 546.734 358.794ZM543.706 296.219L547.311 353.488L568.833 292.642L543.706 296.219Z" fill="#453232"/>
<path d="M496.048 405.845C496.048 405.845 475.824 400.882 471.534 402.422C467.244 403.963 451.31 410.022 452.734 415.755C454.158 421.489 453.437 420.736 464.396 420.274C475.355 419.812 498.427 419.846 498.427 419.846L496.048 405.845Z" fill="#F5F5F5"/>
<path d="M457.33 421.472C453.545 421.472 452.986 420.616 452.031 416.731L451.851 415.995C450.769 411.63 457.258 406.804 471.21 401.669C475.626 399.958 494.173 404.51 496.264 405.092C496.434 405.131 496.589 405.217 496.707 405.338C496.826 405.46 496.904 405.613 496.931 405.777L499.311 419.829C499.329 419.95 499.321 420.073 499.286 420.191C499.252 420.309 499.193 420.418 499.112 420.513C499.025 420.604 498.92 420.677 498.802 420.727C498.684 420.777 498.556 420.803 498.427 420.804C498.193 420.804 475.229 420.804 464.432 421.232L460.953 421.403C459.493 421.403 458.304 421.472 457.33 421.472ZM474.094 403.004C473.338 402.966 472.582 403.053 471.858 403.261C459.457 407.848 452.788 412.332 453.617 415.601L453.797 416.337C454.681 419.949 454.681 419.949 460.845 419.623L464.45 419.452C473.949 419.059 492.785 419.042 497.454 419.024L495.345 406.547C488.568 404.921 478.834 403.004 474.057 403.004H474.094Z" fill="#453232"/>
<path d="M571.969 311.846C571.969 311.846 578.152 382.808 571.969 384.16L489.379 402.063L494.137 421.523C494.137 421.523 550.538 429.807 583.866 416.252C617.194 402.696 618.618 325.847 601.476 306.865C584.334 287.884 573.393 301.902 571.969 311.846Z" fill="#F29AA8"/>
<path d="M491.992 421.523H401.958V428.9H491.992V421.523Z" fill="#F5F5F5"/>
<path d="M492.082 429.756H401.957C401.718 429.756 401.489 429.666 401.32 429.505C401.151 429.345 401.056 429.127 401.056 428.9V421.523C401.056 421.296 401.151 421.079 401.32 420.918C401.489 420.758 401.718 420.668 401.957 420.668H492.082C492.322 420.668 492.551 420.758 492.72 420.918C492.889 421.079 492.984 421.296 492.984 421.523V428.9C492.984 429.127 492.889 429.345 492.72 429.505C492.551 429.666 492.322 429.756 492.082 429.756ZM402.949 428.044H491.181V422.311H402.859L402.949 428.044Z" fill="#453232"/>
<path d="M401.944 421.928L361.827 345.391L354.872 348.678L394.989 425.215L401.944 421.928Z" fill="#F5F5F5"/>
<path d="M395.018 426.076C394.923 426.094 394.825 426.094 394.729 426.076C394.616 426.043 394.511 425.987 394.421 425.914C394.331 425.84 394.258 425.75 394.207 425.648L354.083 349.055C353.993 348.847 353.993 348.613 354.083 348.405C354.118 348.297 354.177 348.198 354.254 348.112C354.332 348.027 354.427 347.958 354.534 347.909L361.491 344.622C361.598 344.573 361.714 344.544 361.832 344.537C361.95 344.529 362.069 344.545 362.181 344.581C362.293 344.618 362.397 344.675 362.486 344.75C362.575 344.824 362.647 344.915 362.699 345.016L402.823 421.557C402.924 421.762 402.937 421.996 402.859 422.21C402.782 422.424 402.62 422.601 402.408 422.704L395.468 425.99C395.327 426.05 395.173 426.079 395.018 426.076ZM356.102 349.055L395.414 424.022L400.822 421.489L361.509 346.488L356.102 349.055Z" fill="#453232"/>
<path d="M492.083 402.354C491.879 402.354 491.683 402.288 491.525 402.166C491.367 402.044 491.259 401.875 491.217 401.686C491.163 401.466 491.203 401.235 491.328 401.042C491.453 400.85 491.653 400.712 491.884 400.659C519.354 394.806 561.172 384.827 563.768 381.301C566.364 377.776 569.878 340.806 571.573 316.878C571.58 316.766 571.61 316.657 571.662 316.556C571.714 316.456 571.787 316.366 571.876 316.293C571.965 316.22 572.068 316.164 572.18 316.129C572.292 316.094 572.411 316.081 572.528 316.091C572.647 316.097 572.762 316.126 572.869 316.175C572.976 316.224 573.071 316.293 573.15 316.377C573.229 316.461 573.289 316.56 573.328 316.666C573.366 316.773 573.383 316.885 573.375 316.998C572.943 323.142 569.013 377.142 565.246 382.277C561.479 387.412 499.292 400.83 492.191 402.337L492.083 402.354Z" fill="#453232"/>
<path d="M520.724 423.56C507.242 423.56 497.166 422.79 497.021 422.773C496.785 422.751 496.568 422.642 496.416 422.469C496.264 422.296 496.19 422.073 496.21 421.848C496.219 421.736 496.252 421.626 496.306 421.526C496.36 421.425 496.434 421.336 496.524 421.263C496.615 421.189 496.72 421.134 496.833 421.099C496.946 421.065 497.065 421.052 497.184 421.061C497.923 421.061 572.077 426.709 588.877 406.667C605.676 386.624 605.46 353.985 605.46 353.608C605.457 353.496 605.478 353.384 605.521 353.279C605.565 353.175 605.629 353.079 605.711 352.998C605.793 352.917 605.891 352.852 605.999 352.807C606.108 352.762 606.225 352.738 606.343 352.735C606.582 352.74 606.811 352.831 606.982 352.99C607.153 353.149 607.253 353.364 607.262 353.591C607.262 353.916 607.587 387.052 590.283 407.694C582.947 416.44 565.048 421.626 536.911 423.098C531.251 423.457 525.753 423.56 520.724 423.56Z" fill="#453232"/>
<path d="M530.314 389.791C530.078 389.761 529.863 389.647 529.712 389.472C529.562 389.297 529.487 389.075 529.502 388.849C530.434 378.175 530.597 367.453 529.989 356.758C529.016 337.246 529.268 309.604 529.268 309.33C529.273 309.104 529.369 308.889 529.537 308.73C529.705 308.57 529.932 308.479 530.169 308.474C530.41 308.479 530.639 308.573 530.808 308.736C530.976 308.899 531.071 309.119 531.071 309.347C531.071 309.621 530.818 337.211 531.792 356.672C532.399 367.453 532.237 378.261 531.305 389.021C531.294 389.133 531.259 389.243 531.203 389.342C531.147 389.442 531.071 389.53 530.978 389.602C530.886 389.674 530.78 389.727 530.666 389.76C530.552 389.792 530.432 389.803 530.314 389.791Z" fill="#453232"/>
<path d="M560.037 456.833C563.003 450.033 567.362 443.859 572.86 438.67C578.359 433.482 584.887 429.381 592.067 426.607C610.921 419.281 639.635 420.77 639.635 420.77L632.804 456.833H560.037Z" fill="#F5F5F5"/>
<path d="M632.804 457.689H560.037C559.893 457.687 559.751 457.653 559.623 457.591C559.495 457.529 559.384 457.439 559.298 457.329C559.218 457.218 559.167 457.09 559.148 456.956C559.13 456.823 559.144 456.687 559.19 456.559C565.279 442.614 576.948 431.533 591.635 425.751C610.453 418.442 639.311 419.812 639.599 419.846C639.725 419.846 639.849 419.874 639.962 419.927C640.075 419.981 640.173 420.058 640.248 420.154C640.329 420.249 640.387 420.359 640.418 420.477C640.449 420.596 640.452 420.719 640.428 420.839L633.597 456.919C633.581 457.115 633.493 457.3 633.348 457.441C633.203 457.581 633.01 457.669 632.804 457.689ZM561.371 455.977H632.047L638.572 421.575C633.308 421.403 608.867 421.01 592.41 427.394C578.606 432.818 567.503 443.042 561.371 455.977Z" fill="#453232"/>
<path d="M539.849 233.062C539.236 233.062 537.289 239.909 537.037 240.491C535.343 244.752 532.639 248.569 530.512 252.694C525.659 262.098 519.748 270.976 512.883 279.172C515.941 279.113 518.955 278.466 521.743 277.272C524.53 276.078 527.035 274.36 529.106 272.223L523.951 285.71C527.392 286.879 531.059 287.331 534.701 287.035C538.342 286.74 541.875 285.705 545.058 283.999C556.252 277.888 558.288 266.335 559.478 255.262L562.38 230.615L539.849 233.062Z" fill="#F5F5F5"/>
<path d="M532.567 287.97C529.556 287.976 526.567 287.484 523.734 286.515C523.512 286.434 523.331 286.275 523.23 286.07C523.14 285.861 523.14 285.628 523.23 285.419L527.123 275.253C523.064 278.261 518.086 279.937 512.937 280.028C512.769 280.027 512.603 279.981 512.46 279.896C512.317 279.81 512.203 279.688 512.13 279.543C512.056 279.399 512.027 279.238 512.046 279.078C512.064 278.919 512.13 278.767 512.234 278.642C519.057 270.493 524.932 261.667 529.755 252.318C530.566 250.76 531.467 249.22 532.332 247.748C533.823 245.323 535.13 242.8 536.244 240.2C536.244 240.063 536.442 239.635 536.622 239.053C538.641 232.652 539.02 232.207 539.813 232.207L562.308 229.793C562.442 229.777 562.579 229.79 562.707 229.831C562.835 229.873 562.951 229.942 563.047 230.033C563.14 230.126 563.21 230.237 563.254 230.358C563.297 230.479 563.313 230.607 563.299 230.735L560.578 255.313C559.298 266.763 557.099 278.453 545.653 284.701C541.671 286.867 537.156 287.994 532.567 287.97ZM525.212 285.18C528.427 286.142 531.817 286.466 535.169 286.13C538.521 285.794 541.765 284.807 544.698 283.229C555.404 277.375 557.495 266.113 558.721 255.125L561.335 231.608L540.299 233.867C539.53 235.721 538.862 237.612 538.299 239.532C538.082 240.183 537.938 240.662 537.884 240.799C536.742 243.48 535.393 246.077 533.846 248.569C532.999 250.041 532.044 251.547 531.323 253.071C526.737 261.955 521.211 270.374 514.83 278.197C520.083 277.663 524.952 275.333 528.529 271.641C528.674 271.5 528.864 271.408 529.069 271.38C529.275 271.352 529.484 271.39 529.665 271.487C529.843 271.59 529.979 271.749 530.048 271.936C530.117 272.124 530.115 272.328 530.043 272.514L525.212 285.18Z" fill="#453232"/>
<path d="M546.806 278.796L542.769 295.483C542.769 295.483 540.642 305.941 552.376 304.983C555.842 304.666 559.191 303.62 562.178 301.921C565.165 300.221 567.715 297.911 569.644 295.158L574.367 264.846C574.583 263.563 576.494 251.017 578.909 240.011C565.408 237.376 553.53 234.124 553.53 234.124C554.593 235.613 549.744 234.945 549.744 234.945C547.578 234.538 545.357 234.463 543.165 234.723C540.912 241.98 537.235 249.699 535.955 257.076C535.133 261.483 534.723 265.95 534.73 270.426C534.874 278.915 546.806 278.796 546.806 278.796Z" fill="#F5F5F5"/>
<path d="M550.898 305.821C549.616 305.904 548.331 305.725 547.128 305.297C545.924 304.869 544.832 304.201 543.922 303.339C543.025 302.208 542.387 300.911 542.049 299.531C541.711 298.152 541.68 296.721 541.958 295.329L545.761 279.566C541.201 279.326 534.027 277.221 533.901 270.409C533.864 265.892 534.274 261.383 535.126 256.939C536.177 251.966 537.672 247.088 539.596 242.356C540.57 239.755 541.579 237.05 542.372 234.483C542.416 234.34 542.502 234.213 542.621 234.116C542.739 234.018 542.884 233.956 543.039 233.935C545.32 233.666 547.632 233.741 549.889 234.158C550.83 234.301 551.787 234.329 552.737 234.243C552.718 234.145 552.721 234.044 552.746 233.947C552.771 233.849 552.817 233.758 552.881 233.679C552.974 233.543 553.109 233.439 553.267 233.381C553.426 233.323 553.6 233.313 553.764 233.353C553.872 233.353 565.769 236.64 578.999 239.224C579.211 239.274 579.397 239.396 579.522 239.566C579.582 239.651 579.625 239.745 579.646 239.845C579.668 239.945 579.669 240.048 579.648 240.148C577.539 249.75 575.791 260.567 575.142 264.778C575.142 264.949 570.401 295.278 570.401 295.278C570.384 295.38 570.348 295.479 570.293 295.569C568.314 298.451 565.674 300.872 562.572 302.65C559.469 304.428 555.984 305.518 552.376 305.838C551.883 305.855 551.39 305.85 550.898 305.821ZM546.788 278.025C546.913 278.025 547.035 278.05 547.148 278.101C547.26 278.151 547.359 278.225 547.437 278.316C547.517 278.408 547.573 278.516 547.601 278.632C547.629 278.748 547.629 278.868 547.599 278.984L543.562 295.655C543.562 295.655 542.769 299.797 545.148 302.295C546.608 303.836 549.023 304.469 552.358 304.195C555.667 303.882 558.863 302.886 561.724 301.278C564.585 299.67 567.042 297.488 568.923 294.884C569.284 292.505 573.592 264.795 573.61 264.709C574.277 260.448 575.953 250.041 577.99 240.593C567.175 238.454 557.423 235.938 554.359 235.133L554.233 235.27C553.386 236.126 550.628 235.887 549.672 235.681C547.755 235.328 545.795 235.235 543.85 235.407C543.075 237.855 542.048 240.388 541.219 242.853C539.325 247.501 537.847 252.294 536.803 257.178C535.974 261.533 535.57 265.95 535.595 270.375C535.739 278.008 546.41 277.991 546.842 278.008L546.788 278.025Z" fill="#453232"/>
<path d="M553.368 252.865C553.368 252.865 545.815 260.174 546.933 261.868C548.05 263.563 552.16 263.323 552.16 263.323" fill="#F5F5F5"/>
<path d="M551.565 264.23C550.195 264.23 547.293 264.025 546.158 262.365C545.022 260.704 549.042 255.861 552.719 252.3C552.8 252.219 552.897 252.153 553.006 252.109C553.114 252.064 553.231 252.041 553.349 252.041C553.468 252.041 553.585 252.064 553.693 252.109C553.802 252.153 553.899 252.219 553.98 252.3C554.064 252.379 554.131 252.472 554.177 252.575C554.222 252.678 554.245 252.788 554.245 252.9C554.245 253.011 554.222 253.122 554.177 253.224C554.131 253.327 554.064 253.42 553.98 253.499C550.466 256.922 547.527 260.653 547.69 261.509C548.285 262.416 550.898 262.57 552.052 262.501C552.17 262.492 552.289 262.505 552.402 262.54C552.516 262.574 552.62 262.63 552.711 262.703C552.801 262.776 552.876 262.865 552.93 262.966C552.984 263.067 553.016 263.176 553.025 263.289C553.035 263.402 553.021 263.515 552.983 263.623C552.945 263.73 552.885 263.829 552.806 263.914C552.726 263.999 552.63 264.068 552.522 264.116C552.414 264.165 552.297 264.192 552.178 264.196L551.565 264.23Z" fill="#453232"/>
<path d="M547.805 249.988C548.044 249.002 547.789 248.105 547.236 247.985C546.683 247.864 546.041 248.565 545.802 249.551C545.564 250.537 545.819 251.434 546.372 251.554C546.925 251.675 547.566 250.974 547.805 249.988Z" fill="#453232"/>
<path d="M562.167 253.829C562.406 252.843 562.151 251.946 561.598 251.825C561.045 251.705 560.403 252.406 560.164 253.392C559.926 254.378 560.181 255.275 560.734 255.395C561.287 255.516 561.929 254.815 562.167 253.829Z" fill="#453232"/>
<path d="M550.105 245.54L551.998 242.117L553.349 246.224L564.669 249.408L567.806 244.958L567.481 250.983L573.447 251.565C571.879 251.41 564.849 278.145 564.164 280.353C562.921 284.358 561.425 288.706 557.766 291.033C561.695 292.437 566.057 290.417 569.446 288.055C573.865 285 577.726 281.276 580.874 277.033L577.629 293.669C579.187 293.843 580.767 293.692 582.258 293.228C583.749 292.764 585.115 291.998 586.263 290.982C588.545 288.935 590.35 286.457 591.562 283.708C596.772 273.079 595.546 263.169 595.907 251.975C596.357 238.865 595.528 227.757 579.161 221.732C562.795 215.707 550.952 217.607 542.372 224.71C539.819 226.921 537.768 229.604 536.346 232.594C534.923 235.584 534.158 238.819 534.099 242.1C534.099 242.1 546.68 245.232 550.105 245.54Z" fill="#F5F5F5"/>
<path d="M578.963 294.576C578.468 294.577 577.974 294.543 577.485 294.474C577.364 294.458 577.249 294.417 577.146 294.355C577.044 294.293 576.956 294.211 576.89 294.114C576.749 293.926 576.691 293.692 576.728 293.464L579.306 280.353C576.574 283.492 573.444 286.297 569.987 288.706C565.21 292.009 560.974 293.053 557.369 291.769C557.213 291.715 557.077 291.621 556.975 291.497C556.873 291.373 556.809 291.224 556.792 291.068C556.775 290.912 556.802 290.754 556.872 290.613C556.942 290.471 557.052 290.35 557.189 290.263C560.487 288.175 561.929 284.238 563.227 279.994C563.353 279.6 563.678 278.402 564.147 276.725C568.509 260.91 570.563 254.628 571.771 252.146L567.319 251.719C567.089 251.697 566.877 251.593 566.727 251.427C566.576 251.261 566.497 251.047 566.508 250.829L566.67 247.902L565.354 249.767C565.245 249.918 565.089 250.031 564.907 250.093C564.726 250.154 564.53 250.16 564.345 250.11L553.025 246.926C552.882 246.886 552.752 246.814 552.645 246.715C552.539 246.617 552.459 246.496 552.412 246.361L551.709 244.239L550.826 245.865C550.742 246.015 550.614 246.139 550.457 246.221C550.3 246.303 550.121 246.34 549.943 246.327C546.482 246.019 534.297 242.904 533.72 242.801C533.528 242.762 533.356 242.66 533.235 242.513C533.113 242.366 533.049 242.184 533.053 241.997C533.096 238.591 533.88 235.23 535.357 232.125C536.833 229.02 538.97 226.239 541.633 223.957C551.078 216.135 563.75 215.074 579.342 220.808C596.123 226.986 597.114 238.539 596.664 251.873C596.664 254.098 596.664 256.254 596.573 258.394C596.573 267.071 596.573 275.27 592.247 283.947C590.959 286.798 589.077 289.371 586.714 291.513C584.591 293.368 581.846 294.453 578.963 294.576ZM578.693 292.865C581.273 292.843 583.754 291.923 585.668 290.28C587.861 288.318 589.593 285.938 590.751 283.297C594.843 274.945 594.879 266.934 594.915 258.445C594.915 256.306 594.915 254.115 595.005 251.89C595.456 238.762 594.537 228.253 578.783 222.485C563.66 216.922 551.926 217.847 542.913 225.309C538.135 229.47 535.273 235.249 534.946 241.398C537.451 242.014 546.121 244.153 549.528 244.616L551.15 241.672C551.231 241.523 551.356 241.399 551.51 241.317C551.664 241.235 551.84 241.198 552.016 241.21C552.195 241.225 552.366 241.289 552.507 241.396C552.648 241.502 552.753 241.646 552.809 241.809L554.016 245.488L564.237 248.364L567.012 244.427C567.119 244.269 567.278 244.15 567.464 244.088C567.65 244.026 567.853 244.025 568.04 244.085C568.226 244.15 568.386 244.27 568.496 244.427C568.606 244.583 568.661 244.769 568.653 244.958L568.364 250.093L573.411 250.589C573.634 250.585 573.851 250.659 574.021 250.795C574.191 250.932 574.303 251.123 574.336 251.332C574.369 251.542 574.321 251.755 574.201 251.933C574.08 252.111 573.896 252.242 573.682 252.3C572.204 254.183 567.409 271.487 565.823 277.238C565.354 278.95 565.03 280.148 564.904 280.541C563.696 284.392 562.38 288.055 559.622 290.554C562.236 290.811 565.318 289.733 568.797 287.319C573.132 284.313 576.919 280.653 580.008 276.485C580.13 276.326 580.305 276.211 580.505 276.158C580.705 276.105 580.917 276.118 581.108 276.194C581.296 276.269 581.451 276.404 581.547 276.576C581.642 276.748 581.672 276.945 581.631 277.135L578.693 292.865Z" fill="#453232"/>
<path d="M546.806 278.796C546.806 278.796 556.215 278.573 560.217 276.245C560.217 276.245 554.449 287.918 543.706 291.649L546.806 278.796Z" fill="#453232"/>
<path d="M543.706 292.437C543.488 292.439 543.277 292.366 543.111 292.231C542.988 292.13 542.895 291.998 542.845 291.85C542.794 291.702 542.786 291.544 542.823 291.393L545.923 278.607C545.968 278.425 546.075 278.261 546.229 278.143C546.382 278.025 546.573 277.96 546.77 277.957C546.861 277.957 555.999 277.7 559.748 275.527C559.9 275.414 560.087 275.353 560.28 275.353C560.473 275.353 560.66 275.414 560.812 275.527C560.957 275.647 561.057 275.809 561.096 275.988C561.135 276.168 561.111 276.354 561.028 276.519C560.794 277.016 554.972 288.5 544.013 292.3C543.92 292.363 543.816 292.41 543.706 292.437ZM547.527 279.634L544.968 290.178C551.601 287.285 556.107 281.26 558.144 278.043C554.685 278.973 551.121 279.508 547.527 279.634Z" fill="#453232"/>
<path d="M546.049 274.174H545.797C544.878 274.055 544.265 273.336 543.995 272.052L542.859 267.294C542.826 267.154 542.83 267.009 542.871 266.872C542.912 266.734 542.988 266.609 543.093 266.507C543.201 266.406 543.333 266.332 543.477 266.29C543.621 266.249 543.774 266.241 543.922 266.267L551.042 267.636C551.183 267.66 551.316 267.716 551.429 267.8C551.542 267.883 551.632 267.992 551.691 268.115C551.753 268.235 551.785 268.367 551.785 268.5C551.785 268.634 551.753 268.766 551.691 268.886C550.646 270.512 548.194 274.174 546.049 274.174ZM544.896 268.269L545.707 271.693C545.887 272.377 546.085 272.514 546.085 272.514C546.59 272.514 548.014 271.094 549.384 269.091L544.896 268.269Z" fill="#453232"/>
<path d="M342.764 146.881H351.641V105.302H316.625C316.113 105.302 315.71 105.289 315.219 105.185V146.881H342.764Z" fill="#002C42"/>
<path d="M355.578 102.659C354.875 101.825 352.344 98.4875 355.578 92.5078H357.547V89.7266H330.828V76.9328H328.438C327.734 76.2375 325.203 72.7609 328.438 66.7812H330.406V64H289.625C285.266 64 281.75 67.4766 281.75 71.9266V117.122C281.75 120.737 282.734 123.519 284.703 125.327C286.813 127.273 289.344 127.412 290.047 127.412H308.891V142.709C308.891 146.325 309.875 149.106 311.844 150.914C313.028 152.007 314.336 152.52 315.388 152.769C316.209 152.962 316.88 153 317.188 153H357.969V102.659H355.578ZM352.484 92.2297V92.3687C352.203 92.925 352.063 93.4813 351.781 94.0375H324.922V96.8188H351.219V97.9312H332.375V100.712H351.641C351.781 101.408 352.063 101.964 352.344 102.52H316.766C313.953 102.52 311.703 100.295 311.703 97.375C311.703 94.5938 313.953 92.2297 316.766 92.2297H352.484ZM308.891 121.155V124.631H290.328C290.328 124.631 288.219 124.77 286.672 123.241C285.266 121.989 284.703 119.903 284.703 117.122V77.9062C285.198 78.3248 285.763 78.6739 286.364 78.952C286.959 79.2287 287.589 79.4359 288.219 79.575C288.781 79.7141 289.203 79.7141 289.766 79.7141H328.156V89.5875H316.906C312.406 89.5875 308.891 93.2031 308.891 97.5141V121.155ZM289.625 66.7812H325.344C325.063 67.3375 324.922 67.8937 324.641 68.45H297.781V71.2312H324.078V72.3438H305.234V75.125H324.5C324.641 75.8203 324.922 76.3766 325.203 76.9328H289.625C289.216 76.9328 288.825 76.873 288.445 76.784C286.212 76.2584 284.563 74.2837 284.563 71.7875C284.563 69.0062 286.953 66.7812 289.625 66.7812ZM355.156 136.262V150.219H317.328C317.328 150.219 315.359 150.358 313.672 148.828C312.266 147.577 311.563 145.491 311.563 142.709V103.494C312.547 104.328 313.813 104.884 315.078 105.163C315.129 105.175 315.17 105.174 315.219 105.185C315.71 105.289 316.113 105.302 316.625 105.302H355.156V136.262Z" fill="black"/>
<path d="M316.766 89.5875H324.5V79.7141H289.625C289.062 79.7141 288.5 79.7141 288.078 79.575V121.155H308.891V97.5141C308.891 93.2031 312.406 89.5875 316.766 89.5875Z" fill="#453232"/>
</svg>
