<svg width="33" height="23" viewBox="0 0 33 23" fill="none" xmlns="http://www.w3.org/2000/svg">
<path fill-rule="evenodd" clip-rule="evenodd" d="M30.8344 3.22767L17.8138 13.248C17.4438 13.5329 16.9784 13.6888 16.4979 13.6888C16.0175 13.6888 15.5521 13.5329 15.1821 13.248L2.16769 3.22767C2.09782 3.42299 2.0623 3.6275 2.0625 3.83333V19.1667C2.0625 19.675 2.2798 20.1625 2.66659 20.522C3.05339 20.8814 3.57799 21.0833 4.125 21.0833H28.875C29.422 21.0833 29.9466 20.8814 30.3334 20.522C30.7202 20.1625 30.9375 19.675 30.9375 19.1667V3.83333C30.9384 3.62761 30.9035 3.4231 30.8344 3.22767ZM4.125 0H28.875C29.969 0 31.0182 0.403868 31.7918 1.12276C32.5654 1.84165 33 2.81667 33 3.83333V19.1667C33 20.1833 32.5654 21.1584 31.7918 21.8772C31.0182 22.5961 29.969 23 28.875 23H4.125C3.03098 23 1.98177 22.5961 1.20818 21.8772C0.434597 21.1584 0 20.1833 0 19.1667V3.83333C0 2.81667 0.434597 1.84165 1.20818 1.12276C1.98177 0.403868 3.03098 0 4.125 0ZM3.69187 1.91667L15.1924 10.7391C15.5607 11.0218 16.0232 11.1769 16.501 11.178C16.9787 11.179 17.442 11.0259 17.8117 10.7448L29.4277 1.91667H3.69187Z" fill="white"/>
</svg>
