<svg width="24" height="33" viewBox="0 0 24 33" fill="none" xmlns="http://www.w3.org/2000/svg">
<path d="M11.3555 0.000316642C11.3798 0.000208216 11.3798 0.000208216 11.4047 9.81405e-05C11.4581 -8.22267e-05 11.5114 3.65064e-05 11.5647 0.000176059C11.6019 0.000148231 11.6392 0.000108241 11.6764 5.65014e-05C11.7545 -4.10193e-06 11.8325 8.37112e-05 11.9097 0.000277065C12.0095 0.000512057 12.1097 0.000376627 12.2097 0.000129885C12.2865 -1.93558e-05 12.3635 2.84671e-05 12.441 0.000135141C12.4778 0.000162557 12.5145 0.000129189 12.5513 3.2899e-05C12.6029 -7.22293e-05 12.6543 8.85552e-05 12.7056 0.000317364C12.7207 0.00023388 12.7358 0.000150395 12.7513 6.38192e-05C12.8442 0.000826515 12.9216 0.0172554 13.012 0.0468561C13.0597 0.0512055 13.1075 0.0541532 13.1553 0.0558848C13.2761 0.0618008 13.3945 0.0760241 13.5121 0.0971116C13.5339 0.100904 13.5339 0.100904 13.5558 0.104759C13.644 0.121002 13.7285 0.144131 13.8146 0.170516C13.8838 0.186574 13.953 0.201436 14.0224 0.216278C14.0857 0.231573 14.1453 0.251733 14.2067 0.273583C14.2641 0.28894 14.3215 0.30306 14.3792 0.317283C14.4395 0.334743 14.4972 0.356449 14.5556 0.380154C14.6019 0.398541 14.6483 0.415815 14.695 0.432718C14.7115 0.438758 14.7281 0.444777 14.7452 0.451002C14.7791 0.463329 14.813 0.475532 14.8471 0.4879C14.9426 0.522737 15.0355 0.560666 15.1274 0.603541C15.15 0.612034 15.1727 0.620548 15.196 0.629308C15.9233 0.911712 16.6094 1.38788 17.1956 1.90322C17.2123 1.91721 17.2289 1.93125 17.2462 1.94568C17.3693 2.04957 17.4853 2.16006 17.601 2.27343C17.6449 2.31672 17.6894 2.35939 17.7343 2.40165C17.7452 2.412 17.7563 2.42226 17.7674 2.43298C17.7884 2.45273 17.8094 2.47235 17.8303 2.49193C17.8547 2.51502 17.878 2.53914 17.9011 2.56367V2.6049C17.9199 2.61317 17.9199 2.61317 17.9391 2.62162C17.9795 2.64615 17.9795 2.64615 17.9991 2.70799C18.0102 2.71335 18.0213 2.71869 18.0327 2.72417C18.0997 2.76149 18.1415 2.82147 18.1891 2.88187C18.2047 2.90135 18.2047 2.90135 18.2205 2.92124C18.2514 2.95999 18.282 2.99895 18.3128 3.0377C18.3363 3.06739 18.3363 3.06739 18.3604 3.09769C18.4561 3.21931 18.548 3.34299 18.6388 3.46873C18.6706 3.51181 18.7025 3.55345 18.7362 3.59488C18.7774 3.64786 18.8097 3.69898 18.8419 3.75835C18.8631 3.7936 18.8842 3.82885 18.9056 3.86389C18.9175 3.88357 18.9295 3.90326 18.9417 3.92346C18.9666 3.96428 18.9915 4.00509 19.0164 4.0457C19.175 4.30543 19.1749 4.30543 19.1749 4.37757H19.2142C19.3759 4.69502 19.3759 4.69502 19.4455 4.84138C19.4608 4.87395 19.4763 4.90631 19.4919 4.93867C19.5547 5.06792 19.6101 5.1984 19.6631 5.33239C19.6758 5.36454 19.6758 5.36454 19.6888 5.39732C19.824 5.74362 19.9416 6.09817 20.024 6.46303C20.0373 6.52054 20.0373 6.52054 20.0573 6.57867C20.0802 6.65391 20.0938 6.72956 20.1065 6.80748C20.1196 6.88664 20.1328 6.96332 20.1555 7.04041C20.1834 7.15008 20.1937 7.26098 20.2059 7.37229C20.2107 7.41702 20.2157 7.46196 20.2207 7.50669C20.2239 7.53616 20.2239 7.53616 20.2271 7.56647C20.2297 7.6112 20.2297 7.6112 20.2537 7.63263C20.258 7.68561 20.2612 7.73797 20.2635 7.79095C20.2643 7.80684 20.2651 7.82269 20.2659 7.83918C20.2685 7.8901 20.2709 7.94122 20.2733 7.99213C20.2765 8.05913 20.2798 8.12612 20.2831 8.19311C20.2838 8.20862 20.2845 8.22403 20.2852 8.24011C20.2881 8.3205 20.2881 8.3205 20.3125 8.39554C20.3143 8.43779 20.3149 8.48026 20.3148 8.52251C20.3149 8.54972 20.3149 8.57673 20.3149 8.60476C20.3148 8.63506 20.3148 8.66516 20.3147 8.69546C20.3147 8.72721 20.3147 8.75874 20.3147 8.79049C20.3147 8.87665 20.3146 8.96282 20.3145 9.04816C20.3143 9.13824 20.3143 9.22811 20.3143 9.31819C20.3143 9.48866 20.3141 9.65831 20.3139 9.8294C20.3137 10.0236 20.3136 10.2169 20.3135 10.4128C20.3132 10.8127 20.3129 11.2126 20.3125 11.6104C20.3232 11.6104 20.334 11.6103 20.345 11.6103C20.4589 11.6098 20.5724 11.6095 20.6861 11.6093C20.7285 11.6092 20.7706 11.609 20.8129 11.6089C21.0208 11.608 21.2305 11.6078 21.4383 11.6195C21.453 11.6203 21.468 11.6211 21.4832 11.6219C21.5834 11.6284 21.5834 11.6284 21.6054 11.6516C21.64 11.6581 21.6748 11.6645 21.7096 11.6702C22.2173 11.7538 22.7015 11.9958 23.0759 12.3731V12.4143L23.109 12.4285C23.3266 12.559 23.507 12.8717 23.6246 13.0943C23.6312 13.1066 23.6376 13.1188 23.6442 13.1316C23.8059 13.4429 23.9186 13.7686 23.9677 14.1211C23.974 14.1848 23.974 14.1848 23.9973 14.2285C23.9993 14.2645 23.9998 14.3008 23.9998 14.3369C23.9998 14.3717 23.9998 14.3717 24 14.4072C24 14.4329 23.9998 14.4587 23.9998 14.4853C23.9998 14.5129 23.9998 14.5403 24 14.568C24 14.6442 24 14.7205 23.9998 14.7968C23.9998 14.8794 23.9998 14.9623 24 15.0441C24 15.1892 24 15.3348 24 15.4791C23.9998 15.6955 24 15.9099 24 16.1263C24 16.5118 24 16.8973 24 17.2827C24 17.6208 24 17.9568 24 18.2949C24 18.3171 24 18.3396 24 18.3625C24 18.4532 24 18.5439 24 18.6346C24 19.4859 24 20.3372 24 21.1906C23.9998 21.9471 23.9998 22.7057 24 23.4581C24 24.3074 24 25.1587 24 26.0141C24 26.1045 24 26.1952 24 26.2862C24 26.3086 24 26.3308 24 26.3539C24 26.692 24 27.028 24 27.3661C24 27.7495 24 28.1329 24 28.5163C24 28.7307 24 28.945 24 29.1615C24 29.3048 24 29.448 24 29.5903C23.9998 29.6719 23.9998 29.7536 24 29.8355C24 29.9098 24 29.984 23.9998 30.0582C23.9998 30.0976 23.9998 30.1373 24 30.1767C24 30.1999 23.9998 30.2231 23.9998 30.2468C23.9998 30.2769 23.9998 30.2769 23.9998 30.3079C23.9973 30.3529 23.9973 30.3529 23.9777 30.3736C23.9718 30.4166 23.9662 30.4599 23.961 30.5029C23.9172 30.8616 23.8064 31.1687 23.6435 31.4862C23.6322 31.5088 23.6209 31.5315 23.6094 31.555C23.5312 31.7103 23.5312 31.7103 23.467 31.7755C23.4469 31.8023 23.4276 31.8294 23.4082 31.8567C23.2671 32.0484 23.1122 32.238 22.9181 32.3741H22.8789C22.8723 32.3947 22.8659 32.4151 22.8593 32.4359C22.8228 32.4668 22.8228 32.4668 22.7772 32.4978C22.7623 32.5081 22.7476 32.5184 22.7321 32.5287C22.6777 32.5627 22.6224 32.5926 22.5653 32.6214L22.4989 32.6555C22.2558 32.7781 22.0049 32.8678 21.7481 32.9502C21.7069 32.9636 21.6657 32.9775 21.6245 32.992C21.5814 32.994 21.538 32.9945 21.4949 32.9945C21.4748 32.9948 21.4748 32.9948 21.4545 32.9948C21.4094 32.9948 21.3641 32.9948 21.319 32.9948C21.2864 32.9948 21.2538 32.9948 21.221 32.9948C21.1305 32.9951 21.0401 32.9951 20.9504 32.9948C20.8522 32.9948 20.7545 32.9951 20.6565 32.9951C20.4616 32.9953 20.2663 32.9953 20.0723 32.9953C19.839 32.9953 19.6057 32.9953 19.3724 32.9956C18.8216 32.9958 18.2707 32.9961 17.7199 32.9961C17.4395 32.9961 17.1592 32.9964 16.8789 32.9964C15.981 32.9966 15.0812 32.9969 14.1932 32.9969C14.1503 32.9969 14.1073 32.9969 14.0644 32.9969C13.9783 32.9969 13.8921 32.9969 13.8056 32.9969C13.7049 32.9969 13.6037 32.9969 13.5037 32.9969C13.4749 32.9969 13.4459 32.9969 13.4171 32.9969C12.4899 32.9971 11.5626 32.9974 10.6334 32.9979C9.96689 32.9982 9.30037 32.9984 8.63386 32.9987C8.62016 32.9987 8.60641 32.9987 8.5923 32.9987C8.29237 32.9987 7.99047 32.9987 7.69054 32.9987C7.58292 32.9987 7.4749 32.9987 7.36708 32.9987C7.34023 32.9987 7.31357 32.9987 7.28671 32.9987C6.85935 32.9987 6.43396 32.9989 6.0066 32.9992C5.56553 32.9994 5.12249 32.9997 4.68141 32.9994C4.42657 32.9994 4.17172 32.9994 3.91688 32.9997C3.74691 33 3.57774 33 3.40719 32.9997C3.31035 32.9997 3.21331 32.9994 3.11706 32.9997C3.02884 33 2.94062 33 2.85241 32.9997C2.82065 32.9997 2.78909 32.9997 2.75733 33C2.58443 33.0007 2.42799 32.9907 2.26333 32.9301C2.24392 32.9234 2.22451 32.9167 2.20452 32.9095C2.18511 32.9028 2.1657 32.8961 2.1457 32.8889C2.09336 32.8742 2.04102 32.8595 1.98849 32.8454C1.85793 32.8046 1.73756 32.7495 1.61602 32.6841L1.57681 32.6632C1.55094 32.6495 1.52486 32.6356 1.49899 32.6217C1.43351 32.5869 1.36804 32.5524 1.30295 32.5179V32.4766L1.26002 32.4609C1.20043 32.4333 1.15828 32.4004 1.10809 32.3568C1.09119 32.3424 1.07438 32.3277 1.05693 32.3125L1.0089 32.2705L0.970086 32.2383C0.943033 32.2156 0.916961 32.1917 0.89128 32.1674V32.1262C0.871873 32.1195 0.852465 32.1126 0.83247 32.1056C0.620753 31.8995 0.444321 31.6439 0.311018 31.3738C0.285337 31.3215 0.285338 31.3215 0.255344 31.2741C0.216137 31.2007 0.191829 31.1254 0.166737 31.0453C0.161615 31.0291 0.156469 31.0128 0.151201 30.9963C0.110426 30.8636 0.0825888 30.7304 0.0596527 30.5944C0.0545803 30.5398 0.0545805 30.5398 0.0294635 30.5171C0.00319492 30.38 0.00711543 30.2429 0.00731147 30.1027C0.00728697 30.0749 0.00723821 30.0473 0.0071892 30.0198C0.00704218 29.9438 0.00704206 29.8678 0.00706656 29.791C0.00706656 29.7083 0.00694397 29.6255 0.00684596 29.5436C0.00667443 29.3792 0.00657657 29.2159 0.00655207 29.0509C0.00647855 28.8543 0.00630707 28.6572 0.00613554 28.4614C0.00574347 27.9852 0.00552261 27.5111 0.00535108 27.035C0.00527757 26.8103 0.00517971 26.5856 0.00505719 26.3609C0.00471413 25.59 0.00442013 24.8211 0.00427311 24.0522C0.00427311 24.004 0.00424843 23.9555 0.00424843 23.9073C0.00424843 23.8834 0.00424863 23.8593 0.00422413 23.8347C0.00419962 23.7133 0.00419965 23.5915 0.00417515 23.4699C0.00415064 23.4458 0.00415047 23.4216 0.00415047 23.3969C0.00400344 22.6157 0.00353799 21.8344 0.00290087 21.047C0.00223926 20.2204 0.00184706 19.3938 0.00177355 18.5734C0.00177355 18.4827 0.00174924 18.392 0.00174924 18.3013C0.00174924 18.279 0.00174924 18.2565 0.00174924 18.2337C0.00170023 17.875 0.00138153 17.5143 0.000989465 17.1556C0.000597396 16.7948 0.000474863 16.4341 0.000670897 16.0713C0.000768915 15.8569 0.000646261 15.6426 0.000229688 15.4282C-3.98593e-05 15.2847 -1.5355e-05 15.1417 0.000229688 14.9974C0.000376714 14.9157 0.000376995 14.8341 5.84391e-05 14.7521C-0.00163236 14.3212 0.0327961 13.9502 0.177862 13.5441C0.185409 13.5221 0.192981 13.5 0.200798 13.4773C0.2353 13.3784 0.270782 13.29 0.323711 13.2011L0.353116 13.1368C0.379385 13.0836 0.401145 13.056 0.441332 13.0156C0.464464 12.9723 0.464464 12.9723 0.480539 12.9331H0.519746C0.523372 12.9161 0.526999 12.8991 0.530748 12.8816C0.568779 12.7843 0.627785 12.72 0.696201 12.6445C0.711958 12.6271 0.727763 12.6097 0.744034 12.5918C0.799119 12.5367 0.855969 12.4846 0.913408 12.4322C0.944577 12.4032 0.974374 12.3727 1.00378 12.3417C1.04926 12.2939 1.09513 12.2515 1.14708 12.2117H1.18629V12.1704C1.21432 12.1482 1.21432 12.1482 1.25372 12.1241C1.3141 12.0861 1.37232 12.0466 1.43015 12.0043C1.596 11.888 1.78302 11.8262 1.97121 11.759C1.98947 11.7522 2.00767 11.7453 2.02649 11.7382C2.08824 11.7179 2.14646 11.706 2.21037 11.6963C2.23272 11.6928 2.25526 11.6894 2.2784 11.6857C2.30153 11.6822 2.32466 11.6788 2.34858 11.6752C2.39484 11.6681 2.4411 11.661 2.48737 11.6537C2.50776 11.6506 2.52814 11.6476 2.54912 11.6444C2.59813 11.6377 2.59813 11.6377 2.63773 11.6145C2.67164 11.6126 2.70555 11.6121 2.73927 11.6121C2.76044 11.6121 2.78162 11.6122 2.80357 11.6122C2.83807 11.6123 2.83807 11.6123 2.87316 11.6125C2.89669 11.6125 2.92002 11.6125 2.94413 11.6126C3.01921 11.6127 3.09429 11.6129 3.16957 11.6132C3.22034 11.6133 3.27111 11.6134 3.32208 11.6135C3.44696 11.6137 3.57105 11.614 3.69651 11.6145C3.69648 11.5999 3.69644 11.5854 3.69641 11.5704C3.69553 11.2117 3.69489 10.853 3.69448 10.4943C3.69428 10.321 3.69401 10.148 3.69354 9.97488C3.6897 8.47011 3.6897 8.47011 3.73569 7.8517C3.73819 7.81625 3.73819 7.81625 3.74071 7.77997C3.74814 7.67917 3.75738 7.58723 3.78384 7.48932C3.80261 7.40089 3.8105 7.3104 3.81991 7.22135C3.83163 7.11271 3.83163 7.11271 3.85324 7.09004C3.85689 7.05046 3.85689 7.05046 3.86059 7.01006C3.86958 6.91544 3.89039 6.82804 3.91568 6.7359C3.92763 6.69158 3.93861 6.64706 3.949 6.60253C3.97547 6.49019 4.00624 6.37991 4.03702 6.2686L4.05435 6.20511C4.09316 6.06473 4.13746 5.92683 4.18647 5.79078C4.19627 5.76295 4.20608 5.73491 4.21588 5.70709C4.24411 5.62834 4.27371 5.55043 4.3037 5.47209C4.31654 5.43849 4.32919 5.40448 4.34134 5.37068C4.39231 5.23071 4.45543 5.09858 4.52012 4.96459C4.54012 4.92295 4.55992 4.88131 4.57952 4.83947C4.64794 4.69414 4.71753 4.55088 4.7932 4.40865C4.81653 4.36516 4.83966 4.32187 4.86279 4.27837C4.89827 4.21179 4.93395 4.14542 4.96963 4.07884H5.00884C5.01609 4.05142 5.01609 4.05142 5.02354 4.02339C5.04942 3.95144 5.08078 3.91125 5.12646 3.85209C5.16214 3.79437 5.19644 3.73603 5.23075 3.67729C5.25898 3.63297 5.28623 3.59999 5.32249 3.5635L5.3421 3.52227C5.36327 3.47775 5.38699 3.45425 5.42051 3.41921C5.4397 3.39344 5.45854 3.36705 5.47697 3.34067C5.55969 3.22338 5.64987 3.11392 5.74161 3.00467C5.76631 2.97458 5.78964 2.94345 5.81258 2.91191C5.8459 2.87027 5.87707 2.83935 5.91667 2.80493C5.96862 2.75958 6.01273 2.71237 6.05625 2.65816C6.11388 2.58663 6.17622 2.52748 6.24425 2.46708C6.28443 2.42894 6.31894 2.38854 6.35403 2.34525C6.41029 2.27579 6.46969 2.21931 6.53791 2.16221C6.56202 2.13995 6.58613 2.11768 6.61024 2.09521C6.7506 1.96576 6.89253 1.83961 7.04936 1.73448C7.08582 1.70809 7.11386 1.67903 7.14503 1.64605C7.16914 1.62776 7.19364 1.61018 7.21854 1.59328C7.27637 1.55349 7.3342 1.5135 7.39144 1.4729C7.52925 1.37539 7.66785 1.28016 7.81095 1.19255C7.83232 1.17942 7.85369 1.16637 7.87565 1.15277C8.00464 1.07382 8.13441 0.999612 8.26968 0.932207C8.32104 0.904791 8.36965 0.874283 8.41905 0.843157C8.4512 0.828294 8.48335 0.813473 8.5157 0.799456C8.56353 0.778225 8.61078 0.755344 8.65782 0.732463C8.93815 0.598476 9.22436 0.478918 9.51841 0.386158C9.5688 0.370203 9.61859 0.352764 9.66818 0.334624C9.73935 0.30927 9.81051 0.291336 9.88382 0.275876C9.92989 0.26526 9.92989 0.26526 9.98223 0.245162C10.0534 0.221045 10.1251 0.205791 10.1979 0.191568C10.2853 0.181652 10.2853 0.181652 10.3584 0.141271C10.447 0.123873 10.5364 0.112 10.625 0.0988073C10.6499 0.0949732 10.6748 0.0911185 10.7007 0.0871813C10.725 0.0835534 10.7491 0.0799254 10.7742 0.0761944C10.8075 0.0712059 10.8075 0.0712059 10.8413 0.0661144C10.9069 0.0588791 10.9069 0.0588791 10.9751 0.0603633C11.044 0.0622123 11.044 0.0622123 11.1065 0.0385131C11.1904 0.0152199 11.2633 0.0119217 11.3496 0.012334L11.3555 0.000316642ZM11.0752 1.99363C11.0248 2.00538 10.9744 2.01387 10.9235 2.02187C10.6784 2.06062 10.4471 2.11525 10.2099 2.19585C10.1458 2.21729 10.0809 2.23543 10.016 2.25398C9.92604 2.28078 9.84234 2.31231 9.75726 2.35457C9.71119 2.37725 9.66453 2.39683 9.61729 2.41641C9.13309 2.61925 8.6626 2.89259 8.24505 3.22034C8.20878 3.24775 8.17232 3.27538 8.13605 3.30279C8.00236 3.40524 7.87141 3.50893 7.75575 3.63261C7.72987 3.65652 7.7036 3.68002 7.67733 3.70352C7.63303 3.74371 7.59637 3.7804 7.55971 3.82843C7.52305 3.87667 7.48659 3.91233 7.44209 3.95211C7.38191 4.00612 7.33329 4.06095 7.28526 4.12733C7.25272 4.16175 7.21998 4.19618 7.18725 4.23039C7.15274 4.26832 7.11844 4.30646 7.08433 4.34501C7.06725 4.36415 7.05022 4.38335 7.03258 4.40314C6.98925 4.45199 6.98925 4.45199 6.98043 4.5029C6.97749 4.51504 6.97457 4.52723 6.97156 4.5398C6.94549 4.55361 6.91922 4.56742 6.89315 4.58103C6.8606 4.62823 6.8606 4.62823 6.83316 4.68286C6.79885 4.748 6.7667 4.79685 6.71671 4.849C6.69672 4.88198 6.6777 4.91558 6.65908 4.9496C6.61732 5.02463 6.57263 5.0908 6.52068 5.15779C6.48324 5.22334 6.44854 5.28992 6.41384 5.35733C6.33013 5.52017 6.33013 5.52017 6.28289 5.59232C6.24172 5.66035 6.21585 5.72816 6.1886 5.80258C6.16703 5.86009 6.14331 5.91575 6.11861 5.97181C5.99766 6.24803 5.90298 6.53662 5.81476 6.82727C5.80476 6.85943 5.80476 6.85943 5.79457 6.89241C5.71302 7.17275 5.65499 7.46958 5.62696 7.76023C5.61875 7.83794 5.61875 7.83794 5.59912 7.85856C5.54756 8.25021 5.55462 8.64805 5.55599 9.04177C5.55624 9.13226 5.55626 9.22296 5.55629 9.31386C5.55641 9.48454 5.55673 9.65604 5.55715 9.82507C5.55766 10.0559 5.55788 10.2868 5.5581 10.5197C5.55847 10.8825 5.55925 11.2453 5.55996 11.6102H7.36348C7.36466 11.3546 7.36586 11.099 7.36708 10.8351C7.36787 10.6737 7.36868 10.5115 7.36948 10.3507C7.37081 10.0951 7.37208 9.83744 7.37323 9.58184C7.37407 9.39508 7.37497 9.20873 7.37598 9.02115C7.37649 8.92221 7.37698 8.82326 7.3774 8.72432C7.37779 8.63135 7.37826 8.53818 7.3788 8.44604C7.37899 8.41182 7.37914 8.3776 7.37924 8.34338C7.37941 8.2968 7.37968 8.25021 7.38 8.20363C7.38012 8.17745 7.38024 8.15147 7.38039 8.12447C7.38311 8.06407 7.38311 8.06407 7.40274 8.02285C7.40803 7.97791 7.41232 7.93297 7.41614 7.88783C7.41857 7.86041 7.42102 7.83279 7.42344 7.80538C7.42719 7.76209 7.43089 7.7188 7.43454 7.67572C7.4381 7.63387 7.44182 7.59223 7.44555 7.55039C7.44768 7.52544 7.44981 7.5003 7.45202 7.47474C7.4614 7.40568 7.47809 7.34631 7.50083 7.28097C7.5134 7.23253 7.52553 7.18409 7.53768 7.13544C7.59061 6.92312 7.64452 6.71493 7.73568 6.5191C7.74624 6.49642 7.75685 6.47354 7.76763 6.45005C7.83173 6.31297 7.89878 6.17795 7.97151 6.04396C7.9841 6.02026 7.9966 5.99655 8.00973 5.97223C8.02355 5.94625 8.03737 5.92049 8.05129 5.89451C8.06095 5.87622 8.06095 5.87622 8.07082 5.85762C8.11081 5.78341 8.15473 5.71765 8.20687 5.65231C8.21858 5.63656 8.23039 5.62077 8.24235 5.60469C8.31214 5.51461 8.3835 5.42535 8.46191 5.3429C8.48171 5.31981 8.50132 5.29673 8.52072 5.27323C8.53587 5.25511 8.53587 5.25511 8.5513 5.23674C8.5809 5.19922 8.5809 5.19922 8.60031 5.15408C8.62423 5.10502 8.65108 5.09842 8.69715 5.07493C8.70362 5.05452 8.71009 5.03411 8.71676 5.01309C8.74263 4.99894 8.7689 4.98526 8.79517 4.97186C8.83712 4.9397 8.87417 4.90569 8.91279 4.86879V4.82756C8.92693 4.82231 8.94102 4.81705 8.95572 4.81162C9.01434 4.78482 9.05805 4.75246 9.10883 4.71164C9.2286 4.61826 9.35387 4.53684 9.48129 4.45603C9.50129 4.44325 9.52148 4.43047 9.54226 4.41728C9.6689 4.33771 9.7971 4.26887 9.93237 4.20909C9.9555 4.19888 9.97843 4.18868 10.0024 4.17817C10.2199 4.08376 10.4395 4.00893 10.6689 3.9576C10.7087 3.94812 10.7481 3.93774 10.7873 3.92565C11.0068 3.86093 11.2264 3.87185 11.4518 3.87329C11.4965 3.87337 11.541 3.8734 11.5857 3.87342C11.6788 3.87353 11.7718 3.87381 11.8641 3.87427C11.9833 3.87487 12.1033 3.87507 12.2209 3.87517C12.3128 3.87525 12.4048 3.87546 12.4973 3.87572C12.5412 3.87582 12.5851 3.87592 12.6292 3.876C12.6906 3.87615 12.7517 3.87641 12.8131 3.87675C12.8401 3.87677 12.8401 3.87677 12.8678 3.87682C12.9838 3.87762 13.0913 3.89045 13.203 3.92135C13.233 3.92818 13.2632 3.93493 13.2934 3.94155C13.9932 4.09924 14.599 4.42184 15.1498 4.90213C15.1796 4.9279 15.21 4.95305 15.2406 4.97799C15.2816 5.01365 15.2816 5.01365 15.3012 5.05488H15.3404V5.09611C15.3721 5.12393 15.4041 5.15176 15.436 5.17938C15.5184 5.25916 15.5848 5.35419 15.6536 5.44736C15.6734 5.47271 15.6734 5.47271 15.6936 5.49848C15.9857 5.87364 16.2229 6.29828 16.3641 6.76002C16.3742 6.79176 16.385 6.82309 16.3968 6.85422C16.5087 7.15312 16.563 7.4685 16.5877 7.78595C16.5871 7.85459 16.5871 7.85459 16.6144 7.87912C16.6169 7.93519 16.618 7.99064 16.6184 8.04671C16.6186 8.06443 16.6188 8.08216 16.619 8.10051C16.6196 8.16008 16.6201 8.21965 16.6206 8.27943C16.621 8.32169 16.6214 8.36395 16.6218 8.4062C16.6229 8.5204 16.6239 8.63501 16.6248 8.74839C16.6254 8.81909 16.626 8.89 16.6267 8.9607C16.6312 9.46161 16.6348 9.96045 16.6345 10.4614C16.6345 10.4806 16.6345 10.4997 16.6345 10.5195C16.6344 10.7007 16.6341 10.8823 16.6335 11.0637C16.6332 11.129 16.6331 11.1944 16.6329 11.2595C16.6328 11.3038 16.6325 11.3484 16.6323 11.3927C16.6322 11.4186 16.6322 11.4446 16.6321 11.4714C16.632 11.4941 16.6319 11.5166 16.6318 11.5399C16.6286 11.5891 16.6286 11.5891 16.6535 11.6108C16.709 11.6127 16.7641 11.6134 16.8196 11.6131C16.837 11.6131 16.8545 11.6131 16.8723 11.6131C16.9301 11.6131 16.988 11.613 17.0458 11.6128C17.0858 11.6127 17.1258 11.6127 17.1658 11.6127C17.2712 11.6126 17.3775 11.6124 17.4814 11.6122C17.5888 11.612 17.697 11.6119 17.8029 11.6118C18.0146 11.6116 18.2244 11.6112 18.4361 11.6108C18.4511 11.1037 18.459 10.5986 18.4582 10.0916C18.4582 10.0398 18.4581 9.98828 18.458 9.93654C18.4571 9.1388 18.445 8.34519 18.3773 7.54539H18.3577C18.3447 7.44335 18.3318 7.34132 18.3185 7.23619H18.2988L18.24 6.90637H18.2008C18.1972 6.87133 18.1972 6.87133 18.1935 6.83546C18.1824 6.74064 18.1631 6.64871 18.1421 6.55512H18.1029C18.098 6.52874 18.0931 6.50235 18.0881 6.47514C18.0649 6.3663 18.0283 6.26695 17.9877 6.16388C17.9811 6.14662 17.9744 6.12925 17.9675 6.11152C17.8883 5.90724 17.8001 5.70956 17.7029 5.51373C17.692 5.49147 17.6813 5.46941 17.6701 5.44653C17.6054 5.31523 17.5352 5.19299 17.4545 5.07137C17.4397 5.04725 17.4251 5.02313 17.4106 4.99881C17.3145 4.83823 17.2126 4.68549 17.1008 4.53501C17.0884 4.51793 17.0759 4.50079 17.0632 4.48327C16.9697 4.35712 16.8681 4.24003 16.7652 4.1246C16.7199 4.07368 16.6758 4.02174 16.6325 3.96897C16.4912 3.79787 16.3306 3.64327 16.1542 3.51135C16.1205 3.48434 16.0922 3.45446 16.0622 3.42292C16.0371 3.4023 16.0119 3.3821 15.9862 3.36231C15.9425 3.3283 15.8995 3.29429 15.8576 3.25801C15.7982 3.20916 15.7358 3.16649 15.6729 3.12299C15.6241 3.08816 15.5788 3.04961 15.5329 3.01065C15.5004 2.98962 15.4677 2.96922 15.4349 2.94881C15.4175 2.93786 15.4 2.92696 15.3822 2.91562C15.2628 2.84121 15.143 2.77256 15.0176 2.70949C14.9656 2.68187 14.9164 2.65156 14.8668 2.61961C14.7141 2.53552 14.5551 2.46358 14.3963 2.39287C14.3765 2.3831 14.3567 2.37331 14.3364 2.36319C14.2442 2.32134 14.1468 2.29661 14.0501 2.26857C14.0007 2.25355 13.9537 2.23765 13.9061 2.21766C13.5904 2.08924 13.2493 2.03276 12.9141 1.98885C12.8667 1.98071 12.8667 1.98071 12.8471 1.9602C12.2805 1.88331 11.6258 1.85053 11.069 1.99091L11.0752 1.99363ZM11.1867 5.82773C11.1495 5.83309 11.1495 5.83309 11.1115 5.83855C11.0607 5.84659 11.0207 5.85622 10.9737 5.87668C10.9201 5.89956 10.8664 5.91915 10.8111 5.93687C10.7114 5.97171 10.6212 6.01995 10.5289 6.07251C10.5132 6.08119 10.4975 6.08988 10.4814 6.0989C10.2918 6.20196 10.2918 6.20196 10.1285 6.34213C10.1037 6.3646 10.0788 6.38686 10.0539 6.40913C9.98995 6.46746 9.93487 6.52827 9.88135 6.59691C9.85508 6.62969 9.82724 6.65896 9.79784 6.68864C9.75157 6.72822 9.75157 6.72822 9.75628 6.77502C9.72707 6.78522 9.72707 6.78522 9.69747 6.79563C9.67336 6.82614 9.67336 6.82614 9.65297 6.86489C9.64491 6.87924 9.63684 6.89354 9.62846 6.90838C9.62008 6.92387 9.61168 6.9393 9.60298 6.95538C9.59431 6.9712 9.58561 6.98713 9.57671 7.00341C9.47732 7.18687 9.3895 7.37239 9.33559 7.57646C9.32417 7.62016 9.32417 7.62016 9.30344 7.67953C9.24051 7.90009 9.24032 8.12272 9.24149 8.35153C9.24149 8.38719 9.24149 8.42264 9.24147 8.4583C9.24147 8.55416 9.24169 8.65001 9.24196 8.74483C9.2422 8.84522 9.24223 8.94581 9.24228 9.04579C9.2424 9.23563 9.24272 9.42507 9.24311 9.61471C9.24355 9.83116 9.24377 10.0476 9.24397 10.264C9.24438 10.7093 9.24507 11.1525 9.24595 11.5977C9.29339 11.6227 9.3228 11.6208 9.37573 11.6208C9.39491 11.6208 9.41415 11.6209 9.43395 11.6209C9.45512 11.6209 9.47649 11.6208 9.49825 11.6208C9.53197 11.6208 9.53197 11.6208 9.56627 11.6208C9.62881 11.6208 9.69134 11.6208 9.75368 11.6207C9.82092 11.6206 9.88836 11.6206 9.9556 11.6206C10.0722 11.6206 10.1889 11.6206 10.3065 11.6204C10.4753 11.6203 10.6437 11.6202 10.8123 11.6202C11.0867 11.6202 11.3592 11.62 11.6337 11.6198C11.9003 11.6196 12.1649 11.6195 12.4315 11.6194C12.456 11.6194 12.456 11.6194 12.4811 11.6194C12.5632 11.6194 12.6456 11.6193 12.7281 11.6193C13.4103 11.6191 14.0925 11.6187 14.7669 11.6183C14.7678 11.1462 14.7685 10.6742 14.7689 10.2021C14.7691 9.98362 14.7694 9.76305 14.7698 9.54455C14.7702 9.35347 14.7705 9.1632 14.7706 8.9715C14.7706 8.87029 14.7707 8.76908 14.771 8.66848C14.7713 8.57325 14.7714 8.47781 14.7713 8.38196C14.7713 8.34712 14.7714 8.31228 14.7716 8.27724C14.7723 8.10203 14.7696 7.93506 14.7276 7.76397C14.7214 7.73264 14.7153 7.7013 14.7093 7.66997C14.594 7.13196 14.278 6.60426 13.8506 6.28681C13.8101 6.25589 13.8101 6.25589 13.7681 6.2594V6.21817C13.693 6.16437 13.6124 6.11984 13.5329 6.07388C13.5167 6.06439 13.5005 6.05491 13.4838 6.04522C13.2486 5.9135 13.0075 5.85558 12.7448 5.81848C12.6699 5.80657 12.6699 5.80657 12.6307 5.78591C12.5976 5.78385 12.5643 5.78307 12.5311 5.78292C12.5 5.78274 12.5 5.78274 12.468 5.78253C12.4453 5.78251 12.4225 5.78248 12.3992 5.78245C12.3639 5.78235 12.3639 5.78235 12.328 5.78225C12.278 5.78215 12.2281 5.78209 12.1781 5.78209C12.1028 5.78207 12.0275 5.78168 11.9526 5.78129C11.6919 5.78068 11.439 5.7874 11.1802 5.82706L11.1867 5.82773ZM18.44 8.13643V8.36317H18.4596V8.13643H18.44ZM7.38367 8.96096V9.37323H7.40328V8.96096H7.38367ZM2.63964 11.6407V11.6613H2.73766V11.6407H2.63964ZM21.4981 11.6613V11.6819H21.5961V11.6613H21.4981ZM2.09074 13.9494L2.0535 14.0131L2.01723 14.0735C2.00576 14.0935 1.99429 14.1135 1.98253 14.1343C1.96516 14.1642 1.96516 14.1642 1.94744 14.1947C1.8853 14.3266 1.8704 14.4606 1.86511 14.6049C1.86437 14.6226 1.86364 14.6402 1.86288 14.6583C1.85378 14.9036 1.85484 15.1468 1.85508 15.3921C1.85513 15.4663 1.85508 15.5405 1.85503 15.6148C1.85496 15.7444 1.85496 15.8745 1.85501 16.0044C1.85508 16.1971 1.85503 16.3898 1.85499 16.5836C1.85489 16.9278 1.85489 17.2721 1.85494 17.6163C1.85499 17.9173 1.85501 18.2203 1.85499 18.5212C1.85499 18.5413 1.85499 18.5614 1.85499 18.5821C1.85496 18.6635 1.85496 18.7449 1.85496 18.8274C1.85489 19.59 1.85496 20.3548 1.85506 21.1154C1.85516 21.7916 1.85513 22.4697 1.85506 23.1459C1.85494 23.9065 1.85491 24.6692 1.85496 25.4339C1.85496 25.5154 1.85499 25.5968 1.85499 25.6772C1.85499 25.6972 1.85499 25.7172 1.85499 25.738C1.85501 26.0388 1.85499 26.3398 1.85494 26.6407C1.85489 26.9829 1.85489 27.3272 1.85501 27.6693C1.85506 27.8443 1.85508 28.0198 1.85501 28.1929C1.85391 29.0422 1.85391 29.0422 1.86513 29.8915C1.86557 29.9159 1.86557 29.9159 1.86601 29.9407C1.8718 30.2396 1.91875 30.489 2.11694 30.7178C2.26867 30.8647 2.44235 30.9713 2.64623 31.0105C2.68132 31.0185 2.68132 31.0185 2.70092 31.0391C2.86618 31.0705 3.0381 31.0626 3.20473 31.0623C3.2359 31.0626 3.26707 31.0626 3.29824 31.0626C3.38391 31.0626 3.46957 31.0626 3.55505 31.0626C3.64816 31.0626 3.74147 31.0626 3.83537 31.0626C3.99867 31.0628 4.16275 31.0628 4.32546 31.0628C4.56854 31.0628 4.81163 31.0628 5.05471 31.0631C5.51343 31.0631 5.97215 31.0633 6.43283 31.0633C6.78765 31.0633 7.14248 31.0633 7.4973 31.0633C7.59943 31.0633 7.70118 31.0633 7.80311 31.0633C7.8284 31.0633 7.85389 31.0633 7.87996 31.0633C8.59352 31.0636 9.30709 31.0636 10.0167 31.0636C10.044 31.0636 10.071 31.0636 10.0983 31.0636C10.221 31.0636 10.3433 31.0636 10.4668 31.0636C10.5215 31.0636 10.5762 31.0636 10.6309 31.0636C10.6584 31.0636 10.6856 31.0636 10.713 31.0636C11.5795 31.0636 12.444 31.0638 13.3203 31.0641C13.5379 31.0641 13.7575 31.0641 13.9751 31.0641C13.9953 31.0644 13.9953 31.0644 14.0158 31.0644C14.4295 31.0644 14.8431 31.0644 15.2587 31.0644C15.2782 31.0644 15.2782 31.0644 15.2981 31.0644C15.5961 31.0646 15.894 31.0646 16.194 31.0646C16.2961 31.0644 16.3979 31.0644 16.4998 31.0644C16.5249 31.0644 16.55 31.0644 16.576 31.0644C16.9799 31.0644 17.3857 31.0646 17.7895 31.0649C18.1953 31.0649 18.603 31.0649 19.0088 31.0649C19.25 31.0649 19.4911 31.0649 19.7342 31.0651C19.8955 31.0651 20.0576 31.0651 20.2184 31.0649C20.3103 31.0649 20.4023 31.0649 20.4948 31.0651C20.5785 31.0651 20.6624 31.0651 20.7457 31.0649C20.7757 31.0649 20.8055 31.0649 20.8355 31.0651C20.9948 31.0657 21.1511 31.059 21.3099 31.0409C21.3246 31.0394 21.3393 31.0376 21.3545 31.036C21.4699 31.0216 21.5662 30.9943 21.6682 30.936C21.6861 30.9257 21.7044 30.9157 21.7231 30.9051C21.923 30.7827 22.0269 30.6186 22.119 30.4001C22.1291 30.3766 22.1291 30.3764 22.1396 30.3527C22.1597 30.2921 22.1632 30.2468 22.1632 30.1829C22.1632 30.1484 22.1632 30.1484 22.1634 30.1133C22.1632 30.0881 22.1632 30.0631 22.1629 30.0373C22.1632 29.9971 22.1632 29.9971 22.1632 29.9561C22.1634 29.8812 22.1632 29.8064 22.1632 29.7312C22.1629 29.65 22.1632 29.5689 22.1632 29.4882C22.1632 29.3457 22.1632 29.2035 22.1632 29.0613C22.1629 28.8489 22.1629 28.6369 22.1629 28.4266C22.1632 28.07 22.1632 27.7134 22.1629 27.3568C22.1627 27.0043 22.1627 26.6497 22.1627 26.2973C22.1627 26.2754 22.1627 26.2532 22.1627 26.2305C22.1627 26.1416 22.1627 26.0525 22.1627 25.9625C22.1627 25.1257 22.1624 24.2908 22.1622 23.4477C22.1619 22.7057 22.1617 21.9615 22.1617 21.2215C22.1617 21.1739 22.1617 21.1261 22.1617 21.0784C22.1617 21.043 22.1617 21.043 22.1617 21.0069C22.1617 20.8882 22.1617 20.7699 22.1617 20.6503C22.1617 20.6153 22.1617 20.6153 22.1617 20.5794C22.1617 19.9589 22.1617 19.3385 22.1617 18.718C22.1617 18.6848 22.1617 18.6848 22.1617 18.6512C22.1614 18.5624 22.1614 18.4737 22.1614 18.3853C22.1614 18.0761 22.1614 17.7669 22.1614 17.4577C22.1614 17.0599 22.1614 16.662 22.1612 16.2642C22.1609 16.0539 22.1609 15.8437 22.1609 15.6314C22.1609 15.4908 22.1609 15.351 22.1609 15.2088C22.1607 15.1286 22.1607 15.0484 22.1607 14.9676C22.1609 14.8812 22.1607 14.7949 22.1607 14.7079C22.1607 14.6829 22.1607 14.658 22.1607 14.6324C22.1605 14.504 22.1548 14.3789 22.1386 14.2531H22.0994C22.0977 14.2389 22.096 14.2247 22.0941 14.2099C22.0522 14.0338 21.9277 13.8594 21.7863 13.7584C21.7686 13.7454 21.7512 13.7324 21.7331 13.719C21.5233 13.5783 21.3116 13.5578 21.0685 13.5599C21.0362 13.5598 21.0041 13.5596 20.972 13.5594C20.8843 13.559 20.7961 13.5592 20.7073 13.5596C20.6115 13.5598 20.5158 13.5594 20.4192 13.5592C20.2514 13.5588 20.0839 13.5588 19.9153 13.559C19.6664 13.5593 19.4174 13.5591 19.1665 13.5587C18.7215 13.5581 18.2745 13.5581 17.8295 13.5583C17.4394 13.5585 17.0493 13.5585 16.6592 13.5583C16.62 13.5583 16.5808 13.5583 16.5416 13.5583C16.4497 13.5583 16.3577 13.5582 16.2652 13.5582C15.9711 13.5581 15.679 13.558 15.385 13.5579C15.3716 13.5579 15.3583 13.5579 15.3444 13.5579C14.919 13.5578 14.4936 13.5579 14.0663 13.5581C14.0525 13.5581 14.0386 13.5581 14.0245 13.5581C13.801 13.5582 13.5756 13.5583 13.3521 13.5584C12.4641 13.5588 11.5741 13.5586 10.686 13.558C10.4626 13.5578 10.2371 13.5576 10.0136 13.5574C9.99985 13.5574 9.98601 13.5574 9.97189 13.5574C9.5465 13.5571 9.1211 13.5569 8.69571 13.5569C8.67571 13.5569 8.67571 13.5569 8.65532 13.5569C8.36127 13.557 8.06918 13.557 7.77513 13.5571C7.65712 13.5571 7.53989 13.5572 7.42031 13.5572C7.39443 13.5572 7.36875 13.5572 7.34209 13.5572C6.95198 13.5573 6.56383 13.5571 6.17372 13.5567C5.73069 13.5563 5.28765 13.5563 4.84461 13.5569C4.59761 13.5572 4.34864 13.5572 4.10164 13.5567C3.93599 13.5564 3.77034 13.5565 3.60371 13.557C3.50942 13.5573 3.41493 13.5574 3.32142 13.5569C3.23536 13.5565 3.1495 13.5566 3.06266 13.5573C3.03188 13.5574 3.0011 13.5573 2.97032 13.5569C2.64687 13.5538 2.29401 13.6518 2.09601 13.9424L2.09074 13.9494Z" fill="#FCFCFC"/>
<path d="M12.1005 17.5889C12.1159 17.5899 12.1312 17.591 12.1471 17.592C12.1901 17.5951 12.2328 17.5984 12.2755 17.6017C12.293 17.603 12.3104 17.6043 12.3285 17.6056C12.6833 17.6388 13.0244 17.7736 13.3341 17.9519C13.3523 17.9623 13.3704 17.9727 13.389 17.9834C13.5948 18.1079 13.7968 18.2658 13.9614 18.4472V18.4885C13.9774 18.4943 13.9774 18.4943 13.9936 18.5003C14.0618 18.5438 14.1037 18.6046 14.1526 18.6702C14.163 18.6841 14.1733 18.698 14.1841 18.7122C14.3802 18.9781 14.5625 19.2935 14.6468 19.6213C14.6517 19.6399 14.6567 19.6586 14.6618 19.6778C14.6717 19.7155 14.6814 19.7532 14.691 19.7909C14.7017 19.833 14.7137 19.8748 14.7263 19.9165C14.7469 20.0008 14.7537 20.0785 14.7571 20.1659C14.7581 20.19 14.7581 20.19 14.7593 20.2147C14.7689 20.4477 14.7675 20.6806 14.7571 20.9135C14.7561 20.9364 14.7561 20.9364 14.7552 20.9599C14.7505 21.0496 14.735 21.1244 14.7056 21.2093C14.6972 21.2466 14.689 21.284 14.6811 21.3215C14.577 21.7667 14.3381 22.2326 14.0185 22.55C14.0084 22.5615 13.9983 22.5729 13.9879 22.5849C13.9597 22.6119 13.9597 22.6119 13.9205 22.6119C13.9165 22.6233 13.9124 22.6347 13.9082 22.6467C13.8714 22.7116 13.8194 22.7516 13.7636 22.7974C13.7474 22.8123 13.7312 22.8271 13.7146 22.8425C13.6656 22.8798 13.6656 22.8798 13.6018 22.9019C13.5752 22.9115 13.5752 22.9115 13.5479 22.9212C13.5415 22.9416 13.535 22.962 13.5283 22.9831C13.4887 23.0121 13.4503 23.0371 13.4084 23.0616C13.3903 23.0723 13.3903 23.0723 13.3719 23.0832C13.2574 23.1494 13.1386 23.2001 13.0171 23.2484C12.9634 23.2659 12.9634 23.2659 12.9408 23.2923C12.9146 23.4485 12.9183 23.6056 12.9185 23.7643C12.9184 23.7952 12.9183 23.8262 12.9183 23.8573C12.9181 23.9237 12.918 23.9902 12.918 24.0566C12.9178 24.1617 12.9175 24.2669 12.9171 24.372C12.917 24.4081 12.9169 24.4441 12.9168 24.4802C12.9167 24.4983 12.9166 24.5163 12.9166 24.535C12.9158 24.7803 12.9151 25.0236 12.9149 25.2689C12.9147 25.4342 12.9143 25.5987 12.9135 25.7657C12.9131 25.853 12.9129 25.9404 12.913 26.0275C12.9131 26.1097 12.9128 26.1918 12.9122 26.2748C12.9121 26.305 12.9121 26.3349 12.9122 26.365C12.9135 26.666 12.8415 26.8535 12.6456 27.07C12.4359 27.2802 12.2183 27.3194 11.936 27.3173C11.8003 27.3112 11.6812 27.2947 11.5694 27.2109C11.5433 27.1967 11.5173 27.1831 11.491 27.1697V27.1285C11.4679 27.1207 11.4679 27.1207 11.4443 27.113C11.3865 27.0842 11.3751 27.0664 11.3538 27.0048H11.3146C11.2793 26.9625 11.2793 26.9625 11.2385 26.904C11.2185 26.8762 11.2185 26.8762 11.1983 26.8476C11.0838 26.651 11.0678 26.4745 11.0685 26.2478C11.0684 26.2156 11.0682 26.1831 11.0679 26.1509C11.0674 26.0638 11.0673 25.9764 11.0673 25.8891C11.0673 25.7979 11.0668 25.7065 11.0663 25.615C11.0655 25.4422 11.0651 25.2687 11.0649 25.0976C11.0645 24.9009 11.0638 24.7039 11.063 24.508C11.0614 24.104 11.0604 23.7 11.0596 23.296C11.0381 23.2846 11.0165 23.2733 10.9942 23.2616C10.9656 23.2466 10.9369 23.2315 10.9085 23.2164C10.8943 23.2089 10.8801 23.2015 10.8654 23.1937C10.3008 22.8969 9.83228 22.462 9.53038 21.8724C9.51931 21.8514 9.51931 21.8514 9.50803 21.8297C9.42394 21.662 9.35474 21.4814 9.32376 21.2938C9.31634 21.2536 9.31634 21.2536 9.29553 21.2179C9.2675 21.1536 9.26103 21.0885 9.25358 21.0188C9.25111 20.9959 9.25111 20.9959 9.24858 20.9726C9.23136 20.7958 9.23165 20.6202 9.23547 20.4429C9.23635 20.393 9.23631 20.3431 9.23611 20.2932C9.23885 19.9902 9.29668 19.6398 9.45175 19.3801C9.46451 19.3512 9.47684 19.3219 9.4886 19.2924C9.56251 19.115 9.65837 18.9606 9.76501 18.8018C9.77795 18.7814 9.79089 18.761 9.80422 18.74H9.84342C9.84828 18.725 9.85313 18.7101 9.85813 18.6947C9.95791 18.4597 10.2149 18.2659 10.4168 18.136C10.4676 18.1028 10.515 18.0668 10.5629 18.0293C10.6864 17.9375 10.8216 17.8744 10.9589 17.8128C10.9794 17.8035 11.0002 17.7941 11.0216 17.7844C11.3509 17.6479 11.743 17.5679 12.0978 17.5937L12.1005 17.5889ZM11.334 19.8769C11.263 19.96 11.263 19.96 11.236 20.0625H11.1967C11.1915 20.0776 11.1863 20.0928 11.181 20.1084C11.1741 20.1285 11.1671 20.1486 11.16 20.1694C11.1532 20.1893 11.1463 20.2092 11.1394 20.2296C11.1184 20.2892 11.1184 20.2892 11.0967 20.3389C11.041 20.51 11.0677 20.7244 11.138 20.8872C11.1465 20.908 11.155 20.9288 11.1637 20.9503C11.2827 21.1688 11.4597 21.3667 11.6969 21.4388C11.7277 21.4458 11.7585 21.4523 11.7893 21.4579C11.8236 21.4653 11.8236 21.4653 11.8432 21.4859C12.1274 21.5057 12.3803 21.4798 12.6077 21.2798C12.7016 21.1881 12.7016 21.1881 12.7547 21.0695C12.758 21.0572 12.7612 21.0448 12.7645 21.032C12.7839 21.0252 12.8033 21.0184 12.8233 21.0114C12.9247 20.7723 12.9665 20.5002 12.8822 20.2487C12.8759 20.2296 12.8697 20.2106 12.8632 20.191C12.7707 19.9333 12.628 19.7581 12.3908 19.6427C12.0144 19.4716 11.6202 19.5562 11.334 19.8769Z" fill="#FDFDFD"/>
</svg>
