<svg width="50" height="50" viewBox="0 0 50 50" fill="none" xmlns="http://www.w3.org/2000/svg">
<path d="M25 41.6667C15.7953 41.6667 8.33334 34.2048 8.33334 25C8.33334 15.7953 15.7953 8.33334 25 8.33334V41.6667Z" fill="#E87C7A"/>
<path d="M25 41.6667C15.7953 41.6667 8.33334 34.2048 8.33334 25C8.33334 15.7953 15.7953 8.33334 25 8.33334V41.6667Z" fill="#E87C7A"/>
<path fill-rule="evenodd" clip-rule="evenodd" d="M34.3119 17.6451C33.7017 18.2553 33.7017 19.2447 34.3119 19.8548L37.8944 23.4375H20.8333C19.9704 23.4375 19.2708 24.1371 19.2708 25C19.2708 25.8629 19.9704 26.5625 20.8333 26.5625H37.8944L34.3119 30.1452C33.7017 30.7554 33.7017 31.7446 34.3119 32.3548C34.9221 32.965 35.9113 32.965 36.5215 32.3548L42.7715 26.1048C43.3817 25.4946 43.3817 24.5054 42.7715 23.8952L36.5215 17.6451C35.9113 17.035 34.9221 17.035 34.3119 17.6451Z" fill="#F5F5F5"/>
</svg>
