<svg width="32" height="32" viewBox="0 0 32 32" fill="none" xmlns="http://www.w3.org/2000/svg">
<g id="Group">
<g id="Clip path group">
<mask id="mask0_862_7" style="mask-type:luminance" maskUnits="userSpaceOnUse" x="0" y="-2" width="33" height="34">
<g id="b">
<path id="Vector" d="M0 -1.5H33V31.5H0V-1.5Z" fill="white"/>
</g>
</mask>
<g mask="url(#mask0_862_7)">
<g id="Group_2">
<g id="Group_3">
<path id="Vector_2" d="M27.4701 26.3214L22.3009 21.1536C23.6358 19.3747 24.4359 17.1723 24.4359 14.7815C24.4359 8.90707 19.6558 4.12695 13.7814 4.12695C7.90695 4.12695 3.12683 8.90707 3.12683 14.7815C3.12683 20.6559 7.90695 25.436 13.7814 25.436C16.2766 25.436 18.5684 24.5685 20.3858 23.1264L25.5261 28.2653C25.6536 28.3932 25.8051 28.4946 25.9719 28.5637C26.1387 28.6328 26.3175 28.6683 26.4981 28.6681C26.6786 28.6683 26.8575 28.6328 27.0243 28.5637C27.1911 28.4946 27.3426 28.3932 27.4701 28.2653C28.0076 27.7278 28.0076 26.8589 27.4701 26.3214ZM5.189 14.7815C5.189 10.0441 9.04386 6.18912 13.7814 6.18912C18.5189 6.18912 22.3738 10.044 22.3738 14.7815C22.3738 19.519 18.5189 23.3739 13.7814 23.3739C9.04393 23.3739 5.189 19.519 5.189 14.7815Z" fill="black" fill-opacity="0.6"/>
</g>
</g>
</g>
</g>
</g>
</svg>
