<svg width="34" height="22" viewBox="0 0 34 22" fill="none" xmlns="http://www.w3.org/2000/svg">
<g clip-path="url(#clip0_693_19)">
<path d="M22.9287 20.5683L19.499 17.4224C18.1727 17.8571 16.7389 17.9376 15.3646 17.6546C13.9903 17.3715 12.732 16.7366 11.736 15.8236C10.74 14.9106 10.0473 13.7571 9.73851 12.4973C9.42973 11.2375 9.51755 9.92327 9.99175 8.70747L5.61425 4.69476C1.99325 7.64585 0 11.0002 0 11.0002C0 11.0002 6.375 21.7137 17 21.7137C19.041 21.7088 21.0592 21.3189 22.9287 20.5683ZM11.0713 1.432C12.9408 0.681392 14.959 0.291513 17 0.286621C27.625 0.286621 34 11.0002 34 11.0002C34 11.0002 32.0046 14.3525 28.3879 17.3075L24.0061 13.2909C24.4803 12.0751 24.5681 10.7609 24.2594 9.50109C23.9506 8.24132 23.2579 7.08782 22.2619 6.17482C21.2659 5.26182 20.0075 4.62685 18.6332 4.3438C17.2589 4.06075 15.8252 4.14125 14.4989 4.57593L11.0713 1.432Z" fill="#002C42"/>
<path d="M11.7407 10.3105C11.6238 11.0591 11.6987 11.8224 11.9595 12.5399C12.2203 13.2573 12.6597 13.9093 13.2431 14.444C13.8264 14.9787 14.5376 15.3816 15.3203 15.6206C16.103 15.8597 16.9356 15.9284 17.7523 15.8212L11.7407 10.3105ZM22.2594 11.6897L16.2478 6.17707C17.0645 6.06992 17.8971 6.13859 18.6798 6.37763C19.4625 6.61668 20.1737 7.01953 20.757 7.55427C21.3404 8.089 21.7799 8.74093 22.0406 9.45839C22.3014 10.1758 22.3763 10.9391 22.2594 11.6877V11.6897ZM28.9978 23.3772L3.4978 0.00217189L5.0023 -1.37695L30.5023 21.998L28.9978 23.3772Z" fill="#002C42"/>
</g>
<defs>
<clipPath id="clip0_693_19">
<rect width="34" height="22" fill="white"/>
</clipPath>
</defs>
</svg>
