<svg width="34" height="34" viewBox="0 0 34 34" fill="none" xmlns="http://www.w3.org/2000/svg">
<path d="M22.9287 27.438L19.499 24.0061C18.1727 24.4803 16.7389 24.5681 15.3646 24.2594C13.9903 23.9506 12.732 23.2579 11.736 22.2619C10.74 21.2659 10.0473 20.0075 9.73851 18.6332C9.42973 17.2589 9.51755 15.8252 9.99175 14.4989L5.61425 10.1214C1.99325 13.3407 0 17 0 17C0 17 6.375 28.6875 17 28.6875C19.041 28.6822 21.0592 28.2568 22.9287 27.438ZM11.0713 6.562C12.9408 5.74316 14.959 5.31784 17 5.3125C27.625 5.3125 34 17 34 17C34 17 32.0046 20.6571 28.3879 23.8807L24.0061 19.499C24.4803 18.1727 24.5681 16.7389 24.2594 15.3646C23.9506 13.9903 23.2579 12.732 22.2619 11.736C21.2659 10.74 20.0075 10.0473 18.6332 9.73851C17.2589 9.42973 15.8252 9.51755 14.4989 9.99175L11.0713 6.562Z" fill="#002C42"/>
<path d="M11.7407 16.2478C11.6238 17.0645 11.6987 17.8971 11.9595 18.6798C12.2203 19.4625 12.6597 20.1737 13.2431 20.757C13.8264 21.3404 14.5376 21.7799 15.3203 22.0406C16.103 22.3014 16.9356 22.3763 17.7523 22.2594L11.7407 16.2478ZM22.2594 17.7523L16.2478 11.7386C17.0645 11.6217 17.8971 11.6966 18.6798 11.9573C19.4625 12.2181 20.1737 12.6576 20.757 13.241C21.3404 13.8243 21.7799 14.5355 22.0406 15.3182C22.3014 16.1009 22.3763 16.9335 22.2594 17.7502V17.7523ZM28.9978 30.5023L3.4978 5.0023L5.0023 3.4978L30.5023 28.9978L28.9978 30.5023Z" fill="#002C42"/>
</svg>
