<svg width="35" height="22" viewBox="0 0 35 22" fill="none" xmlns="http://www.w3.org/2000/svg">
<path d="M17.1059 6.6C15.8791 6.6 14.7026 7.06357 13.8352 7.88873C12.9677 8.71389 12.4804 9.83305 12.4804 11C12.4804 12.167 12.9677 13.2861 13.8352 14.1113C14.7026 14.9364 15.8791 15.4 17.1059 15.4C18.3326 15.4 19.5091 14.9364 20.3766 14.1113C21.244 13.2861 21.7313 12.167 21.7313 11C21.7313 9.83305 21.244 8.71389 20.3766 7.88873C19.5091 7.06357 18.3326 6.6 17.1059 6.6ZM17.1059 18.3333C15.0613 18.3333 13.1005 17.5607 11.6547 16.1854C10.209 14.8102 9.39678 12.9449 9.39678 11C9.39678 9.05508 10.209 7.18982 11.6547 5.81455C13.1005 4.43928 15.0613 3.66667 17.1059 3.66667C19.1505 3.66667 21.1113 4.43928 22.557 5.81455C24.0028 7.18982 24.815 9.05508 24.815 11C24.815 12.9449 24.0028 14.8102 22.557 16.1854C21.1113 17.5607 19.1505 18.3333 17.1059 18.3333ZM17.1059 0C9.39678 0 2.81322 4.56133 0.145874 11C2.81322 17.4387 9.39678 22 17.1059 22C24.815 22 31.3985 17.4387 34.0659 11C31.3985 4.56133 24.815 0 17.1059 0Z" fill="#002C42"/>
</svg>
