<svg width="500" height="500" viewBox="0 0 500 500" fill="none" xmlns="http://www.w3.org/2000/svg">
<g clip-path="url(#clip0_728_7)">
<mask id="mask0_728_7" style="mask-type:luminance" maskUnits="userSpaceOnUse" x="0" y="0" width="500" height="500">
<path d="M0 0H500V500H0V0Z" fill="white"/>
</mask>
<g mask="url(#mask0_728_7)">
<mask id="mask1_728_7" style="mask-type:luminance" maskUnits="userSpaceOnUse" x="0" y="0" width="500" height="500">
<path d="M0 0H500V500H0V0Z" fill="white"/>
</mask>
<g mask="url(#mask1_728_7)">
<path d="M458.236 244.96C455.506 131.666 362.813 41.701 250.102 41.701C248.394 41.701 246.665 41.721 244.957 41.763C129.955 44.533 38.97 140.04 41.761 255.042C43.114 311.032 66.486 361.254 103.334 397.811C103.314 397.873 103.314 397.915 103.292 397.977C103.688 398.352 104.126 398.685 104.522 399.06C105.396 399.914 106.354 400.644 107.229 401.477C110.895 404.893 114.561 408.33 118.457 411.475L118.832 411.788C134.786 424.726 152.566 435.234 171.594 442.97C172.698 443.408 173.844 443.74 174.948 444.178C179.176 445.803 183.405 447.428 187.758 448.782C188.028 448.865 188.278 448.969 188.55 449.052C189.237 449.261 189.924 449.427 190.612 449.636C193.112 450.386 195.694 450.927 198.235 451.573C199.548 451.906 200.86 452.239 202.172 452.552C204.297 453.052 206.359 453.718 208.505 454.156C209.13 454.281 209.775 454.343 210.4 454.468C213.462 455.051 216.566 455.406 219.67 455.864C222.773 456.322 225.814 456.947 228.96 457.259C229.647 457.322 230.355 457.301 231.043 457.364C234.271 457.655 237.563 457.718 240.833 457.864C243.77 457.988 246.644 458.301 249.603 458.301H249.894C251.602 458.301 253.331 458.281 255.039 458.238C296.199 457.238 334.151 444.22 365.959 422.828C366.25 422.619 366.584 422.453 366.875 422.244C371.333 419.203 375.603 415.974 379.811 412.621C380.894 411.767 381.998 410.934 383.061 410.059C386.372 407.309 389.538 404.414 392.663 401.456C393.933 400.269 395.287 399.186 396.537 397.977C396.517 397.915 396.517 397.852 396.495 397.79C435.76 358.859 459.673 304.596 458.235 244.96H458.236ZM294.762 312.491H205.068C170.865 312.491 140.766 329.676 121.873 355.838C98.73 327.947 84.337 292.557 83.4 254.021C82.317 209.528 98.647 167.285 129.35 135.061C160.054 102.837 201.485 84.486 245.978 83.403L250.102 83.361C339.734 83.361 414.43 156.308 416.596 245.981C417.576 286.599 403.911 325.239 378.206 356.192C359.314 329.842 329.131 312.491 294.762 312.491Z" fill="#EF9CA9"/>
<path d="M259.976 125.021H240C211.004 125.021 187.508 148.538 187.508 177.533V218.319C187.508 247.314 211.004 270.831 240 270.831H292.075C303.344 270.831 312.488 261.687 312.488 250.418V177.533C312.488 148.538 288.971 125.021 259.976 125.021Z" fill="#EF9CA9"/>
</g>
</g>
</g>
<defs>
<clipPath id="clip0_728_7">
<rect width="500" height="500" fill="white"/>
</clipPath>
</defs>
</svg>
