<svg width="42" height="42" viewBox="0 0 42 42" fill="none" xmlns="http://www.w3.org/2000/svg">
<path d="M11.4583 14.5833C12.9005 14.5833 14.3103 14.1557 15.5094 13.3545C16.7085 12.5533 17.6431 11.4144 18.195 10.0821C18.7468 8.74969 18.8912 7.28358 18.6099 5.86914C18.3285 4.45469 17.6341 3.15544 16.6143 2.13568C15.5946 1.11593 14.2953 0.421461 12.8809 0.140111C11.4664 -0.14124 10.0003 0.00315936 8.66793 0.555048C7.33555 1.10694 6.19675 2.04153 5.39553 3.24064C4.59432 4.43974 4.16667 5.84951 4.16667 7.29167C4.16887 9.22486 4.93781 11.0782 6.30478 12.4452C7.67176 13.8122 9.52514 14.5811 11.4583 14.5833ZM11.4583 2.08334C12.4884 2.08334 13.4954 2.3888 14.3519 2.9611C15.2084 3.5334 15.876 4.34683 16.2702 5.29853C16.6644 6.25023 16.7676 7.29745 16.5666 8.30777C16.3656 9.31808 15.8696 10.2461 15.1412 10.9745C14.4128 11.7029 13.4847 12.199 12.4744 12.3999C11.4641 12.6009 10.4169 12.4977 9.46519 12.1035C8.51349 11.7093 7.70006 11.0418 7.12776 10.1853C6.55546 9.32876 6.25 8.32178 6.25 7.29167C6.25165 5.91084 6.80092 4.58704 7.77731 3.61065C8.75371 2.63426 10.0775 2.08499 11.4583 2.08334ZM17.1104 31.25C16.9152 31.9307 16.7841 32.6282 16.7187 33.3333H0V26.0417C0.00275714 23.5561 0.991363 21.1731 2.74892 19.4156C4.50647 17.658 6.88944 16.6694 9.375 16.6667H13.5417C15.7184 16.6702 17.8262 17.4305 19.5038 18.8175C21.1815 20.2044 22.3247 22.1315 22.7375 24.2688C22.0442 24.6398 21.3908 25.081 20.7875 25.5854C20.6742 23.7387 19.8622 22.0044 18.5163 20.7348C17.1705 19.4652 15.3918 18.7555 13.5417 18.75H9.375C7.44181 18.7522 5.58842 19.5211 4.22145 20.8881C2.85447 22.2551 2.08554 24.1085 2.08333 26.0417V31.25H17.1104ZM30.2083 22.9167C31.6505 22.9167 33.0603 22.489 34.2594 21.6878C35.4585 20.8866 36.3931 19.7478 36.945 18.4154C37.4968 17.083 37.6412 15.6169 37.3599 14.2025C37.0785 12.788 36.3841 11.4888 35.3643 10.469C34.3446 9.44926 33.0453 8.75479 31.6309 8.47344C30.2164 8.19209 28.7503 8.33649 27.4179 8.88838C26.0856 9.44027 24.9468 10.3749 24.1455 11.574C23.3443 12.7731 22.9167 14.1828 22.9167 15.625C22.9189 17.5582 23.6878 19.4116 25.0548 20.7786C26.4218 22.1455 28.2751 22.9145 30.2083 22.9167ZM30.2083 10.4167C31.2384 10.4167 32.2454 10.7221 33.1019 11.2944C33.9584 11.8667 34.626 12.6802 35.0202 13.6319C35.4144 14.5836 35.5176 15.6308 35.3166 16.6411C35.1156 17.6514 34.6196 18.5795 33.8912 19.3079C33.1628 20.0362 32.2347 20.5323 31.2244 20.7333C30.2141 20.9342 29.1669 20.8311 28.2152 20.4369C27.2635 20.0427 26.4501 19.3751 25.8778 18.5186C25.3055 17.6621 25 16.6551 25 15.625C25.0017 14.2442 25.5509 12.9204 26.5273 11.944C27.5037 10.9676 28.8275 10.4183 30.2083 10.4167ZM41.6667 34.375C41.6639 31.8894 40.6753 29.5065 38.9177 27.7489C37.1602 25.9914 34.7772 25.0028 32.2917 25H28.125C25.6394 25.0028 23.2565 25.9914 21.4989 27.7489C19.7414 29.5065 18.7528 31.8894 18.75 34.375V41.6667H41.6667V34.375ZM39.5833 39.5833H20.8333V34.375C20.8355 32.4418 21.6045 30.5884 22.9714 29.2215C24.3384 27.8545 26.1918 27.0855 28.125 27.0833H32.2917C34.2249 27.0855 36.0782 27.8545 37.4452 29.2215C38.8122 30.5884 39.5811 32.4418 39.5833 34.375V39.5833Z" fill="#E87C7A"/>
</svg>
